<?xml version="1.0" encoding="UTF-8" standalone="no"?>
<svg
   xmlns:svg="http://www.w3.org/2000/svg"
   xmlns="http://www.w3.org/2000/svg"
   width="800.0"
   height="240.0"

>
    <g transform="scale(13.974828854442285, -13.974828854442285)   translate(29.31879325729683,-7.9338572889291505)" stroke-width="0.07155722695538574"  fill="none">
       <!-- hidden lines -->
       <g  stroke="rgb(160,160,160)" fill="none" stroke-dasharray="0.07155722695538574,0.07155722695538574" >
			<path d="M-13.119631153487642,-1.0510756356183546 L-13.119631153487642,0.9071524158033926 " />
			<path d="M-13.119631153487642,-1.0510756356183548 L-13.115874079505105,-1.1742945147132802 L-13.104617812772767,-1.2964882146126686 L-13.085907159406503,-1.417170337365362 L-13.059816598069855,-1.5358605019263718 L-13.02644998350811,-1.652086256336941 L-12.985940133149448,-1.7653849583424863 L-12.938448298418713,-1.8753056169625393 L-12.88416352286831,-1.9814106876822248 L-12.823301889681153,-2.083277814119438 L-12.75610566154109,-2.180501509234908 L-12.682842316294522,-2.2726947693930364 L-12.603803482241863,-2.359490614848643 L-12.519303777296942,-2.440543550527648 L-12.429679556635133,-2.515530941286975 L-12.33528757381525,-2.5841542961793977 L-12.236503560704726,-2.646140456611226 " />
			<path d="M-12.236503560704712,-2.646140456611234 L-12.1798436852721,-2.677631246224494 L-12.122017886134502,-2.7069562029447805 L-12.06309728723958,-2.7340792579806883 L-12.003154359104899,-2.758967050811903 L-11.942262829681422,-2.7815889702216117 L-11.880497593670414,-2.8019171919473567 L-11.817934620405268,-2.8199267129040146 L-11.754650860411571,-2.835595381936824 L-11.69072415076033,-2.848903927066619 L-11.626233119330786,-2.85983597919377 L-11.56125708810054,-2.8683780922316693 L-11.495875975581976,-2.8745197596450045 L-11.430170198524959,-2.8782534273724707 L-11.364220573006708,-2.879574503118034 L-11.298108215030524,-2.878481361999314 L-11.23191444075561,-2.874975348546138 " />
			<path d="M-13.119631153487642,0.9071524158033922 L-13.11735731603493,1.0033999164559728 L-13.110541281550375,1.0997391571823987 L-13.099199470458071,1.1959380483134412 L-13.08335920617436,1.291764838294338 L-13.063058649283349,1.3869886719945894 L-13.038346705604702,1.4813801468581886 L-13.009282908375258,1.574711865554473 L-12.975937274828224,1.6667589837982095 L-12.938390137515551,1.7572997520191742 L-12.896731950779765,1.8461160495762876 L-12.85106307284154,1.932993910229346 L-12.801493524027949,2.017724037602436 L-12.748142721723863,2.100102309397231 L-12.691139192685014,2.179930269141493 L-12.630620263405774,2.257015604288094 L-12.566731729287609,2.331172609512789 L-12.499627503405183,2.4022226340946053 L-12.429469245716286,2.469994512301078 L-12.356425973608825,2.534324975741492 L-12.280673654723142,2.595059046694738 L-12.202394783030554,2.652050411464211 L-12.121777939189387,2.705161772860327 L-12.039017336237658,2.7542651809614784 L-11.954312351716847,2.7992423413565986 L-11.867867047353947,2.839984900126762 L-11.779889677458883,2.8763947048792637 L-11.690592187221636,2.908384041205334 L-11.60018970211773,2.9358758439918273 L-11.508900009652097,2.958803883077834 L-11.416943034689922,2.977112922808937 L-11.324540309638369,2.9907588551047413 L-11.231914440755626,2.9997088057191026 " />
			<path d="M-11.231914440755608,-4.833203399967884 L10.476827755662793,-3.288427507287298 " />
			<path d="M10.476827755662793,-3.288427507287298 L10.476827755662793,-1.3301994558655514 " />
			<path d="M-11.231914440755608,-2.874975348546137 L-10.463186910217736,-2.8202733420240502 " />
			<path d="M-11.231914440755608,2.999708805719103 L-6.984551837108528,3.301947567330522 " />
			<path d="M-5.096835124376494,3.4362759058244863 L-5.098713661367763,3.4978853453719485 L-5.104341794733932,3.5589821953216427 L-5.113697121417064,3.6193232566979896 L-5.126742402085389,3.678668338978495 L-5.1434257093662605,3.7367812161837795 L-5.163680634545592,3.793430567186552 L-5.187426551910958,3.848390896496578 L-5.214568939686161,3.901443431856421 L-5.244999756279739,3.952376995075028 L-5.2785978703497705,4.000988842632763 L-5.3152295429730545,4.047085472711827 L-5.354748959999384,4.09048339543963 L-5.3969988124718435,4.131009863279132 L-5.441810922802748,4.168503558658796 L-5.489006914212689,4.202815236105008 L-5.538398920767956,4.233808316320924 " />
			<path d="M-5.53839892076796,4.233808316320926 L-5.592713268640195,4.262793351498859 L-5.649015341163606,4.287813048636646 L-5.707055321461368,4.308756393302349 L-5.766575681418454,4.325530458171624 L-5.827312324354838,4.338060815353818 L-5.888995756843953,4.346291866634575 L-5.951352284476949,4.350187090169642 L-6.014105226267053,4.349729202535254 L-6.076976142305629,4.344920235416105 L-6.139686069222697,4.335781526590584 L-6.20195675797011,4.322353625253324 L-6.263511908435216,4.304696112095127 L-6.3240783954069455,4.282887334938582 L-6.383387480454588,4.257024061102417 L-6.441176004342082,4.227221048037014 L-6.497187554686954,4.193610534136279 L-6.551173603682924,4.156341651985121 L-6.602894610837999,4.115579766646043 L-6.652121085835135,4.071505741920898 L-6.6986346067994385,4.024315137843493 L-6.742228789453801,3.9742173429638 L-6.782710202862727,3.9214346452739264 L-6.8198992277011365,3.866201245898206 L-6.853630853239923,3.8087622199237554 L-6.883755409511983,3.749372428982371 L-6.910139231410044,3.688295390408732 L-6.932665251769612,3.625802107992546 L-6.951233520805516,3.562169869512682 L-6.965761649597228,3.497681016388738 L-6.976185175655212,3.432621690909184 L-6.982457848946236,3.367280566594749 L-6.984551837108529,3.3019475673305303 " />
			<path d="M-5.0968351243764936,3.436275905824486 L10.476827755662793,4.544484698399688 " />
			<path d="M10.476827755662793,4.544484698399689 L10.476827755662793,6.502712749821436 " />
			<path d="M-13.241092680653814,-4.3755336160980765 L-13.127772929788591,-4.438515195324596 L-13.012121331513397,-4.49716510876517 L-12.894280133723555,-4.551411218836985 L-12.77439427745419,-4.601186804499415 L-12.652611218607237,-4.646430643318832 L-12.52908074658522,-4.687087086770321 L-12.40395480005493,-4.7231061286836376 L-12.277387280067535,-4.754443466749256 L-12.149533860765054,-4.781060557008846 L-12.020551797905965,-4.802924661263148 L-11.890599735445472,-4.820008887338947 L-11.759837510408346,-4.832292222165616 L-11.62842595629431,-4.83975955762055 L-11.496526705257809,-4.842401709111677 L-11.36430198930544,-4.840215426874236 L-11.231914440755611,-4.833203399967884 " />
			<path d="M10.476827755662793,-3.2884275072872984 L13.119631153487642,-4.8236085186468864 " />
			<path d="M10.476827755662793,4.544484698399689 L13.119631153487642,3.0093036870401013 " />
			<path d="M-5.096835124376494,3.436275905824485 L-3.807134695010829,2.687100385945085 " />
			<path d="M-4.3417484392836805,1.7667665559709338 L-6.984551837108529,3.3019475673305214 " />
			<path d="M-12.236503560704712,-2.6461404566112336 L-9.593700162879863,-4.181321467970822 " />
			<path d="M-2.895595522943111,2.698627304961338 L-5.53839892076796,4.233808316320926 " />

       </g>

       <!-- solid lines -->
       <g  stroke="rgb(0,0,0)" fill="none">
			<path d="M-10.476827755662793,-2.586256646977943 L-10.476827755662793,-0.6280285955561955 " />
			<path d="M-8.589111042930758,-6.368384411327471 L13.119631153487642,-4.823608518646885 " />
			<path d="M13.119631153487642,-4.823608518646886 L13.119631153487642,-2.865380467225139 " />
			<path d="M-8.589111042930758,-4.410156359905725 L13.119631153487642,-2.8653804672251395 " />
			<path d="M-10.476827755662793,-2.5862566469779424 L-10.473070681680255,-2.709475526072868 L-10.461814414947918,-2.8316692259722562 L-10.443103761581654,-2.9523513487249495 L-10.417013200245005,-3.0710415132859596 L-10.38364658568326,-3.1872672676965284 L-10.343136735324599,-3.300565969702074 L-10.295644900593864,-3.410486628322127 L-10.24136012504346,-3.5165916990418125 L-10.180498491856303,-3.6184588254790255 L-10.11330226371624,-3.7156825205944957 L-10.040038918469673,-3.807875780752624 L-9.961000084417014,-3.894671626208231 L-9.876500379472093,-3.9757245618872354 L-9.786876158810283,-4.050711952646562 L-9.692484175990401,-4.119335307538986 L-9.593700162879877,-4.181321467970814 " />
			<path d="M-9.593700162879863,-4.181321467970822 L-9.537040287447251,-4.212812257584082 L-9.479214488309653,-4.242137214304368 L-9.420293889414731,-4.2692602693402755 L-9.36035096128005,-4.294148062171491 L-9.299459431856572,-4.316769981581199 L-9.237694195845565,-4.337098203306944 L-9.175131222580418,-4.355107724263602 L-9.111847462586722,-4.370776393296412 L-9.04792075293548,-4.384084938426207 L-8.983429721505937,-4.395016990553358 L-8.91845369027569,-4.403559103591257 L-8.853072577757127,-4.409700771004593 L-8.78736680070011,-4.413434438732058 L-8.721417175181859,-4.414755514477622 L-8.655304817205675,-4.4136623733589015 L-8.58911104293076,-4.410156359905725 " />
			<path d="M-10.476827755662793,-0.6280285955561955 L-10.47455391821008,-0.531781094903615 L-10.467737883725526,-0.43544185417718906 L-10.456396072633222,-0.33924296304614643 L-10.440555808349512,-0.24341617306524965 L-10.4202552514585,-0.14819233936499832 L-10.395543307779853,-0.05380086450139904 L-10.366479510550409,0.03953085419488522 L-10.333133877003375,0.1315779724386218 L-10.295586739690702,0.22211874065958648 L-10.253928552954916,0.3109350382166999 L-10.208259675016691,0.39781289886975835 L-10.1586901262031,0.4825430262428484 L-10.105339323899013,0.5649212980376436 L-10.048335794860165,0.6447492577819048 L-9.987816865580925,0.721834592928506 L-9.92392833146276,0.7959915981532012 L-9.856824105580333,0.8670416227350174 L-9.786665847891436,0.9348135009414901 L-9.713622575783976,0.9991439643819041 L-9.637870256898292,1.0598780353351498 L-9.559591385205705,1.116869400104623 L-9.478974541364538,1.1699807615007396 L-9.396213938412808,1.2190841696018908 L-9.311508953891998,1.264061329997011 L-9.225063649529098,1.3048038887671742 L-9.137086279634033,1.3412136935196757 L-9.047788789396787,1.373203029845746 L-8.95738630429288,1.4006948326322397 L-8.866096611827247,1.4236228717182464 L-8.774139636865073,1.4419319114493492 L-8.68173691181352,1.4555778437451536 L-8.589111042930776,1.464527794359515 " />
			<path d="M-8.589111042930758,1.4645277943595154 L-4.341748439283679,1.7667665559709342 " />
			<path d="M-4.34174843928368,1.7667665559709336 L-4.339654451121387,1.832099555235161 L-4.333381777830363,1.897440679549596 L-4.322958251772379,1.96250000502915 L-4.308430122980667,2.0269888581530946 L-4.289861853944764,2.090621096632958 L-4.267335833585195,2.153114379049144 L-4.240952011687135,2.214191417622783 L-4.210827455415074,2.273581208564168 L-4.177095829876288,2.3310202345386184 L-4.139906805037878,2.3862536339143388 L-4.099425391628952,2.439036331604212 L-4.055831208974589,2.489134126483905 L-4.009317688010285,2.5363247305613106 L-3.9600912130131496,2.5803987552864545 L-3.9083702058580743,2.6211606406255337 L-3.854384156862105,2.6584295227766908 L-3.7983726065172334,2.692040036677426 L-3.740584082629739,2.7218430497428288 L-3.681274997582096,2.747706323578995 L-3.620708510610367,2.769515100735539 L-3.55915336014526,2.7871726138937376 L-3.496882671397848,2.8006005152309967 L-3.43417274448078,2.8097392240565178 L-3.371301828442204,2.814548191175667 L-3.3085488866520993,2.815006078810054 L-3.246192359019105,2.8111108552749875 L-3.1845089265299906,2.80287980399423 L-3.1237722835936057,2.790349446812037 L-3.0642519236365198,2.773575381942762 L-3.0062119433387586,2.752632037277059 L-2.9499098708153473,2.7276123401392725 L-2.8955955229431187,2.6986273049613434 " />
			<path d="M-2.895595522943111,2.698627304961339 L-2.846203516387841,2.667634224745421 L-2.7990075249779,2.6333225472992092 L-2.7541954146469947,2.5958288519195456 L-2.711945562174535,2.5553023840800435 L-2.672426145148206,2.5119044613522403 L-2.6357944725249216,2.465807831273176 L-2.60219635845489,2.4171959837154406 L-2.5717655418613115,2.3662624204968337 L-2.5446231540861097,2.313209885136991 L-2.5208772367207426,2.258249555826965 L-2.5006223115414112,2.2016002048241923 L-2.4839390042605394,2.1434873276189075 L-2.470893723592215,2.0841422453384024 L-2.4615383969090825,2.0238011839620555 L-2.455910263542914,1.9627043340123607 L-2.4540317265516447,1.9010948944649009 " />
			<path d="M-2.4540317265516443,1.9010948944648982 L13.119631153487642,3.0093036870401004 " />
			<path d="M13.119631153487642,3.009303687040101 L13.119631153487642,4.967531738461847 " />
			<path d="M-8.589111042930758,3.4227558457812624 L13.119631153487642,4.967531738461847 " />
			<path d="M-12.36454446839483,-0.7623569340501571 L-12.363407378433353,-0.666161375462072 L-12.359996793489401,-0.5698619327449995 L-12.354314767971811,-0.47351661308236415 L-12.346364724520294,-0.3771834512921476 L-12.336151451943753,-0.2809204748688826 L-12.323681102335685,-0.18478566903006233 L-12.308961187368402,-0.08883694178800872 L-12.292000573768265,0.0068679109317347775 L-12.27280947797471,0.10227124010452793 L-12.251399459986239,0.19731557833224078 L-12.22778341639712,0.291943674459455 L-12.201975572628948,0.38609852805943934 L-12.173991474361792,0.47972342376906185 L-12.143847978170054,0.5727619654520074 L-12.111563241368705,0.6651581101697016 L-12.077156711075988,0.7568562019394808 L-12.040649112499208,0.8478010052596751 L-12.002062436450643,0.9379377383814097 L-11.961419926101092,1.0272121063070818 L-11.918746062979071,1.1155703334956368 L-11.874066552224047,1.2029591962549424 L-11.827408307102619,1.2893260548017533 L-11.77879943279699,1.3746188849699457 L-11.728269209475439,1.4587863095479299 L-11.675848074655043,1.5417776292263636 L-11.62156760486727,1.6235428531375176 L-11.565460496637439,1.7040327289679063 L-11.50756054678957,1.78319877262604 L-11.447902632088432,1.8609932974474277 L-11.38652268823109,1.9373694429192425 L-11.323457688200575,2.012281202907342 L-11.258745619994757,2.085683453368635 L-11.192425463743783,2.1575319795321346 L-11.124537168229905,2.22778350253227 L-11.055121626823837,2.296395705478456 L-10.984220652852109,2.363327258945215 L-10.91187695441028,2.428537845867471 L-10.838134108637188,2.491988185826043 L-10.763036535465703,2.553640058708701 L-10.686629470865824,2.613456327732532 L-10.608958939596224,2.671400961813751 L-10.530071727480651,2.7274390572714764 L-10.450015353225899,2.7815368588524043 L-10.36883803979832,2.8336617800637094 L-10.286588685376104,2.8837824228019295 L-10.203316833894858,2.931868596266012 L-10.119072645204177,2.9778913351431187 L-10.033906864853238,3.021822917056252 L-9.947870793523567,3.0636368792631754 L-9.861016256127437,3.1033080345965787 L-9.773395570590477,3.1408124866358897 L-9.685061516337306,3.176127644101582 L-9.596067302499183,3.2092322344633173 L-9.506466535862817,3.2401063167537223 L-9.416313188579634,3.2687312935800814 L-9.325661565654997,3.2950899223267096 L-9.234566272236869,3.3191663255412647 L-9.14308218072373,3.340946000498724 L-9.051264397711503,3.3604158279372873 L-8.959168230799381,3.3775640799609294 L-8.866849155274618,3.3923804271038462 L-8.774362780696276,3.4048559445525375 L-8.681764817398111,3.4149831175217824 L-8.58911104293079,3.4227558457812597 " />
			<path d="M-12.36454446839483,-2.7205849854719064 L-12.36454446839483,-0.762356934050159 " />
			<path d="M-12.36454446839483,-2.7205849854719055 L-12.362665463820399,-2.8439989951732474 L-12.357030320429752,-2.9670227436617562 L-12.347644647359122,-3.089533774964771 L-12.33451778696508,-3.211410143460533 L-12.31766280552529,-3.3325305352610153 L-12.297096480232547,-3.4527743889659197 L-12.272839282495006,-3.572022015667672 L-12.24491535755925,-3.69015471808794 L-12.213352500476486,-3.8070549087271055 L-12.178182128435765,-3.922606226909078 L-12.13943924949179,-4.036693654604942 L-12.097162427718438,-4.1492036309201685 L-12.051393744822654,-4.260024165131389 L-12.002178758256969,-4.3690449481602744 L-11.949566455872294,-4.47615746237352 L-11.89360920715616,-4.581255089599646 L-11.83436271110493,-4.684233217255106 L-11.77188594078185,-4.784989342474072 L-11.70624108461617,-4.883423174138223 L-11.637493484501721,-4.979436732705012 L-11.565711570756585,-5.072934447735008 L-11.490966794008587,-5.163823253021269 L-11.413333554074436,-5.252012679226022 L-11.33288912590327,-5.337414943932482 L-11.249713582658345,-5.419945039022128 L-11.16388971601343,-5.4995208152904915 L-11.075502953743213,-5.576063064217245 L-10.98464127468981,-5.649495596809146 L-10.891395121189948,-5.719745319437408 L-10.795857309050046,-5.786742306593991 L-10.698122935158754,-5.850419870494396 L-10.598289282828993,-5.910714627457647 " />
			<path d="M-10.598289282828965,-5.910714627457665 L-10.484969531963742,-5.973696206684184 L-10.369317933688547,-6.032346120124757 L-10.251476735898706,-6.0865922301965725 L-10.131590879629341,-6.136367815859002 L-10.009807820782388,-6.18161165467842 L-9.886277348760371,-6.222268098129909 L-9.76115140223008,-6.258287140043224 L-9.634583882242685,-6.289624478108844 L-9.506730462940205,-6.316241568368435 L-9.377748400081115,-6.338105672622735 L-9.247796337620622,-6.355189898698534 L-9.117034112583497,-6.367473233525205 L-8.98562255846946,-6.374940568980136 L-8.85372330743296,-6.377582720471263 L-8.721498591480591,-6.375396438233825 L-8.589111042930762,-6.368384411327471 " />
			<path d="M-10.463186910217736,-2.8202733420240502 L10.476827755662793,-1.3301994558655517 " />
			<path d="M-11.231914440755608,4.957936857140849 L10.476827755662793,6.502712749821435 " />
			<path d="M-15.007347866219678,0.7728240773094306 L-15.006210776258202,0.8690196358975157 L-15.00280019131425,0.9653190786145882 L-14.99711816579666,1.0616643982772236 L-14.989168122345143,1.1579975600674401 L-14.978954849768602,1.2542605364907051 L-14.966484500160535,1.3503953423295254 L-14.951764585193251,1.446344069571579 L-14.934803971593114,1.5420489222913225 L-14.915612875799559,1.6374522514641157 L-14.894202857811088,1.7324965896918285 L-14.87058681422197,1.8271246858190429 L-14.844778970453797,1.921279539419027 L-14.816794872186641,2.0149044351286496 L-14.786651375994904,2.107942976811595 L-14.754366639193554,2.2003391215292893 L-14.719960108900837,2.2920372132990687 L-14.683452510324058,2.3829820166192626 L-14.644865834275492,2.4731187497409977 L-14.604223323925941,2.5623931176666694 L-14.56154946080392,2.6507513448552245 L-14.516869950048896,2.7381402076145305 L-14.470211704927468,2.824507066161341 L-14.42160283062184,2.9097998963295333 L-14.371072607300288,2.993967320907518 L-14.318651472479893,3.0769586405859513 L-14.264371002692119,3.158723864497105 L-14.208263894462288,3.239213740327494 L-14.15036394461442,3.3183797839856277 L-14.090706029913282,3.3961743088070153 L-14.029326086055939,3.47255045427883 L-13.966261086025424,3.5474622142669294 L-13.901549017819606,3.6208644647282227 L-13.835228861568632,3.6927129908917222 L-13.767340566054754,3.7629645138918577 L-13.697925024648686,3.8315767168380437 L-13.627024050676958,3.8985082703048026 L-13.55468035223513,3.9637188572270587 L-13.480937506462038,4.02716919718563 L-13.405839933290553,4.088821070068288 L-13.329432868690674,4.14863733909212 L-13.251762337421074,4.206581973173339 L-13.1728751253055,4.262620068631064 L-13.092818751050748,4.316717870211992 L-13.011641437623169,4.3688427914232975 L-12.929392083200954,4.418963434161517 L-12.846120231719707,4.467049607625599 L-12.761876043029027,4.513072346502707 L-12.676710262678087,4.55700392841584 L-12.590674191348416,4.5988178906227635 L-12.503819653952286,4.638489045956167 L-12.416198968415326,4.675993497995478 L-12.327864914162156,4.71130865546117 L-12.238870700324032,4.744413245822905 L-12.149269933687666,4.7752873281133095 L-12.059116586404484,4.803912304939669 L-11.968464963479846,4.830270933686297 L-11.877369670061718,4.854347336900853 L-11.78588557854858,4.876127011858312 L-11.694067795536352,4.895596839296875 L-11.60197162862423,4.912745091320517 L-11.509652553099468,4.927561438463433 L-11.417166178521125,4.9400369559121255 L-11.32456821522296,4.9501641288813705 L-11.23191444075564,4.957936857140847 " />
			<path d="M-15.007347866219678,-1.1854039741123186 L-15.007347866219678,0.7728240773094286 " />
			<path d="M-15.007347866219678,-1.185403974112318 L-15.005468861645248,-1.3088179838136598 L-14.999833718254601,-1.4318417323021684 L-14.990448045183971,-1.5543527636051833 L-14.977321184789929,-1.6762291321009453 L-14.960466203350139,-1.7973495239014277 L-14.939899878057396,-1.9175933776063323 L-14.915642680319856,-2.0368410043080845 L-14.8877187553841,-2.1549737067283523 L-14.856155898301335,-2.271873897367518 L-14.820985526260614,-2.38742521554949 L-14.78224264731664,-2.5015126432453547 L-14.739965825543287,-2.614022619560581 L-14.694197142647504,-2.7248431537718014 L-14.644982156081818,-2.833863936800687 L-14.592369853697143,-2.9409764510139325 L-14.53641260498101,-3.046074078240058 L-14.47716610892978,-3.1490522058955186 L-14.4146893386067,-3.2498083311144836 L-14.34904448244102,-3.3482421627786354 L-14.28029688232657,-3.4442557213454243 L-14.208514968581435,-3.537753436375421 L-14.133770191833436,-3.628642241661681 L-14.056136951899285,-3.7168316678664337 L-13.975692523728119,-3.8022339325728947 L-13.892516980483194,-3.88476402766254 L-13.806693113838278,-3.964339803930904 L-13.718306351568062,-4.040882052857658 L-13.62744467251466,-4.114314585449558 L-13.534198519014797,-4.184564308077819 L-13.438660706874895,-4.251561295234404 L-13.340926332983603,-4.3152388591348085 L-13.241092680653843,-4.3755336160980605 " />
			<path d="M10.476827755662793,6.502712749821434 L13.119631153487642,4.9675317384618465 " />
			<path d="M-3.807134695010829,2.687100385945085 L-2.454031726551646,1.9010948944648973 " />
			<path d="M10.476827755662793,-1.3301994558655514 L13.119631153487642,-2.8653804672251395 " />
			<path d="M-10.290154774708016,-3.422035170616348 L-8.589111042930758,-4.410156359905725 " />
			<path d="M-15.007347866219678,-1.1854039741123186 L-12.36454446839483,-2.7205849854719064 " />
			<path d="M-15.007347866219678,0.772824077309429 L-12.36454446839483,-0.7623569340501588 " />
			<path d="M-11.231914440755608,4.957936857140849 L-8.589111042930758,3.4227558457812615 " />
			<path d="M-13.241092680653814,-4.3755336160980765 L-10.598289282828965,-5.910714627457664 " />

       </g>
    </g>
    <g transform="translate(20,210.0)" stroke="rgb(0,0,255)">
        <line x1="30" y1="-30" x2="75" y2="-33" stroke-width="3" stroke="#000000" />
         <text x="80" y="-30" style="stroke:#000000">X </text>

        <line x1="30" y1="-30" x2="30" y2="-75" stroke-width="3" stroke="#000000" />
         <text x="25" y="-85" style="stroke:#000000">Y </text>

        <line x1="30" y1="-30" x2="58" y2="-15" stroke-width="3" stroke="#000000" />
         <text x="65" y="-5" style="stroke:#000000">Z </text>
        <!--
            <line x1="0" y1="0" x2="13.974828854442285" y2="0" stroke-width="3" />
            <text x="0" y="20" style="stroke:#000000">1  mm </text>
        -->
    </g>
</svg>
