<?xml version="1.0" encoding="UTF-8" standalone="no"?>
<svg
   xmlns:svg="http://www.w3.org/2000/svg"
   xmlns="http://www.w3.org/2000/svg"
   width="800.0"
   height="240.0"

>
    <g transform="scale(8.860485867541456, -8.860485867541456)   translate(37.579473479856546,-16.194537511488868)" stroke-width="0.11286062806818435"  fill="none">
       <!-- hidden lines -->
       <g  stroke="rgb(160,160,160)" fill="none" stroke-dasharray="0.11286062806818435,0.11286062806818435" >
			<path d="M-13.119631153487642,-1.0510756356183546 L-13.119631153487642,0.9071524158033926 " />
			<path d="M-13.119631153487642,-1.0510756356183548 L-13.115874079505105,-1.1742945147132802 L-13.104617812772767,-1.2964882146126686 L-13.085907159406503,-1.417170337365362 L-13.059816598069855,-1.5358605019263718 L-13.02644998350811,-1.652086256336941 L-12.985940133149448,-1.7653849583424863 L-12.938448298418713,-1.8753056169625393 L-12.88416352286831,-1.9814106876822248 L-12.823301889681153,-2.083277814119438 L-12.75610566154109,-2.180501509234908 L-12.682842316294522,-2.2726947693930364 L-12.603803482241863,-2.359490614848643 L-12.519303777296942,-2.440543550527648 L-12.429679556635133,-2.515530941286975 L-12.33528757381525,-2.5841542961793977 L-12.236503560704726,-2.646140456611226 " />
			<path d="M-12.236503560704712,-2.646140456611234 L-12.1798436852721,-2.677631246224494 L-12.122017886134502,-2.7069562029447805 L-12.06309728723958,-2.7340792579806883 L-12.003154359104899,-2.758967050811903 L-11.942262829681422,-2.7815889702216117 L-11.880497593670414,-2.8019171919473567 L-11.817934620405268,-2.8199267129040146 L-11.754650860411571,-2.835595381936824 L-11.69072415076033,-2.848903927066619 L-11.626233119330786,-2.85983597919377 L-11.56125708810054,-2.8683780922316693 L-11.495875975581976,-2.8745197596450045 L-11.430170198524959,-2.8782534273724707 L-11.364220573006708,-2.879574503118034 L-11.298108215030524,-2.878481361999314 L-11.23191444075561,-2.874975348546138 " />
			<path d="M-13.119631153487642,0.9071524158033922 L-13.11735731603493,1.0033999164559728 L-13.110541281550375,1.0997391571823987 L-13.099199470458071,1.1959380483134412 L-13.08335920617436,1.291764838294338 L-13.063058649283349,1.3869886719945894 L-13.038346705604702,1.4813801468581886 L-13.009282908375258,1.574711865554473 L-12.975937274828224,1.6667589837982095 L-12.938390137515551,1.7572997520191742 L-12.896731950779765,1.8461160495762876 L-12.85106307284154,1.932993910229346 L-12.801493524027949,2.017724037602436 L-12.748142721723863,2.100102309397231 L-12.691139192685014,2.179930269141493 L-12.630620263405774,2.257015604288094 L-12.566731729287609,2.331172609512789 L-12.499627503405183,2.4022226340946053 L-12.429469245716286,2.469994512301078 L-12.356425973608825,2.534324975741492 L-12.280673654723142,2.595059046694738 L-12.202394783030554,2.652050411464211 L-12.121777939189387,2.705161772860327 L-12.039017336237658,2.7542651809614784 L-11.954312351716847,2.7992423413565986 L-11.867867047353947,2.839984900126762 L-11.779889677458883,2.8763947048792637 L-11.690592187221636,2.908384041205334 L-11.60018970211773,2.9358758439918273 L-11.508900009652097,2.958803883077834 L-11.416943034689922,2.977112922808937 L-11.324540309638369,2.9907588551047413 L-11.231914440755626,2.9997088057191026 " />
			<path d="M-11.231914440755608,-2.874975348546137 L-10.463186910217736,-2.8202733420240502 " />
			<path d="M-11.231914440755608,2.999708805719103 L10.476827755662793,4.544484698399688 " />
			<path d="M10.476827755662793,4.544484698399689 L13.119631153487642,3.0093036870401013 " />
			<path d="M10.476827755662793,-3.2884275072872984 L13.119631153487642,-4.8236085186468864 " />
			<path d="M10.476827755662793,-3.288427507287298 L10.476827755662793,-1.3301994558655514 " />
			<path d="M10.476827755662793,4.544484698399689 L10.476827755662793,6.502712749821436 " />
			<path d="M-11.231914440755608,4.957936857140849 L-8.450903317060362,5.155831276923021 " />
			<path d="M-11.57984887128394,4.916511438724422 L-11.493027447520232,4.929978346056818 L-11.406067033686426,4.941375411830792 L-11.319013918683119,4.950696569404966 L-11.23191444075564,4.957936857140847 " />
			<path d="M-13.241092680653814,-4.3755336160980765 L-13.127772929788591,-4.438515195324596 L-13.012121331513397,-4.49716510876517 L-12.894280133723555,-4.551411218836985 L-12.77439427745419,-4.601186804499415 L-12.652611218607237,-4.646430643318832 L-12.52908074658522,-4.687087086770321 L-12.40395480005493,-4.7231061286836376 L-12.277387280067535,-4.754443466749256 L-12.149533860765054,-4.781060557008846 L-12.020551797905965,-4.802924661263148 L-11.890599735445472,-4.820008887338947 L-11.759837510408346,-4.832292222165616 L-11.62842595629431,-4.83975955762055 L-11.496526705257809,-4.842401709111677 L-11.36430198930544,-4.840215426874236 L-11.231914440755611,-4.833203399967884 " />
			<path d="M-11.231914440755608,-4.833203399967884 L10.476827755662793,-3.288427507287298 " />
			<path d="M0.6748171853300284,12.974840226773292 L0.8158766963302648,12.891334467728782 L0.9557705283675664,12.805450258257192 L1.0944936997292083,12.717301632747576 L1.232038741688127,12.6270015871422 L1.3683958511038705,12.53466231312794 L1.5035530921317921,12.440395267571885 L1.6374966397774857,12.344311053993478 L1.7702110580334711,12.246519092865526 L2.031833832973968,12.04630856334905 L2.2871709224979657,11.842646092158727 L2.5362014875576886,11.638106164025695 L2.7794776186216517,11.4345806920162 L3.250505056243273,11.038169781066127 L3.4788908934724727,10.849149033213115 L3.7027497498482527,10.66883752268939 L3.9220872795443746,10.499174918551574 L4.030028481443426,10.418953084959334 L4.1367826621455,10.342136152186795 L4.242309548253362,10.268972400754086 L4.346556064227833,10.199706669886089 L4.4494550522352405,10.134577316534582 L4.550924375637752,10.073812756528323 " />
			<path d="M4.550924375637775,10.073812756528305 L4.62966450807082,10.029227472930618 L4.707406325717032,9.987572412040135 L4.784090574580903,9.948936487392853 L4.8596533092095955,9.913399322075657 L4.934026828302708,9.881029991641407 L5.0071409408793635,9.851885788271428 L5.078924598184182,9.826011023820648 L5.149307926513652,9.803435889380648 " />
			<path d="M-11.515071947665414,4.506977435053971 L-9.627355234933377,4.641305773547934 " />
			<path d="M-9.627355234933377,4.641305773547934 L-9.65710447129626,4.7426902793844254 L-9.683555418286751,4.84268198517054 L-9.706792842698121,4.94130200760147 L-9.726897459467741,5.038578468078371 L-9.743945616631306,5.134545740093438 L-9.758008980277028,5.229243696614997 L-9.769154219499843,5.322716957472578 L-9.777442691355613,5.415014136742009 L-9.782930125815332,5.506187090130495 L-9.785666310719325,5.596290162361701 L-9.785694776731457,5.685379434560838 L-9.783052482293334,5.773511971639749 L-9.7777694985785,5.860745069681985 L-9.769868694446656,5.947135503327896 L-9.759365421397844,6.032738773159716 L-9.746267046724487,6.1176086467669135 L-9.730469887259655,6.202002402959996 L-9.711869984074797,6.286182717977055 L-9.690444662163662,6.370238549968234 L-9.666170714786928,6.454242565656338 L-9.639026369540161,6.5382526393322875 L-9.608992902091728,6.622313311311566 L-9.576055930250249,6.706457200260474 L-9.540206419634329,6.79070636428876 L-9.50144143083012,6.875073606192888 L-9.459764636535333,6.959563718721938 L-9.415186635801229,7.04417466622583 L-9.36772509109716,7.1288986995333 L-9.317404712535094,7.213723401394766 L-9.264257112204636,7.298632660312933 L-9.208320550181961,7.383607571071707 L-9.149639592389056,7.468627260761714 L-9.088264699092655,7.553669639588417 L-9.0242517614452,7.638712076236562 L-8.888559454410895,7.808707416792722 L-8.74309901263892,7.978442357973252 L-8.588460601611231,8.147768110451407 L-8.425272374065683,8.316566980487128 L-8.25418655192555,8.484757298014316 L-8.07586814544237,8.652294814031146 L-7.890986672882839,8.819171193821088 L-7.700210889010554,8.985410357387941 L-7.504206175533735,9.151063543343547 L-7.30363389161011,9.316204097342474 L-7.099151627420383,9.480923111013444 L-6.681064865374102,9.809539532120255 L-6.2570677683861575,10.136873823954202 L-5.841932720184309,10.454803534370775 L-5.638444932707246,10.608051963602662 L-5.437704440391231,10.756503919462677 L-5.23977052285189,10.899437890598684 L-5.044732661086469,11.036154401124586 L-4.852705859074471,11.165987071234206 L-4.663822387647166,11.288315590546743 L-4.478219866495923,11.40257893918551 L-4.296025600189289,11.508287191591693 L-4.117337084068728,11.605030238074797 L-3.9421985958929966,11.692481759101511 L-3.770573789101032,11.770396787324719 L-3.6023142035633193,11.838601192354313 L-3.519360631033041,11.869022106285385 L-3.4371236096916635,11.89697142327159 L-3.3555364749224994,11.922436412371955 L-3.274518101777282,11.945402843888882 L-3.193971419513515,11.965853258940584 L-3.1132813192542828,11.983711083934939 L-3.0315576884491438,11.998873794913148 L-2.9487616603964604,12.011332859961591 L-2.864878136628017,12.021080121703168 L-2.7799027159061955,12.02810747055059 L-2.693840553925754,12.032407711062953 L-2.6067052935732105,12.033975309527616 L-2.5185180637398523,12.032807029170844 L-2.4293065446843642,12.028902459400621 L-2.3391040979410844,12.022264445485062 L-2.247948958769887,12.012899425069852 L-2.155883489143716,12.000817677938134 L-2.062953489269743,11.986033495416267 L-1.9692075656401773,11.96856527582889 L-1.8746965536087314,11.94843555240671 L-1.7794729924887323,11.925670960050432 L-1.6835906511688972,11.900302147354266 L-1.5871041022427732,11.872363640292436 L-1.4900683426478385,11.841893663972114 L-1.3925384588102916,11.808933928856188 L-1.2945693342915048,11.773529387859321 L-1.196215397932159,11.7357279707207 L-1.097530410490081,11.695580302056896 L-0.8993779582255459,11.608460428312515 L-0.7005228268594865,11.512617533692277 L-0.5013572667497668,11.408524022177877 L-0.30225369018467463,11.296668830887597 " />
			<path d="M-0.30225369018464654,11.296668830887581 L-0.1329857812957278,11.195652053012383 L0.03577313907721269,11.089678951247688 L0.20382360585014414,10.979064967329247 L0.3709729063506937,10.86413007947571 " />
			<path d="M3.56933390203106,8.398511510579933 L3.708564296809996,8.320230086858084 L3.8505434828510134,8.245914076108544 L3.995532110646206,8.175997473061908 L4.143780847758078,8.110960308838708 L4.295518428619682,8.051332600675005 L4.450936952464788,7.997697698755848 L4.610174179069508,7.950694904680884 L4.691247910797557,7.929896082844552 L4.773288748420558,7.911022770783355 L4.856233622046058,7.894187076953484 L4.940046280405123,7.879477343753949 L5.024702349273593,7.866974918869541 L5.110171416407587,7.85676094809668 L5.196416266145437,7.8489149281147945 L5.283392607986588,7.843513412949017 L5.371049210989776,7.84062888310455 L5.459328363959072,7.84032878316022 L5.548166589177794,7.8426747306324645 L5.637495544906797,7.847721896161446 L5.727243058985353,7.855518552528077 L5.817334242659635,7.8661057876844795 L5.907692640215711,7.879517374870857 L5.998241376111023,7.895779790998763 L6.088904267080563,7.914912372804563 L6.179606872141184,7.936927598817231 L6.270277458530034,7.9618314839416895 L6.360847866390601,7.9896240724326555 L6.4512542594626145,8.020300014224283 L6.5414377531398635,8.05384920898798 L6.631344915032964,8.090257501914452 L6.720928136612227,8.129507415056402 L6.810145877608982,8.171578898125347 L6.898962787622082,8.216450082909676 L6.987349711809836,8.264098025971457 L7.07528358964615,8.314499424986462 L7.162747257483516,8.367631295015588 L7.2497291670943085,8.423471592136194 L7.336223033455857,8.481999773218798 L7.422227425803918,8.543197282208316 L7.5077453164034464,8.60704795505928 L7.592783601574967,8.67353833748147 L7.677352609269355,8.742657911876034 L7.761465606903531,8.814399232282469 L7.8451383222543445,8.888757968813774 L7.92838848895785,8.965732865930729 L8.011235426576238,9.045325621996545 L8.09369966327484,9.127540700860028 L8.175802606896998,9.21238508973905 L8.257566267634935,9.299868021416353 L8.420165489099992,9.482795935407783 L8.581678054272379,9.676432697990197 L8.742284238453506,9.880908005910884 L8.902160743546773,10.096375089500862 " />
			<path d="M7.709746328495095,11.529615146089009 L8.90216074354681,10.096375089500912 " />
			<path d="M-9.627355234933377,4.641305773547934 L-8.305953536020953,3.873715267868141 " />
			<path d="M8.90216074354681,10.096375089500912 L10.223562442459235,9.328784583821117 " />
			<path d="M-12.236503560704712,-2.6461404566112336 L-9.593700162879863,-4.181321467970822 " />
			<path d="M-0.30225369018464604,11.296668830887583 L1.0191480087277731,10.529078325207788 " />
			<path d="M5.872326074550196,9.306222250848517 L4.55092437563778,10.073812756528309 " />

       </g>

       <!-- solid lines -->
       <g  stroke="rgb(0,0,0)" fill="none">
			<path d="M-10.476827755662793,-2.586256646977943 L-10.476827755662793,-0.6280285955561955 " />
			<path d="M-10.476827755662793,-2.5862566469779424 L-10.473070681680255,-2.709475526072868 L-10.461814414947918,-2.8316692259722562 L-10.443103761581654,-2.9523513487249495 L-10.417013200245005,-3.0710415132859596 L-10.38364658568326,-3.1872672676965284 L-10.343136735324599,-3.300565969702074 L-10.295644900593864,-3.410486628322127 L-10.24136012504346,-3.5165916990418125 L-10.180498491856303,-3.6184588254790255 L-10.11330226371624,-3.7156825205944957 L-10.040038918469673,-3.807875780752624 L-9.961000084417014,-3.894671626208231 L-9.876500379472093,-3.9757245618872354 L-9.786876158810283,-4.050711952646562 L-9.692484175990401,-4.119335307538986 L-9.593700162879877,-4.181321467970814 " />
			<path d="M-9.593700162879863,-4.181321467970822 L-9.537040287447251,-4.212812257584082 L-9.479214488309653,-4.242137214304368 L-9.420293889414731,-4.2692602693402755 L-9.36035096128005,-4.294148062171491 L-9.299459431856572,-4.316769981581199 L-9.237694195845565,-4.337098203306944 L-9.175131222580418,-4.355107724263602 L-9.111847462586722,-4.370776393296412 L-9.04792075293548,-4.384084938426207 L-8.983429721505937,-4.395016990553358 L-8.91845369027569,-4.403559103591257 L-8.853072577757127,-4.409700771004593 L-8.78736680070011,-4.413434438732058 L-8.721417175181859,-4.414755514477622 L-8.655304817205675,-4.4136623733589015 L-8.58911104293076,-4.410156359905725 " />
			<path d="M-10.476827755662793,-0.6280285955561955 L-10.47455391821008,-0.531781094903615 L-10.467737883725526,-0.43544185417718906 L-10.456396072633222,-0.33924296304614643 L-10.440555808349512,-0.24341617306524965 L-10.4202552514585,-0.14819233936499832 L-10.395543307779853,-0.05380086450139904 L-10.366479510550409,0.03953085419488522 L-10.333133877003375,0.1315779724386218 L-10.295586739690702,0.22211874065958648 L-10.253928552954916,0.3109350382166999 L-10.208259675016691,0.39781289886975835 L-10.1586901262031,0.4825430262428484 L-10.105339323899013,0.5649212980376436 L-10.048335794860165,0.6447492577819048 L-9.987816865580925,0.721834592928506 L-9.92392833146276,0.7959915981532012 L-9.856824105580333,0.8670416227350174 L-9.786665847891436,0.9348135009414901 L-9.713622575783976,0.9991439643819041 L-9.637870256898292,1.0598780353351498 L-9.559591385205705,1.116869400104623 L-9.478974541364538,1.1699807615007396 L-9.396213938412808,1.2190841696018908 L-9.311508953891998,1.264061329997011 L-9.225063649529098,1.3048038887671742 L-9.137086279634033,1.3412136935196757 L-9.047788789396787,1.373203029845746 L-8.95738630429288,1.4006948326322397 L-8.866096611827247,1.4236228717182464 L-8.774139636865073,1.4419319114493492 L-8.68173691181352,1.4555778437451536 L-8.589111042930776,1.464527794359515 " />
			<path d="M-10.463186910217736,-2.8202733420240502 L10.476827755662793,-1.3301994558655517 " />
			<path d="M10.476827755662793,-1.3301994558655514 L13.119631153487642,-2.8653804672251395 " />
			<path d="M-8.589111042930758,-4.410156359905725 L13.119631153487642,-2.8653804672251395 " />
			<path d="M-8.589111042930758,1.4645277943595154 L13.119631153487642,3.0093036870401004 " />
			<path d="M13.119631153487642,-4.823608518646886 L13.119631153487642,-2.865380467225139 " />
			<path d="M13.119631153487642,3.009303687040101 L13.119631153487642,4.967531738461847 " />
			<path d="M-8.589111042930758,3.4227558457812624 L13.119631153487642,4.967531738461847 " />
			<path d="M-12.36454446839483,-0.7623569340501571 L-12.363407378433353,-0.666161375462072 L-12.359996793489401,-0.5698619327449995 L-12.354314767971811,-0.47351661308236415 L-12.346364724520294,-0.3771834512921476 L-12.336151451943753,-0.2809204748688826 L-12.323681102335685,-0.18478566903006233 L-12.308961187368402,-0.08883694178800872 L-12.292000573768265,0.0068679109317347775 L-12.27280947797471,0.10227124010452793 L-12.251399459986239,0.19731557833224078 L-12.22778341639712,0.291943674459455 L-12.201975572628948,0.38609852805943934 L-12.173991474361792,0.47972342376906185 L-12.143847978170054,0.5727619654520074 L-12.111563241368705,0.6651581101697016 L-12.077156711075988,0.7568562019394808 L-12.040649112499208,0.8478010052596751 L-12.002062436450643,0.9379377383814097 L-11.961419926101092,1.0272121063070818 L-11.918746062979071,1.1155703334956368 L-11.874066552224047,1.2029591962549424 L-11.827408307102619,1.2893260548017533 L-11.77879943279699,1.3746188849699457 L-11.728269209475439,1.4587863095479299 L-11.675848074655043,1.5417776292263636 L-11.62156760486727,1.6235428531375176 L-11.565460496637439,1.7040327289679063 L-11.50756054678957,1.78319877262604 L-11.447902632088432,1.8609932974474277 L-11.38652268823109,1.9373694429192425 L-11.323457688200575,2.012281202907342 L-11.258745619994757,2.085683453368635 L-11.192425463743783,2.1575319795321346 L-11.124537168229905,2.22778350253227 L-11.055121626823837,2.296395705478456 L-10.984220652852109,2.363327258945215 L-10.91187695441028,2.428537845867471 L-10.838134108637188,2.491988185826043 L-10.763036535465703,2.553640058708701 L-10.686629470865824,2.613456327732532 L-10.608958939596224,2.671400961813751 L-10.530071727480651,2.7274390572714764 L-10.450015353225899,2.7815368588524043 L-10.36883803979832,2.8336617800637094 L-10.286588685376104,2.8837824228019295 L-10.203316833894858,2.931868596266012 L-10.119072645204177,2.9778913351431187 L-10.033906864853238,3.021822917056252 L-9.947870793523567,3.0636368792631754 L-9.861016256127437,3.1033080345965787 L-9.773395570590477,3.1408124866358897 L-9.685061516337306,3.176127644101582 L-9.596067302499183,3.2092322344633173 L-9.506466535862817,3.2401063167537223 L-9.416313188579634,3.2687312935800814 L-9.325661565654997,3.2950899223267096 L-9.234566272236869,3.3191663255412647 L-9.14308218072373,3.340946000498724 L-9.051264397711503,3.3604158279372873 L-8.959168230799381,3.3775640799609294 L-8.866849155274618,3.3923804271038462 L-8.774362780696276,3.4048559445525375 L-8.681764817398111,3.4149831175217824 L-8.58911104293079,3.4227558457812597 " />
			<path d="M-12.36454446839483,-2.7205849854719064 L-12.36454446839483,-0.762356934050159 " />
			<path d="M-12.36454446839483,-2.7205849854719055 L-12.362665463820399,-2.8439989951732474 L-12.357030320429752,-2.9670227436617562 L-12.347644647359122,-3.089533774964771 L-12.33451778696508,-3.211410143460533 L-12.31766280552529,-3.3325305352610153 L-12.297096480232547,-3.4527743889659197 L-12.272839282495006,-3.572022015667672 L-12.24491535755925,-3.69015471808794 L-12.213352500476486,-3.8070549087271055 L-12.178182128435765,-3.922606226909078 L-12.13943924949179,-4.036693654604942 L-12.097162427718438,-4.1492036309201685 L-12.051393744822654,-4.260024165131389 L-12.002178758256969,-4.3690449481602744 L-11.949566455872294,-4.47615746237352 L-11.89360920715616,-4.581255089599646 L-11.83436271110493,-4.684233217255106 L-11.77188594078185,-4.784989342474072 L-11.70624108461617,-4.883423174138223 L-11.637493484501721,-4.979436732705012 L-11.565711570756585,-5.072934447735008 L-11.490966794008587,-5.163823253021269 L-11.413333554074436,-5.252012679226022 L-11.33288912590327,-5.337414943932482 L-11.249713582658345,-5.419945039022128 L-11.16388971601343,-5.4995208152904915 L-11.075502953743213,-5.576063064217245 L-10.98464127468981,-5.649495596809146 L-10.891395121189948,-5.719745319437408 L-10.795857309050046,-5.786742306593991 L-10.698122935158754,-5.850419870494396 L-10.598289282828993,-5.910714627457647 " />
			<path d="M-10.598289282828965,-5.910714627457665 L-10.484969531963742,-5.973696206684184 L-10.369317933688547,-6.032346120124757 L-10.251476735898706,-6.0865922301965725 L-10.131590879629341,-6.136367815859002 L-10.009807820782388,-6.18161165467842 L-9.886277348760371,-6.222268098129909 L-9.76115140223008,-6.258287140043224 L-9.634583882242685,-6.289624478108844 L-9.506730462940205,-6.316241568368435 L-9.377748400081115,-6.338105672622735 L-9.247796337620622,-6.355189898698534 L-9.117034112583497,-6.367473233525205 L-8.98562255846946,-6.374940568980136 L-8.85372330743296,-6.377582720471263 L-8.721498591480591,-6.375396438233825 L-8.589111042930762,-6.368384411327471 " />
			<path d="M-8.589111042930758,-6.368384411327471 L13.119631153487642,-4.823608518646885 " />
			<path d="M10.476827755662793,6.502712749821434 L13.119631153487642,4.9675317384618465 " />
			<path d="M-8.450903317060362,5.155831276923021 L10.476827755662793,6.502712749821435 " />
			<path d="M-15.007347866219678,0.7728240773094306 L-15.006340459473424,0.8633644546965902 L-15.003318776851536,0.9539998863684485 L-14.998284430917721,1.0446820034438549 L-14.991240108321948,1.1353624121273342 L-14.971137641000723,1.3165245595207196 L-14.943054281027758,1.4970996611651721 L-14.907049968735372,1.6767023026511678 L-14.863201550713356,1.854949145160747 L-14.811602615789772,2.0314597436550916 L-14.752363295277604,2.2058573588856825 L-14.685610027913574,2.3777697614959594 L-14.611485289990874,2.5468300264971626 L-14.530147291261779,2.7126773164226785 L-14.441769637259199,2.874957651489387 L-14.346540958757934,3.03332466512212 L-14.244664509166455,3.187440343228727 L-14.13635773070856,3.336975745647828 L-14.021851790320811,3.4816117082294316 L-13.901391086256343,3.6210395240498987 L-13.775232726448117,3.7549616023073056 L-13.643645979744987,3.883092103490869 L-13.506911701191864,4.005157549468743 L-13.365321732580616,4.120897407192036 L-13.219178279551166,4.23006464476922 L-13.144496111203189,4.282110155623794 L-13.068793266572287,4.332426258724027 L-12.992110145553148,4.38098610216922 L-12.914487671178824,4.427763771311511 L-12.83596726778159,4.472734302585575 L-12.756590838886257,4.515873696830795 L-12.676400744847752,4.557158932098753 L-12.59543978024493,4.596567975939214 L-12.51375115104264,4.634079797158056 L-12.43137845153423,4.669674377040872 L-12.348365641076864,4.703332720036229 L-12.264757020631977,4.735036863892921 L-12.180597209123425,4.764769889245774 L-12.095931119625986,4.79251592864491 L-12.010803935396854,4.818260175023631 L-11.925261085762955,4.841988889600419 L-11.839348221876937,4.863689409210837 L-11.753111192354796,4.883350153065404 L-11.666596018808104,4.900960628929846 L-11.579848871283971,4.916511438724417 " />
			<path d="M-15.007347866219678,-1.1854039741123186 L-15.007347866219678,0.7728240773094286 " />
			<path d="M-15.007347866219678,-1.185403974112318 L-15.005468861645248,-1.3088179838136598 L-14.999833718254601,-1.4318417323021684 L-14.990448045183971,-1.5543527636051833 L-14.977321184789929,-1.6762291321009453 L-14.960466203350139,-1.7973495239014277 L-14.939899878057396,-1.9175933776063323 L-14.915642680319856,-2.0368410043080845 L-14.8877187553841,-2.1549737067283523 L-14.856155898301335,-2.271873897367518 L-14.820985526260614,-2.38742521554949 L-14.78224264731664,-2.5015126432453547 L-14.739965825543287,-2.614022619560581 L-14.694197142647504,-2.7248431537718014 L-14.644982156081818,-2.833863936800687 L-14.592369853697143,-2.9409764510139325 L-14.53641260498101,-3.046074078240058 L-14.47716610892978,-3.1490522058955186 L-14.4146893386067,-3.2498083311144836 L-14.34904448244102,-3.3482421627786354 L-14.28029688232657,-3.4442557213454243 L-14.208514968581435,-3.537753436375421 L-14.133770191833436,-3.628642241661681 L-14.056136951899285,-3.7168316678664337 L-13.975692523728119,-3.8022339325728947 L-13.892516980483194,-3.88476402766254 L-13.806693113838278,-3.964339803930904 L-13.718306351568062,-4.040882052857658 L-13.62744467251466,-4.114314585449558 L-13.534198519014797,-4.184564308077819 L-13.438660706874895,-4.251561295234404 L-13.340926332983603,-4.3152388591348085 L-13.241092680653843,-4.3755336160980605 " />
			<path d="M-11.515071947665414,4.506977435053971 L-11.543291420168611,4.66100243454835 L-11.566824986534948,4.814741204326794 L-11.585674704249156,4.96813034456404 L-11.599846238978097,5.121100153848318 L-11.609349138567973,5.273575283735068 L-11.614197107041553,5.425475393300633 L-11.61440827859539,5.5767158036959845 L-11.610005491597036,5.727208152700418 L-11.601016562582272,5.8768610492752655 L-11.587474560252314,6.025580728117609 L-11.569418079471047,6.17327170421398 L-11.546891515262237,6.319837427394078 L-11.519945336806744,6.465180936884469 L-11.48863636143976,6.6092055158623015 L-11.453028028648006,6.7518153460090105 L-11.413190674066975,6.892916162064035 L-11.369234964117586,7.0323576168028765 L-11.321418798898357,7.169813589348701 L-11.269919388702933,7.30520679981325 L-11.21490130056484,7.438504421050693 L-11.15652869440232,7.569687552068864 L-11.094963758955622,7.6987499299819575 L-11.0303654331385,7.8256966784308775 L-10.962888386439113,7.950543096895093 L-10.892682233114872,8.07331349492978 L-10.819890956035243,8.194040074971932 L-10.744652517135787,8.312761866969044 L-10.66709863255622,8.42952371769386 L-10.58735469164455,8.544375337218622 L-10.505539800118832,8.657370404632127 L-10.421766928787397,8.768565734692865 L-10.336143150337794,8.87802050672135 L-10.248769947814152,8.985795556644732 L-10.159743579511934,9.091952732716663 L-10.069155486128528,9.196554315045294 L-9.977092727117475,9.299662498672184 L-9.788872271924898,9.501644362415645 L-9.59570838605833,9.69837846513134 L-9.398186031318675,9.890320822300653 L-9.196862066094116,10.077897206386757 L-8.99227641518394,10.261500263787187 L-8.784960838863975,10.44148940871533 L-8.575445121524357,10.618192936808958 L-8.364260784212558,10.791911701401286 L-8.151942709417133,10.962923595527153 L-7.939029350429858,11.131487982874178 L-7.513587730007491,11.462237520481892 L-7.092301825797454,11.785949378981964 L-6.669764507741872,12.106649128370114 L-6.455419392428467,12.265561188133987 L-6.23881438588773,12.422508351455823 L-6.019761179354696,12.576721264538905 L-5.798043362768937,12.727417560552967 L-5.573417439408197,12.873795354481468 L-5.345616793934486,13.015023685662353 L-5.114358683047338,13.150231277437802 L-4.997342727510727,13.21529113922645 L-4.879354317938905,13.278494983328514 L-4.7603585836714215,13.339717585453144 L-4.640322107745559,13.398829289148011 L-4.519213518486457,13.455695831774127 L-4.397004133190693,13.510178240472518 L-4.2736686544439575,13.562132808821328 L-4.149185919613378,13.611411164881883 L-4.023539704055086,13.657860441332284 L-3.8967195785775948,13.701323558387113 L-3.7687218217015825,13.741639630201764 L-3.6395503872566737,13.77864450546 L-3.5092179278557896,13.812171452843279 L-3.3777468747876482,13.842052002080383 L-3.2451705748680015,13.868116951275969 L-3.1115344847902,13.890197551216536 L-2.9768974235156644,13.908126877352405 L-2.8413417562875334,13.92174245842031 L-2.705726286642933,13.931035641326243 L-2.570628082697683,13.936152535074168 L-2.4361136217822,13.937217503111437 L-2.302238943151151,13.93435557305795 L-2.169050691448589,13.92769159418717 L-2.036587099081398,13.917349499889472 L-1.904878909149276,13.903451669851174 L-1.7739502405794774,13.886118386682618 L-1.6438193971145585,13.865467381728646 L-1.5144996218013602,13.841613464794843 L-1.3859997986294514,13.814668232522896 L-1.2583251029672642,13.784739850148437 L-1.1314776024441462,13.75193290137471 L-1.0054568099265855,13.716348301095444 L-0.8802601902368179,13.678083265700273 L-0.755883622262048,13.637231335696075 L-0.6323218181025205,13.593882445377567 L-0.5095687009066805,13.548123034280538 L-0.3876177430416492,13.500036195151067 L-0.2664622662472338,13.44970185316409 L-0.14609570542171557,13.39719697112465 L-0.02651183768765275,13.342595775385242 L0.09229502161407854,13.285969997212545 L0.21032985435378304,13.227389124336955 L0.4440990730400425,13.104630366160707 L0.6748171853300113,12.974840226773301 " />
			<path d="M5.149307926513672,9.803435889380642 L5.232118266646018,9.780648469540841 L5.312699628005911,9.762662413996347 L5.390972478971422,9.749436510662806 L5.466890642932443,9.74089165535065 L5.540453651776821,9.73690955740471 L5.611758123535112,9.73731733682283 L5.681110981481305,9.74186887201993 L5.748717471566851,9.750390688822588 L5.814827460611485,9.762730511698356 L5.879766768009618,9.778771869240554 L5.943930274050352,9.79845416730424 L6.0077660205120145,9.821786592603235 L6.071754336593977,9.84885592865551 L6.136385205498687,9.879828646693399 L6.202136342525057,9.914947867460352 L6.269453784380709,9.954525975697193 L6.338736191564972,9.998933807578169 L6.410323541116969,10.048587422390483 L6.484490435763796,10.103933513360442 L6.561443877542396,10.165434508714878 L6.641325049305488,10.233554362828055 L6.724214416156735,10.308745938641867 L6.81013930079329,10.391440736460883 L6.899083001964804,10.482041530713502 L6.990994513787082,10.580918235336254 L7.08579796547577,10.688407030080192 L7.1834010361906895,10.804812444256243 L7.283701808104726,10.930411711230267 L7.3865938025327065,11.065460276348782 L7.491969298975124,11.210196862922235 L7.599721465249141,11.364845975414934 L7.709746328495065,11.529615146088966 " />
			<path d="M0.37097290635072133,10.864130079475693 L0.5664373791658417,10.723598262959042 L0.7614094835095978,10.576811517876648 L0.9561344477746523,10.42449001858322 L1.1506876037478726,10.267654497928223 L1.5398067627928107,9.944518736969464 L1.9302784033287526,9.615454441385825 L2.324466410116767,9.288396794742427 L2.523967263752043,9.128092608372906 L2.725741990459327,8.971228525666032 L2.9303970847416974,8.818776574126899 L3.1386438480158283,8.671750608684036 L3.244367990545518,8.60061131750636 L3.3513093524092943,8.531250301669878 L3.4595890101808466,8.463826702618377 L3.569333902031029,8.398511510579953 " />
			<path d="M-8.305953536020953,3.873715267868141 L-8.335702772383835,3.9750997737046316 L-8.362153719374326,4.075091479490745 L-8.385391143785696,4.173711501921677 L-8.405495760555317,4.270987962398577 L-8.422543917718883,4.366955234413645 L-8.436607281364605,4.461653190935204 L-8.447752520587418,4.555126451792784 L-8.456040992443189,4.647423631062216 L-8.461528426902907,4.7385965844507005 L-8.4642646118069,4.8286996566819065 L-8.464293077819033,4.917788928881045 L-8.46165078338091,5.005921465959955 L-8.456367799666078,5.093154564002191 L-8.448466995534233,5.179544997648103 L-8.43796372248542,5.265148267479923 L-8.42486534781206,5.350018141087118 L-8.409068188347225,5.4344118972801985 L-8.390468285162367,5.518592212297258 L-8.369042963251234,5.602648044288438 L-8.3447690158745,5.686652059976542 L-8.317624670627737,5.770662133652494 L-8.287591203179304,5.8547228056317735 L-8.254654231337824,5.938866694580682 L-8.218804720721904,6.023115858608968 L-8.180039731917697,6.107483100513095 L-8.138362937622908,6.191973213042145 L-8.093784936888804,6.276584160546037 L-8.046323392184735,6.361308193853506 L-7.996003013622668,6.446132895714972 L-7.94285541329221,6.5310421546331385 L-7.8869188512695345,6.616017065391912 L-7.828237893476629,6.701036755081919 L-7.766863000180228,6.786079133908622 L-7.702850062532774,6.871121570556768 L-7.56715775549847,7.041116911112929 L-7.421697313726494,7.210851852293458 L-7.267058902698805,7.380177604771613 L-7.103870675153258,7.548976474807334 L-6.932784853013123,7.717166792334523 L-6.754466446529946,7.884704308351353 L-6.569584973970415,8.051580688141296 L-6.37880919009813,8.21781985170815 L-6.182804476621311,8.383473037663752 L-5.982232192697687,8.54861359166268 L-5.777749928507959,8.713332605333651 L-5.359663166461681,9.041949026440468 L-4.935666069473735,9.36928331827441 L-4.520531021271889,9.68721302869098 L-4.317043233794825,9.840461457922867 L-4.116302741478809,9.98891341378288 L-3.918368823939466,10.131847384918887 L-3.723330962174045,10.268563895444789 L-3.5313041601620467,10.39839656555441 L-3.342420688734741,10.520725084866948 L-3.1568181675834994,10.634988433505717 L-2.974623901276865,10.7406966859119 L-2.795935385156305,10.837439732395001 L-2.6207968969805737,10.924891253421718 L-2.4491720901886085,11.002806281644926 L-2.2809125046508973,11.07101068667452 L-2.197958932120619,11.101431600605592 L-2.1157219107792424,11.129380917591794 L-2.034134776010077,11.154845906692156 L-1.9531164028648602,11.17781233820908 L-1.872569720601092,11.19826275326078 L-1.7918796203418572,11.216120578255142 L-1.7101559895367193,11.231283289233353 L-1.6273599614840366,11.2437423542818 L-1.5434764377155932,11.253489616023376 L-1.4585010169937733,11.2605169648708 L-1.3724388550133313,11.264817205383162 L-1.2853035946607876,11.266384803847824 L-1.19711636482743,11.265216523491052 L-1.1079048457719418,11.26131195372083 L-1.017702399028662,11.25467393980527 L-0.9265472598574648,11.24530891939006 L-0.8344817902312938,11.233227172258342 L-0.7415517903573214,11.218442989736475 L-0.647805866727756,11.200974770149099 L-0.5532948546963099,11.180845046726919 L-0.45807129357631116,11.15808045437064 L-0.36218895225647585,11.132711641674472 L-0.26570240333035167,11.104773134612644 L-0.16866664373541695,11.074303158292322 L-0.07113675989787027,11.041343423176396 L0.026832364620916982,11.00593888217953 L0.12518630098026295,10.968137465040908 L0.2238712884223404,10.927989796377105 L0.4220237406868754,10.840869922632724 L0.6208788720529348,10.745027028012483 L0.820044432162655,10.640933516498086 L1.019148008727748,10.529078325207806 " />
			<path d="M1.0191480087277762,10.529078325207784 L1.1399649226041333,10.457522467650646 L1.260552370590869,10.38339762290222 L1.3808367022527561,10.306817838461011 L1.5007462546952366,10.227898044667281 L1.6202110598344535,10.146754394051214 L1.739162522193135,10.063504850419056 L1.9758396183689122,9.890531285059799 L2.2120504276155093,9.708698329566571 L2.4479666691682738,9.51972509168618 L2.683784584337088,9.325430840826353 L2.9197996803846533,9.127624695882103 L3.39410360480177,8.7285585801007 L3.633559868129411,8.530838170268407 L3.875555290311986,8.33666757719811 L4.121023510808956,8.147767413844095 L4.245403505724048,8.05583670185995 L4.371092362804054,7.965886376106925 L4.498268329622961,7.8781552268551085 L4.6271256198036985,7.792897406933699 L4.75787371537337,7.710386716525827 L4.890735600943426,7.630921004900175 " />
			<path d="M4.890735600943457,7.6309210049001575 L5.029965995722397,7.552639581178305 L5.171945181763414,7.478323570428764 L5.316933809558605,7.408406967382128 L5.465182546670479,7.343369803158923 L5.616920127532086,7.283742094995218 L5.7723386513771935,7.230107193076062 L5.931575877981921,7.183104399001101 L6.012649609709976,7.1623055771647675 L6.094690447332985,7.14343226510357 L6.177635320958483,7.126596571273698 L6.261447979317543,7.111886838074161 L6.346104048186006,7.099384413189752 L6.431573115319994,7.08917044241689 L6.51781796505784,7.081324422435004 L6.604794306898988,7.075922907269225 L6.692450909902176,7.073038377424758 L6.780730062871476,7.072738277480426 L6.869568288090203,7.075084224952671 L6.958897243819207,7.080131390481653 L7.048644757897764,7.087928046848282 L7.138735941572047,7.098515282004684 L7.229094339128121,7.111926869191061 L7.319643075023434,7.128189285318967 L7.410305965992972,7.1473218671247665 L7.501008571053592,7.169337093137433 L7.5916791574424405,7.194240978261892 L7.682249565303007,7.222033566752858 L7.7726559583750205,7.252709508544485 L7.86283945205227,7.2862587033081825 L7.95274661394537,7.322666996234653 L8.042329835524635,7.3619169093766015 L8.13154757652139,7.403988392445545 L8.220364486534496,7.448859577229877 L8.308751410722255,7.49650752029166 L8.396685288558569,7.546908919306665 L8.484148956395936,7.600040789335791 L8.57113086600673,7.655881086456396 L8.657624732368278,7.714409267539 L8.743629124716339,7.775606776528518 L8.829147015315865,7.8394574493794815 L8.914185300487386,7.9059478318016705 L8.998754308181773,7.975067406196235 L9.082867305815949,8.04680872660267 L9.166540021166762,8.121167463133974 L9.24979018787027,8.198142360250928 L9.33263712548866,8.277735116316745 L9.415101362187263,8.359950195180229 L9.497204305809422,8.444794584059249 L9.578967966547363,8.532277515736556 L9.741567188012418,8.71520542972799 L9.903079753184793,8.908842192310404 L10.06368593736591,9.11331750023109 L10.2235624424592,9.328784583821067 " />
			<path d="M-8.305953536020953,3.873715267868141 L-10.193670248752989,3.7393869293741773 " />
			<path d="M-10.193670248752989,3.7393869293741773 L-10.221889721256188,3.8934119288685562 L-10.245423287622524,4.047150698647 L-10.264273005336733,4.200539838884246 L-10.278444540065673,4.353509648168525 L-10.28794743965555,4.505984778055274 L-10.29279540812913,4.657884887620841 L-10.293006579682967,4.809125298016192 L-10.288603792684613,4.959617647020624 L-10.279614863669847,5.109270543595472 L-10.26607286133989,5.257990222437815 L-10.248016380558624,5.405681198534188 L-10.225489816349812,5.552246921714285 L-10.19854363789432,5.6975904312046755 L-10.167234662527333,5.841615010182508 L-10.13162632973558,5.984224840329218 L-10.091788975154547,6.125325656384241 L-10.047833265205155,6.264767111123081 L-10.000017099985923,6.402223083668906 L-9.948517689790501,6.537616294133455 L-9.89349960165241,6.670913915370899 L-9.83512699548989,6.80209704638907 L-9.773562060043194,6.931159424302165 L-9.708963734226074,7.058106172751086 L-9.641486687526687,7.182952591215302 L-9.571280534202447,7.305722989249988 L-9.498489257122818,7.4264495692921395 L-9.423250818223362,7.545171361289252 L-9.345696933643794,7.661933212014068 L-9.265952992732123,7.776784831538829 L-9.184138101206406,7.889779898952335 L-9.10036522987497,8.000975229013074 L-9.014741451425367,8.110430001041557 L-8.927368248901725,8.21820505096494 L-8.838341880599508,8.324362227036872 L-8.747753787216102,8.428963809365502 L-8.655691028205048,8.532071992992392 L-8.467470573012472,8.734053856735853 L-8.274306687145904,8.930787959451546 L-8.076784332406246,9.122730316620864 L-7.875460367181688,9.310306700706967 L-7.670874716271511,9.493909758107398 L-7.463559139951548,9.67389890303554 L-7.25404342261193,9.850602431129166 L-7.04285908530013,10.024321195721495 L-6.830541010504707,10.19533308984736 L-6.617627651517431,10.363897477194387 L-6.192186031095066,10.694647014802102 L-5.770900126885025,11.018358873302176 L-5.348362808829444,11.339058622690322 L-5.134017693516039,11.497970682454195 L-4.917412686975304,11.654917845776032 L-4.698359480442268,11.809130758859116 L-4.476641663856508,11.959827054873177 L-4.252015740495768,12.106204848801678 L-4.024215095022056,12.247433179982561 L-3.7929569841349076,12.38264077175801 L-3.6759410285982965,12.44770063354666 L-3.557952619026473,12.510904477648724 L-3.4389568847589898,12.572127079773354 L-3.3189204088331294,12.631238783468223 L-3.1978118195740257,12.688105326094337 L-3.0756024342782617,12.742587734792728 L-2.9522669555315257,12.794542303141538 L-2.827784220700947,12.843820659202091 L-2.702138005142655,12.890269935652494 L-2.5753178796651635,12.933733052707321 L-2.447320122789151,12.97404912452197 L-2.318148688344241,13.01105399978021 L-2.187816228943358,13.044580947163485 L-2.056345175875217,13.074461496400591 L-1.9237688759555702,13.100526445596177 L-1.7901327858777671,13.122607045536746 L-1.6554957246032327,13.140536371672619 L-1.5199400573750996,13.154151952740527 L-1.3843245877304982,13.16344513564646 L-1.249226383785249,13.168562029394382 L-1.1147119228697664,13.169626997431648 L-0.9808372442387177,13.166765067378158 L-0.847648992536156,13.160101088507377 L-0.7151854001689654,13.149758994209678 L-0.5834772102368431,13.13586116417138 L-0.4525485416670445,13.118527881002825 L-0.3224176982021256,13.097876876048854 L-0.19309792288892758,13.074022959115052 L-0.06459809971701924,13.047077726843105 L0.06307659594516801,13.017149344468645 L0.18992409646828534,12.984342395694917 L0.3159448889858456,12.948757795415649 L0.44114150867561297,12.910492760020478 L0.5655180766503827,12.86964083001628 L0.6890798808099106,12.826291939697771 L0.8118329980057502,12.780532528600741 L0.9337839558707814,12.73244568947127 L1.0549394326651973,12.682111347484293 L1.1753059934907155,12.629606465444853 L1.2948898612247783,12.575005269705445 L1.41369672052651,12.518379491532748 L1.5317315532662137,12.459798618657159 L1.7655007719524758,12.337039860480909 L1.9962188842424433,12.207249721093502 " />
			<path d="M1.9962188842424609,12.207249721093493 L2.137278395242695,12.123743962048984 L2.277172227279997,12.037859752577395 L2.4158953986416387,11.94971112706778 L2.553440440600559,11.859411081462403 L2.6897975500163023,11.767071807448144 L2.824954791044224,11.672804761892085 L2.9588983386899157,11.576720548313673 L3.0916127569459,11.478928587185719 L3.353235531886397,11.27871805766925 L3.6085726214103957,11.075055586478927 L3.8576031864701186,10.870515658345896 L4.100879317534078,10.666990186336403 L4.571906755155699,10.270579275386336 L4.800292592384897,10.081558527533321 L5.024151448760681,9.901247017009597 L5.243488978456803,9.731584412871781 L5.3514301803558535,9.65136257927954 L5.458184361057926,9.574545646507001 L5.563711247165788,9.501381895074292 L5.667957763140258,9.432116164206294 L5.7708567511476625,9.36698681085479 L5.872326074550173,9.30622225084853 " />
			<path d="M5.872326074550196,9.306222250848519 L5.986511317517531,9.242344411899696 L6.098528539376603,9.184749945436828 L6.2081857443181425,9.133692740816354 L6.3152739666140345,9.089380034274567 L6.419575870101982,9.051964423704991 L6.520877928572661,9.02153631183504 L6.618986671106835,8.998117020437459 L6.713749476409825,8.98165281821201 L6.805080400190802,8.972010104972963 L6.892991519634306,8.968971994777796 L6.977799899655671,8.972177026918962 L7.059960048810127,8.981257327725702 L7.139879728525858,8.995938335918328 L7.218125725420946,9.01601308195849 L7.29540880536178,9.041394413092187 L7.37254116159824,9.072148201376162 L7.450381015162721,9.108507986279005 L7.5297753896052875,9.150872727503295 L7.611508871645802,9.199790297736161 L7.696263359116044,9.255930040112714 L7.784591387640633,9.320048151270017 L7.876903617864995,9.392949827978384 L7.973469455681636,9.475452033462147 L8.074428568832696,9.56835039866326 L8.17981025447703,9.672393173858557 L8.289557203804005,9.788264287214858 L8.403550201553772,9.91657644905559 L8.521630690364873,10.057873863818164 L8.643618922214994,10.21264247590287 L8.769326611848948,10.381323780851769 L8.898564600000157,10.56432607954969 L9.03114802740749,10.762024640409171 " />
			<path d="M10.223562442459235,9.328784583821117 L9.03114802740752,10.762024640409214 " />
			<path d="M-10.193670248752989,3.7393869293741773 L-11.515071947665414,4.506977435053971 " />
			<path d="M9.03114802740752,10.762024640409214 L7.709746328495095,11.529615146089009 " />
			<path d="M-10.290154774708016,-3.422035170616348 L-8.589111042930758,-4.410156359905725 " />
			<path d="M-15.007347866219678,-1.1854039741123186 L-12.36454446839483,-2.7205849854719064 " />
			<path d="M-15.007347866219678,0.772824077309429 L-12.36454446839483,-0.7623569340501588 " />
			<path d="M-9.249811892386973,3.80655109862116 L-8.589111042930758,3.4227558457812615 " />
			<path d="M-13.241092680653814,-4.3755336160980765 L-10.598289282828965,-5.910714627457664 " />
			<path d="M3.569333902031059,8.398511510579933 L4.8907356009434535,7.630921004900159 " />
			<path d="M1.9962188842424609,12.207249721093493 L0.6748171853300311,12.974840226773289 " />

       </g>
    </g>
    <g transform="translate(20,210.0)" stroke="rgb(0,0,255)">
        <line x1="30" y1="-30" x2="75" y2="-33" stroke-width="3" stroke="#000000" />
         <text x="80" y="-30" style="stroke:#000000">X </text>

        <line x1="30" y1="-30" x2="30" y2="-75" stroke-width="3" stroke="#000000" />
         <text x="25" y="-85" style="stroke:#000000">Y </text>

        <line x1="30" y1="-30" x2="58" y2="-15" stroke-width="3" stroke="#000000" />
         <text x="65" y="-5" style="stroke:#000000">Z </text>
        <!--
            <line x1="0" y1="0" x2="8.860485867541456" y2="0" stroke-width="3" />
            <text x="0" y="20" style="stroke:#000000">1  mm </text>
        -->
    </g>
</svg>
