<?xml version="1.0" encoding="UTF-8" standalone="no"?>
<svg
   xmlns:svg="http://www.w3.org/2000/svg"
   xmlns="http://www.w3.org/2000/svg"
   width="800.0"
   height="240.0"

>
    <g transform="scale(12.95727261898889, -12.95727261898889)   translate(30.11234451498757,-11.078158156105996)" stroke-width="0.07717673536747999"  fill="none">
       <!-- hidden lines -->
       <g  stroke="rgb(160,160,160)" fill="none" stroke-dasharray="0.07717673536747999,0.07717673536747999" >
			<path d="M-12.789280728759536,-1.2429732620383027 L-10.807178180390899,-2.3943590205579937 " />
			<path d="M-12.789280728759536,0.7152547893834441 L-10.807178180390899,-0.4361309691362468 " />
			<path d="M-12.789280728759536,-1.2429732620383027 L-12.789280728759536,0.715254789383444 " />
			<path d="M-12.789280728759536,-1.2429732620383027 L-10.807178180390899,-1.1019285066196405 " />
			<path d="M-12.789280728759536,0.7152547893834441 L10.807178180390899,2.394359020557993 " />
			<path d="M10.807178180390899,2.394359020557993 L12.789280728759536,1.2429732620383023 " />
			<path d="M10.807178180390899,2.394359020557993 L10.807178180390899,4.35258707197974 " />
			<path d="M10.807178180390899,-1.5220970822854998 L12.789280728759536,-2.6734828408051907 " />
			<path d="M10.807178180390899,-1.5220970822855002 L10.807178180390899,0.4361309691362466 " />
			<path d="M-11.589002540023817,2.758893630324593 L-8.222499237729263,2.9984511826212987 " />
			<path d="M5.709340366580751,3.9898292075066584 L8.254623161186721,4.170949397040747 " />
			<path d="M-13.793869848708638,-2.9723664215251464 L-13.737209973276029,-3.003857211138406 L-13.67938417413843,-3.0331821678586923 L-13.620463575243509,-3.0603052228946 L-13.560520647108827,-3.0851930157258147 L-13.49962911768535,-3.107814935135524 L-13.437863881674343,-3.1281431568612685 L-13.375300908409196,-3.146152677817926 L-13.3120171484155,-3.161821346850736 L-13.248090438764258,-3.175129891980531 L-13.183599407334714,-3.186061944107682 L-13.118623376104468,-3.194604057145581 L-13.053242263585904,-3.2007457245589164 L-12.987536486528887,-3.204479392286382 L-12.921586861010637,-3.2058004680319456 L-12.855474503034452,-3.2047073269132262 L-12.789280728759538,-3.201201313460049 " />
			<path d="M-12.789280728759536,-3.201201313460049 L10.807178180390899,-1.5220970822855 " />
			<path d="M2.0649020516199053,8.128845940286944 L2.43590307618286,7.908872853902557 L2.7960478974157406,7.689986383833122 L3.1462811201070338,7.476999291320976 L3.487202584721767,7.274691175214992 " />
			<path d="M3.487202584721795,7.2746911752149765 L3.7575262026242946,7.1214156146301875 L3.8904200071353108,7.0493641342700295 L4.0217682790603835,6.980779808693343 " />
			<path d="M-11.515071947665414,2.0591923707767874 L-9.627355234933377,2.1935207092707514 " />
			<path d="M-9.627355234933377,2.1935207092707514 L-9.657824847802493,2.290900087142082 L-9.684061781381867,2.384872998663658 L-9.706284371735155,2.4754922372111077 L-9.724709829202395,2.5628412864547547 L-9.739547568876347,2.6470374805016674 L-9.750992871179308,2.7282334477471624 L-9.759220872540388,2.8066168384357555 L-9.764380886173276,2.8824083359315567 L-9.766591052954485,2.9558579516981087 L-9.76593332240206,3.0272396039876783 L-9.762448763754774,3.096843980239993 L-9.756130823404517,3.164974071764866 L-9.74666297535649,3.2324079968432713 L-9.733736764854335,3.299783345337755 L-9.717181779930097,3.36736569856088 L-9.696820416055491,3.435354120111428 L-9.672483055554771,3.503886348578123 L-9.644018996640726,3.573045249207306 L-9.611303842929077,3.642866049103109 L-9.5742439906891,3.7133439513715243 L-9.532778781199468,3.784441789950328 L-9.486880819398033,3.856097448684979 L-9.436554897542605,3.9282308255165073 L-9.381835903836702,4.000750175440887 L-9.32278604091978,4.073557714180581 L-9.259491627775507,4.146554408277797 L-9.192059710974377,4.2196439165754365 L-9.120614667238225,4.29273568279595 L-9.045294939094077,4.365747209160068 L-8.966250008873196,4.43860556670688 L-8.883637683508322,4.511248219183867 L-8.797621733487624,4.5836232540703055 L-8.708369903938213,4.655689126479877 L-8.616052294134835,4.727414029358494 L-8.422904569987947,4.869756923956537 L-8.219545427875017,5.010555851257292 L-8.007325872790377,5.149808159742151 L-7.787571116934346,5.287581886353232 L-7.56157404386906,5.42400802505913 L-7.3305875902115645,5.559286847794988 L-7.09581551191681,5.693697726918295 L-6.150332798905991,6.225622614053932 L-5.700570710309264,6.4793903620954145 L-5.2689643057659055,6.717507075246682 L-5.059633217898711,6.829206550342225 L-4.854453185089388,6.935269659525185 L-4.653299126344411,7.035198325164107 L-4.456031079038139,7.128540514003172 L-4.262480736092944,7.2148936382541295 L-4.072436395212049,7.293905274792558 L-3.88562688434835,7.365270204684052 L-3.7017050275924785,7.42872277526598 L-3.5202312156633835,7.484023587010434 L-3.3406576451846925,7.530939507393999 L-3.251379068045243,7.551175360244324 L-3.1622521556247434,7.569208777363539 L-3.0724187906442797,7.584921259159647 L-2.981635846162005,7.598287066833495 L-2.8899121965671832,7.60931246441027 L-2.7972614853817777,7.618004526752568 L-2.7037016289869054,7.624371421329299 L-2.609254350746281,7.628422648930626 L-2.5139447446370733,7.630169245546271 L-2.417800867498578,7.629623947624509 L-2.3208533590091274,7.626801322929223 L-2.2231350885016545,7.621717869212323 L-2.1246808277283225,7.614392082918874 L-2.0255269486846315,7.6048445001422875 L-1.925711145603423,7.593097712046889 L-1.8252721802291925,7.5791763569752115 L-1.6226837746292855,7.5449185423397145 L-1.4180848777571553,7.502307550619309 L-1.2118030040687728,7.451609007190446 L-1.0041654560817364,7.393114625030636 L-0.7954958352586767,7.327138662515773 L-0.5861115304292399,7.254014166225747 L-0.3763220698837184,7.174089282577485 L-0.16642822327136608,7.087723922104517 L0.04327826056352535,6.995287060202171 L0.2525143936747165,6.8971549581575315 L0.461005280903223,6.7937105882832425 L0.668710504000247,6.68514441242838 L0.8768278472249343,6.570857246023221 L1.0856045543004322,6.4515642901300945 " />
			<path d="M1.0856045543004615,6.4515642901300785 L1.4689411063362057,6.223869527059846 L1.8555706266047587,5.988514983441191 " />
			<path d="M2.508961638812575,5.596668732629895 L2.671980749701854,5.503141961622256 L2.836532863230529,5.411421638406593 L3.0028258352377284,5.321941968900496 L3.1710869609699,5.2351547015826165 L3.3415618557014275,5.1515353322584705 L3.5145118894230616,5.071589622828952 L3.6902098097290903,4.995860109720573 L3.868933187034183,4.924932277636375 L4.050955316250833,4.859440074286523 L4.23653320905833,4.800070441757539 L4.33072774252309,4.772911574971278 L4.425892310894215,4.747566540179177 L4.5220470589538015,4.724137278542653 L4.6192075767991305,4.702729339347904 L4.717384083612439,4.683451817686541 L4.816572565102676,4.666420079868078 L4.91668447914082,4.651771506094682 L5.017681919104294,4.639609229669564 L5.119543293503133,4.630028663971438 L5.222240795152543,4.623125350119281 L5.325739807868304,4.6189934905103796 L5.429998694061579,4.6177246520808115 L5.534968907846391,4.619406637980403 L5.6405953814156335,4.624122525577762 L5.746817135584155,4.6319498679346465 L5.853568068540039,4.642960055112503 L5.9607778799878695,4.657217830897625 L6.0683730910103755,4.674780959755007 L6.176278123117489,4.695700038044577 L6.284416403094474,4.720018442757064 L6.392711463403428,4.747772410250441 L6.501088011035055,4.778991236691403 L6.60947294085028,4.813697591130036 L6.717796272593862,4.851907931359382 L6.825991993904829,4.893633011935235 L6.93399879479116,4.9388784729551345 L7.041760682178776,4.987645497419084 L7.149227466287561,5.0399315242182 L7.256355113729679,5.095731003021016 L7.363105965368195,5.155036176550888 L7.469448820116577,5.217837874971458 L7.575358889002225,5.284126306320786 L7.680817626959958,5.353891826158392 L7.78581245296386,5.427125668813006 L7.890336372248608,5.503820621842491 L7.99438751751401,5.583971624540959 L8.097968629149099,5.667576270551766 L8.201086497654774,5.754635193868626 L8.303751394586609,5.845152316730749 L8.40597652148204,5.939134937141463 L8.507777509378862,6.03659363296345 L8.609172004674463,6.137541958767274 L8.710179380218008,6.241995910833538 L8.810820613670197,6.349973134932546 " />
			<path d="M7.8010864583716675,7.9326619078257785 L8.810820613670236,6.349973134932588 " />
			<path d="M-9.627355234933377,2.1935207092707514 L-8.305953536020953,1.4259302035909576 " />
			<path d="M-8.305953536020953,1.4259302035909576 L-8.348102550711022,1.5637476059667248 L-8.381834552620097,1.694682501272369 " />
			<path d="M8.810820613670236,6.349973134932588 L10.13222231258266,5.582382629252796 " />
			<path d="M-8.305953536020953,1.4259302035909576 L-10.193670248752989,1.2916018650969936 " />
			<path d="M-10.193670248752989,1.2916018650969936 L-10.217362814991693,1.427282487485555 L-10.236600205838457,1.562698932545095 " />
			<path d="M-10.193670248752989,1.2916018650969936 L-11.515071947665414,2.0591923707767874 " />
			<path d="M1.0856045543004615,6.451564290130078 L2.407006253213051,5.683973784450189 " />
			<path d="M4.808604283634286,6.50710066953515 L3.487202584721799,7.274691175214974 " />

       </g>

       <!-- solid lines -->
       <g  stroke="rgb(0,0,0)" fill="none">
			<path d="M-10.807178180390899,-2.394359020557993 L-10.807178180390899,-0.4361309691362465 " />
			<path d="M-10.807178180390899,-1.1019285066196405 L10.807178180390899,0.4361309691362465 " />
			<path d="M10.807178180390899,0.4361309691362466 L12.789280728759536,-0.7152547893834443 " />
			<path d="M-10.807178180390899,-2.394359020557993 L12.789280728759536,-0.715254789383444 " />
			<path d="M-10.807178180390899,-0.4361309691362466 L12.789280728759536,1.2429732620383027 " />
			<path d="M10.807178180390899,4.35258707197974 L12.789280728759536,3.201201313460049 " />
			<path d="M12.789280728759536,1.2429732620383027 L12.789280728759536,3.201201313460049 " />
			<path d="M-10.807178180390899,1.5220970822854998 L12.789280728759536,3.201201313460049 " />
			<path d="M-12.694894893122934,-0.5704593076302096 L-12.69262105567022,-0.47421180697763077 L-12.685805021185667,-0.3778725662512048 L-12.674463210093363,-0.28167367512016217 L-12.658622945809652,-0.18584688513926362 L-12.638322388918638,-0.09062305143901062 L-12.613610445239994,0.0037684234245886628 L-12.584546648010548,0.0971001421208727 L-12.551201014463514,0.18914726036460938 L-12.51365387715084,0.27968802858557384 L-12.471995690415055,0.36850432614268736 L-12.42632681247683,0.4553821867957456 L-12.376757263663238,0.540112314168834 L-12.323406461359154,0.6224905859636277 L-12.266402932320306,0.702318545707889 L-12.205884003041065,0.7794038808544902 L-12.141995468922898,0.8535608860791865 L-12.074891243040472,0.924610910661004 L-12.004732985351573,0.9923827888674764 L-11.931689713244113,1.0567132523078904 L-11.855937394358433,1.117447323261135 L-11.777658522665845,1.174438688030607 L-11.697041678824679,1.2275500494267235 L-11.614281075872949,1.2766534575278747 L-11.529576091352139,1.3216306179229949 L-11.443130786989238,1.3623731766931582 L-11.355153417094174,1.39878298144566 L-11.265855926856927,1.43077231777173 L-11.17545344175302,1.4582641205582236 L-11.084163749287384,1.4811921596442308 L-10.99220677432521,1.4995011993753335 L-10.899804049273659,1.5131471316711376 L-10.807178180390915,1.522097082285499 " />
			<path d="M-12.694894893122935,-2.528687359051957 L-12.694894893122935,-0.5704593076302105 " />
			<path d="M-12.694894893122934,-2.528687359051957 L-12.691137819140396,-2.6519062381468825 L-12.679881552408059,-2.774099938046271 L-12.661170899041794,-2.8947820607989643 L-12.635080337705146,-3.0134722253599744 L-12.601713723143401,-3.129697979770543 L-12.561203872784738,-3.2429966817760887 L-12.513712038054004,-3.3529173403961416 L-12.4594272625036,-3.459022411115827 L-12.398565629316444,-3.5608895375530403 L-12.331369401176381,-3.6581132326685104 L-12.258106055929813,-3.7503064928266387 L-12.179067221877155,-3.8371023382822456 L-12.094567516932234,-3.91815527396125 L-12.004943296270424,-3.9931426647205774 L-11.910551313450542,-4.061766019613 L-11.811767300340017,-4.1237521800448285 " />
			<path d="M-11.811767300340001,-4.1237521800448365 L-11.755107424907392,-4.155242969658096 L-11.697281625769794,-4.184567926378383 L-11.638361026874872,-4.211690981414291 L-11.57841809874019,-4.236578774245505 L-11.517526569316713,-4.259200693655214 L-11.455761333305706,-4.2795289153809595 L-11.393198360040559,-4.297538436337617 L-11.329914600046862,-4.313207105370426 L-11.265987890395621,-4.326515650500221 L-11.201496858966077,-4.337447702627372 L-11.136520827735831,-4.345989815665272 L-11.071139715217267,-4.352131483078606 L-11.00543393816025,-4.355865150806073 L-10.939484312642,-4.357186226551637 L-10.873371954665815,-4.356093085432916 L-10.8071781803909,-4.35258707197974 " />
			<path d="M-10.807178180390899,-4.35258707197974 L12.789280728759536,-2.6734828408051907 " />
			<path d="M12.789280728759536,-2.6734828408051907 L12.789280728759536,-0.7152547893834441 " />
			<path d="M-12.789280728759536,2.6734828408051907 L-11.589002540023817,2.758893630324593 " />
			<path d="M-8.222499237729263,2.9984511826212987 L5.709340366580751,3.9898292075066584 " />
			<path d="M8.254623161186721,4.170949397040747 L10.807178180390899,4.35258707197974 " />
			<path d="M-14.67699744149157,0.5809264508894811 L-14.674723604038856,0.67717395154206 L-14.667907569554304,0.7735131922684859 L-14.656565758462,0.8697120833995285 L-14.64072549417829,0.9655388733804271 L-14.620424937287275,1.0607627070806802 L-14.59571299360863,1.1551541819442794 L-14.566649196379185,1.2484859006405635 L-14.53330356283215,1.3405330188843 L-14.495756425519478,1.4310737871052646 L-14.454098238783692,1.5198900846623782 L-14.408429360845467,1.6067679453154362 L-14.358859812031875,1.6914980726885247 L-14.30550900972779,1.7738763444833183 L-14.248505480688943,1.8537043042275796 L-14.187986551409702,1.930789639374181 L-14.124098017291535,2.0049466445988773 L-14.05699379140911,2.075996669180695 L-13.98683553372021,2.1437685473871673 L-13.91379226161275,2.2080990108275813 L-13.83803994272707,2.2688330817808255 L-13.759761071034482,2.325824446550298 L-13.679144227193316,2.3789358079464145 L-13.596383624241586,2.4280392160475657 L-13.511678639720776,2.473016376442686 L-13.425233335357875,2.513758935212849 L-13.337255965462811,2.5501687399653505 L-13.247958475225564,2.582158076291421 L-13.157555990121656,2.6096498790779146 L-13.066266297656021,2.6325779181639217 L-12.974309322693847,2.6508869578950245 L-12.881906597642296,2.6645328901908285 L-12.789280728759552,2.6734828408051894 " />
			<path d="M-14.676997441491572,-1.3773016005322667 L-14.676997441491572,0.58092645088948 " />
			<path d="M-14.67699744149157,-1.3773016005322667 L-14.673240367509033,-1.500520479627192 L-14.661984100776696,-1.6227141795265805 L-14.643273447410431,-1.7433963022792738 L-14.617182886073783,-1.8620864668402837 L-14.583816271512038,-1.9783122212508528 L-14.543306421153375,-2.091610923256398 L-14.495814586422641,-2.201531581876451 L-14.441529810872238,-2.3076366525961367 L-14.38066817768508,-2.40950377903335 L-14.313471949545018,-2.50672747414882 L-14.24020860429845,-2.5989207343069483 L-14.161169770245792,-2.685716579762555 L-14.07667006530087,-2.7667695154415597 L-13.987045844639061,-2.841756906200887 L-13.892653861819179,-2.9103802610933096 L-13.793869848708654,-2.9723664215251375 " />
			<path d="M-11.515071947665414,2.0591923707767874 L-11.543513839914159,2.2255694124590977 L-11.565237042252456,2.3915374113351944 L-11.580149724821288,2.557022258502799 L-11.588160736220338,2.7219225358639285 L-11.589185435642737,2.8861066605520245 L-11.583151245125224,3.049411484562292 L-11.570002921913735,3.21164234958526 L-11.549707550944392,3.372574597043541 L-11.522259257439895,3.5319565333318117 L-11.487683639621343,3.689513850260003 L-11.446041921535466,3.8449555006996956 L-11.397434825997255,3.99798102943374 L-11.34214189741331,4.148070485291476 L-11.280757953085184,4.294473661460801 L-11.213704916421879,4.436991557678067 L-11.141407476796378,4.575505198419071 L-11.064288168007229,4.70995261155649 L-10.982756372292322,4.840323607870449 L-10.897200578332544,4.966653729676819 L-10.807983340838641,5.089017727947562 L-10.715438446772605,5.207522872397237 L-10.619869847817876,5.322302347632667 L-10.52155197037988,5.433508940608363 L-10.420731063170546,5.541309180298992 L-10.317627288306959,5.645878049691627 L-10.212437304835573,5.747394352914967 L-10.10533713367915,5.846036786559996 L-9.99648513019407,5.9419807340068225 L-9.886024924820603,6.035395774855548 L-9.774088223708409,6.126443878365027 L-9.660797389703713,6.215278230132388 L-9.546267749693452,6.3020426250979735 L-9.430609597015092,6.386871347335125 L-9.31392987745887,6.469889447981956 L-9.077924741920313,6.630951523129937 L-8.839086176193257,6.786071148802851 L-8.598255143656226,6.935993625716238 L-8.35629190550009,7.081391983451839 L-8.11408258586702,7.222881019568373 L-7.6326357946381655,7.4962940795166135 L-6.70562679632124,8.017447217174816 L-6.250901022145269,8.271769666447216 L-6.022737421610595,8.396412593789421 L-5.793611893915617,8.518535484852949 L-5.5631904989895276,8.637478753689017 L-5.331130447812299,8.752555595959713 L-5.097085102984061,8.863047143153862 L-4.8607117106401505,8.968197441375656 L-4.62168139833099,9.067209077745513 L-4.501073794349374,9.114151611951275 L-4.379690973485944,9.159240277452597 L-4.2575012052561165,9.202362818478994 L-4.134476057080306,9.24340429449844 L-4.010590845007853,9.282247244484296 L-3.885825087124553,9.318771919171146 L-3.760162956008014,9.352856587729528 L-3.6335937265950418,9.384377925289561 L-3.506112215825274,9.413211487743451 L-3.377719210425273,9.4392322802569 L-3.2484218791972865,9.462315425919378 L-3.11823416617689,9.482336940963279 L-2.9871771610237263,9.499174622981947 L-2.855279443009546,9.512709058576572 L-2.7230447332721672,9.522909349061415 L-2.591084206325445,9.529891453238232 L-2.4594353899485975,9.53374081683615 L-2.328129930654288,9.534542117246033 L-2.19719544254849,9.532379166346725 L-2.0666559260216144,9.527334683725027 L-1.9365321610470083,9.51949010375652 L-1.8068420758206094,9.508925414718231 L-1.6776010914755826,9.49571902810407 L-1.5488224436057005,9.479947676314062 L-1.4205174813312824,9.461686336888308 L-1.292695944641501,9.441008181456665 L-1.1653662207468285,9.417984547575141 L-1.038535580175434,9.392684931619916 L-0.9122103933473307,9.36517700091004 L-0.7863963283600635,9.335526623229718 L-0.6610985307197361,9.303797911921198 L-0.5363217857511793,9.270053284719209 L-0.28834965330765483,9.196757910101505 L-0.0425161608191047,9.116108854944589 L0.20114047631263077,9.028552760632982 L0.4425774740121424,8.934517772800824 L0.6817456762632412,8.834416819820964 L0.9185884377098352,8.728650717234705 L1.153041098198873,8.617610864006819 L1.3850309553393254,8.501681296490439 L1.6144776411511703,8.381239865986482 L1.8412938088783397,8.256658305782171 L2.0649020516198897,8.128845940286954 " />
			<path d="M4.02176827906041,6.98077980869333 L4.159779298669084,6.911950336688183 L4.29592842825137,6.847737437159629 L4.430133380494562,6.788476446966169 L4.562296302336978,6.734481654273302 L4.6923060269824735,6.686040891671032 L4.820041792044643,6.643410158280296 L4.945378704304325,6.6068085194955435 L5.068195231564076,6.576413533010746 L5.188383002083182,6.552357449776082 L5.3058591920768405,6.534724438532569 L5.420581781763133,6.523549082571914 L5.532567960441405,6.518816397368813 L5.642091156817767,6.520398721078224 L5.749545641134668,6.528128426468083 L5.855166486025913,6.541921021636212 L5.959280642939784,6.5617161020971615 L6.06230733125458,6.587507720218979 L6.164744059783432,6.61936673334119 L6.26714388961239,6.657455073383838 L6.370087937780882,6.702032420930673 L6.47415652753222,6.7534559134639185 L6.579901797080469,6.812173664122377 L6.687823985058574,6.878713014048976 L6.798353017031322,6.953664588088162 L6.91183642367522,7.037663370287946 L7.0285340274460735,7.131368162355645 L7.148619240773584,7.235440934910766 L7.2721862250409774,7.350527728072823 L7.399261565826192,7.477242904616131 L7.52981852609982,7.616158705618032 L7.663791345293568,7.76780220522129 L7.80108645837164,7.932661907825745 " />
			<path d="M1.8555706266047884,5.988514983441172 L2.180136801797207,5.791462004926428 L2.5089616388125444,5.596668732629913 " />
			<path d="M-8.381834552620095,1.6946825012723692 L-8.40042661148691,1.7805878264304102 L-8.415555753321648,1.8634576099520643 L-8.42740735147337,1.9434284854761374 L-8.43614940414067,2.020669271647295 L-8.441927400109865,2.0953795079105637 L-8.444859472852235,2.1677864910414173 L-8.445031842980296,2.2381408124114506 L-8.442494549063108,2.3067103959896396 L-8.437257466800634,2.3737730370791885 L-8.429168698017627,2.4398241128057663 L-8.417841542692898,2.50568538998401 L-8.403111396154316,2.5716527600781394 L-8.384812936516234,2.6379368919585087 L-8.362782918274197,2.7046902661775167 L-8.33687146951326,2.7720125192405694 L-8.306950034125839,2.8399566456137255 L-8.272916531101,2.908535685275863 L-8.234698243160905,2.9777295817467135 L-8.192252890261958,3.047491948961519 L-8.145568289747889,3.1177565351183514 L-8.09466095423949,3.1884432176953017 L-8.039573930671315,3.2594634062218293 L-7.980374139238827,3.3307247680914784 L-7.917149429400851,3.402135227722038 L-7.85000553149122,3.473606220703922 L-7.779063046930553,3.545055212228169 L-7.704454587493961,3.6164075130519553 L-7.6263221445833285,3.687597446541903 L-7.544814742973404,3.758568936933724 L-7.460086410049579,3.829275601860931 L-7.372294471131621,3.899680441435353 L-7.281598164082025,3.9697552217081618 L-7.09213270170081,4.108840455381839 L-6.892967168474119,4.246447524480933 L-6.6853635694298505,4.382576743553507 L-6.470560155423186,4.517292563143406 L-6.2497656293333135,4.650716864472464 L-6.024152362290126,4.783034609691562 L-5.562930553531215,5.045444916610974 L-4.646304341244073,5.561362404907404 L-4.213619716587988,5.8040943570650665 L-4.003696531286865,5.919465983046133 L-3.797888912294594,6.030107055733747 L-3.5960827181819193,6.135504122790207 L-3.3981630946364723,6.235179673894388 L-3.2040050351626554,6.328696968468288 L-3.013461909341063,6.415663661849814 L-2.82635244050891,6.495733377725907 L-2.642446614722943,6.568604374640088 L-2.4614510028662773,6.63401445438859 L-2.2829939777606536,6.691731260119155 L-2.1066113081455384,6.741537111946626 L-1.9317326113855575,6.783207527899459 L-1.844599647243599,6.800907473199214 L-1.756817200800611,6.816391881475959 L-1.6681266202755112,6.829632650882019 L-1.578535847096981,6.840635588992335 L-1.488057221160477,6.8494072205199155 L-1.3967070347422097,6.855955042734169 L-1.304505113050947,6.860287744805825 L-1.2114744206578612,6.862415392972227 L-1.1176406930446317,6.862349583416799 L-1.0230320925100258,6.860103564756496 L-0.9276788876751708,6.855692332031011 L-0.8316131558277358,6.849132694087563 L-0.7348685073452397,6.840443316255051 L-0.6374798314377021,6.829644740201368 L-0.44091496596312485,6.801811516373479 L-0.24221485813433818,6.76583438164905 L-0.041683303659041826,6.72194283590457 L0.1603732386001242,6.670392260647588 L0.363649456392906,6.611461047960537 L0.5678440670459157,6.545447359994814 L0.7726618708765052,6.472665761421252 L0.9778150723082792,6.393443967243154 L1.1830239659405055,6.308119948377992 L1.388017084823647,6.217039637413974 L1.5925309081932768,6.12055547694757 L1.796309225914612,6.019026052908172 L1.9993724059545894,5.912580900362097 L2.202873680192879,5.800659932656206 L2.4070062532130247,5.683973784450204 " />
			<path d="M2.407006253213054,5.683973784450189 L2.75775318228497,5.475949236383888 L3.111178522271259,5.261089642785761 L3.468256239288935,5.043927087077809 L3.830363337724912,4.829078226950155 " />
			<path d="M3.8303633377249424,4.829078226950137 L3.9933824486142253,4.735551455942495 L4.157934562142903,4.643831132726831 L4.324227534150104,4.554351463220732 L4.492488659882275,4.4675641959028525 L4.6629635546138015,4.383944826578704 L4.83591358833544,4.303999117149184 L5.011611508641472,4.228269604040801 L5.190334885946562,4.157341771956602 L5.372357015163208,4.091849568606748 L5.557934907970706,4.0324799360777615 L5.652129441435468,4.005321069291501 L5.747294009806602,3.979976034499397 L5.843448757866197,3.956546772862872 L5.940609275711536,3.9351388336681214 L6.0387857825248545,3.9158613120067587 L6.137974264015092,3.898829574188294 L6.238086178053232,3.8841810004148964 L6.339083618016692,3.872018723989778 L6.4409449924155195,3.8624381582916496 L6.543642494064926,3.855534844439491 L6.647141506780683,3.851402984830588 L6.751400392973956,3.850134146401019 L6.856370606758768,3.851816132300609 L6.961997080328012,3.8565320198979665 L7.068218834496539,3.864359362254851 L7.174969767452424,3.8753695494327065 L7.282179578900256,3.8896273252178264 L7.389774789922766,3.9071904540752094 L7.4976798220298795,3.9281095323647777 L7.6058181020068645,3.952427937077265 L7.714113162315819,3.98018190457064 L7.822489709947446,4.011400731011601 L7.930874639762675,4.046107085450235 L8.039197971506258,4.084317425679579 L8.147393692817225,4.126042506255432 L8.255400493703561,4.171287967275331 L8.36316238109118,4.220054991739282 L8.470629165199968,4.2723410185383965 L8.577756812642084,4.328140497341213 L8.684507664280604,4.387445670871086 L8.79085051902899,4.450247369291658 L8.896760587914637,4.516535800640987 L9.00221932587237,4.586301320478592 L9.107214151876274,4.659535163133208 L9.211738071161022,4.736230116162693 L9.315789216426424,4.816381118861161 L9.419370328061515,4.899985764871968 L9.522488196567194,4.987044688188828 L9.625153093499032,5.077561811050953 L9.727378220394462,5.171544431461667 L9.829179208291281,5.269003127283655 L9.930573703586884,5.3699514530874835 L10.031581079130426,5.474405405153747 L10.13222231258262,5.582382629252753 " />
			<path d="M-10.236600205838455,1.5626989325450955 L-10.25385995038167,1.726265114806061 L-10.264426242117024,1.889302707067082 L-10.268214533743919,2.0516966101168643 L-10.265149688063374,2.213302091889852 L-10.255171028271988,2.3739442913262763 L-10.23823712909493,2.5334190696872065 L-10.214330348757953,2.6914952093245965 L-10.18346110179843,2.847917959906336 L-10.145671872715406,3.002413932096304 L-10.101040970458682,3.1546973386894175 L-10.04970072254556,3.3044517432800427 L-9.992146028574552,3.450903182165961 L-9.928853390621539,3.593651571533983 L-9.860227105117009,3.7325518022927753 L-9.786676460895034,3.867515118677721 L-9.70860354105806,3.998504801397467 L-9.62639434119768,4.12553087679812 L-9.540412668760007,4.2486442097409105 L-9.450996341665515,4.3679302865591225 L-9.358455255034785,4.483502946268954 L-9.263070933033202,4.5954982731569345 L-9.165097228429483,4.704068821953294 L-9.064761875464885,4.809378308026607 L-8.96226864205198,4.911596859399722 L-8.857799865164246,5.010896894890857 L-8.75151918854009,5.107449663326378 L-8.64357435450746,5.201422452553539 L-8.534099931837995,5.292976453902129 L-8.423219889062473,5.382265247803564 L-8.311049947622402,5.469433859474621 L-8.197699671595707,5.554618319910558 L-8.083274270517883,5.6379456569089115 L-7.851605931655859,5.799494346600902 L-7.616849934665224,5.954934755225013 L-7.379810761834127,6.105018772422737 L-7.14130742495235,6.250420847937792 L-6.902181177231786,6.391756003154665 L-6.663300783708919,6.529585845600312 L-6.189928709783966,6.796674652174758 L-5.280046381629892,7.3085857047832805 L-4.830769147474071,7.558435356402011 L-4.605146931855598,7.680507391354093 L-4.378451568528084,7.799855927965068 L-4.150357786248015,7.9158359602800665 L-3.92053349016489,8.027774820862932 L-3.688645534627369,8.134967473081998 L-3.454367854915409,8.236671941928812 L-3.2173915324656357,8.332105635759921 L-3.097802355606644,8.377214729433362 L-2.9774363681572136,8.420443311351722 L-2.8562651102473535,8.461681618785242 L-2.7342635382254836,8.500817434658456 L-2.611410449448702,8.537736282741314 L-2.4876889073706443,8.57232168966341 L-2.363086663603249,8.604455519629354 L-2.2375965736287178,8.634018387713342 L-2.1112170028379995,8.66089015761095 L-1.983952219572085,8.68495052972624 L-1.8558127718424329,8.706079725472176 L-1.7268158444068291,8.724159273662435 L-1.59698559287698,8.739072904872657 L-1.4664623774195362,8.750723903562239 L-1.3360430026175452,8.759184736722087 L-1.2059103143541274,8.764550373417574 L-1.0760969037150638,8.766902626173149 L-0.9466313162097442,8.766322609418653 L-0.8175384571719344,8.762890509531942 L-0.6888399732888779,8.756685387130513 L-0.5605546109295401,8.747785009940062 L-0.43269855194280393,8.736265714567994 L-0.3052857275964238,8.722202295509842 L-0.17832811132754856,8.70566791971656 L-0.05183599097561786,8.686734065050699 L0.07418177883155463,8.665470480959401 L0.19971754346770787,8.641945169692224 L0.3247646336032579,8.616224386391762 L0.44931716833481494,8.588372656385015 L0.5733698754782821,8.558452808003532 L0.6969179283547275,8.526526019260249 L0.8199567983982241,8.492651876711049 L1.0644895873220455,8.419292344219148 L1.306933307466694,8.33882191769442 L1.5472507773583775,8.251668053230704 L1.785400239831073,8.158240994087798 L2.0213337451088043,8.058936839684385 L2.2549961601082344,7.954140431326175 L2.486324718098122,7.844227840650251 L2.7152490228521833,7.729568246766629 L2.9416914214318997,7.610524988078 L3.1655676597358164,7.487455574758662 L3.3863037505320626,7.361255434607305 " />
			<path d="M3.3863037505320785,7.361255434607297 L3.757304775095123,7.1412823482228625 L4.117449596328091,6.92239587815338 L4.467682819019452,6.709408785641195 L4.808604283634256,6.507100669535165 " />
			<path d="M4.808604283634286,6.5071006695351485 L4.970035551999449,6.414594490038473 L5.129340792921125,6.32620175573221 L5.286487353492648,6.242441718455462 L5.441417749875677,6.1638251196161455 L5.594048544838336,6.090847968475843 L5.744270219474428,6.023983727231774 L5.891948649468884,5.9636744439814615 L6.036928796274652,5.9103213746556085 L6.179041223566178,5.86427563500475 L6.318112049334678,5.825829423725222 L6.4539769439903685,5.795208357809985 L6.586499784836838,5.772565461209862 L6.715596577282762,5.757977347890722 L6.841265253156122,5.751443140372189 L6.963798194350917,5.7528213886751445 L7.083744646223334,5.761877872966646 L7.201446586246038,5.778494723905252 L7.317383845275723,5.802599711187863 L7.4321757725769855,5.834214444598792 L7.546551961648817,5.87348910552983 L7.6613087473639405,5.920721766074861 L7.777259642875309,5.9763634788856335 L7.895186440804025,6.041010677702338 L8.015796259282945,6.11538678519948 L8.139688369490147,6.200315281514552 L8.267333197366463,6.296686843553917 L8.399064448271211,6.4054235218972675 L8.535083859390218,6.52744327884897 L8.675476640770245,6.663628567911544 L8.820234221913811,6.814802991683461 L8.969279476928403,6.981720431910389 L9.122488157284062,7.165071402145953 " />
			<path d="M10.13222231258266,5.582382629252796 L9.122488157284089,7.165071402145988 " />
			<path d="M9.122488157284089,7.165071402145988 L7.8010864583716675,7.9326619078257785 " />
			<path d="M-12.789280728759536,2.6734828408051907 L-10.807178180390899,1.5220970822854998 " />
			<path d="M-14.676997441491572,-1.3773016005322667 L-12.694894893122935,-2.5286873590519576 " />
			<path d="M-14.676997441491572,0.5809264508894801 L-12.694894893122935,-0.5704593076302108 " />
			<path d="M-13.79386984870864,-2.972366421525146 L-11.811767300340003,-4.123752180044837 " />
			<path d="M2.5089616388125755,5.596668732629896 L3.8303633377249406,4.82907822695014 " />
			<path d="M3.3863037505320794,7.361255434607296 L2.0649020516199084,8.128845940286944 " />

       </g>
    </g>
    <g transform="translate(20,210.0)" stroke="rgb(0,0,255)">
        <line x1="30" y1="-30" x2="75" y2="-33" stroke-width="3" stroke="#000000" />
         <text x="80" y="-30" style="stroke:#000000">X </text>

        <line x1="30" y1="-30" x2="30" y2="-75" stroke-width="3" stroke="#000000" />
         <text x="25" y="-85" style="stroke:#000000">Y </text>

        <line x1="30" y1="-30" x2="58" y2="-15" stroke-width="3" stroke="#000000" />
         <text x="65" y="-5" style="stroke:#000000">Z </text>
        <!--
            <line x1="0" y1="0" x2="12.95727261898889" y2="0" stroke-width="3" />
            <text x="0" y="20" style="stroke:#000000">1  mm </text>
        -->
    </g>
</svg>
