<?xml version="1.0" encoding="UTF-8" standalone="no"?>
<svg
   xmlns:svg="http://www.w3.org/2000/svg"
   xmlns="http://www.w3.org/2000/svg"
   width="800.0"
   height="240.0"

>
    <g transform="scale(20.666432778488165, -20.666432778488165)   translate(24.354526318569064,-5.320339959687489)" stroke-width="0.04838764438538745"  fill="none">
       <!-- hidden lines -->
       <g  stroke="rgb(160,160,160)" fill="none" stroke-dasharray="0.04838764438538745,0.04838764438538745" >
			<path d="M-12.789280728759536,-1.2429732620383027 L-10.807178180390899,-2.3943590205579937 " />
			<path d="M-12.789280728759536,0.7152547893834441 L-10.807178180390899,-0.4361309691362468 " />
			<path d="M-12.789280728759536,-1.2429732620383027 L-12.789280728759536,0.715254789383444 " />
			<path d="M-12.789280728759536,-1.2429732620383027 L-10.807178180390899,-1.1019285066196405 " />
			<path d="M-12.789280728759536,0.7152547893834441 L-6.527748370201602,1.160820181943845 " />
			<path d="M-4.5456458218329665,0.009434423424154126 L-6.5277483702016035,1.160820181943845 " />
			<path d="M-4.892937741827208,1.277151935527773 L-4.871272698627285,1.319867540852775 L-4.851533542908973,1.3634752588980839 L-4.833765581233945,1.407874998464499 L-4.818009595754334,1.4529648504548092 L-4.804301750606946,1.498641321782015 L-4.792673508907046,1.544799572913223 L-4.783151560532217,1.5913336585039881 L-4.775757760862065,1.6381367705707868 L-4.770509080614362,1.6851014836434701 L-4.767417566892779,1.7321200013350155 L-4.766490315535614,1.7790844037626279 L-4.76772945482897,1.8258868952522969 L-4.771132140621779,1.872420051758262 L-4.776690562853878,1.9185770674294935 L-4.784391963482153,1.9642519997572525 L-4.794218665763612,2.0093400127410552 L-4.806148114828162,2.0537376175149054 L-4.82015292944798,2.097342909881504 L-4.83620096488464,2.1400558042092217 L-4.854255386669755,2.1817782631549854 L-4.8742747551497905,2.2224145226858054 L-4.896213120600976,2.2618713118824543 L-4.920020128696027,2.3000580670207946 L-4.945641136080592,2.33688713943938 L-4.973017335794143,2.3722739967162196 L-5.002085892247437,2.406137416692954 L-5.032780085446745,2.4383996739011002 L-5.065029464133815,2.4689867179624763 L-5.098760007490063,2.497828343554324 L-5.13389429503385,2.524858351549016 L-5.170351684320881,2.5500147009584926 L-5.20804849603985,2.5732396513346654 " />
			<path d="M-5.208048496039853,2.573239651334667 L-5.276015682059046,2.6087413165230817 L-5.346972238573126,2.6380471344443945 L-5.420429788728177,2.6609554002264835 L-5.495882741934641,2.677308441804624 L-5.572811773725319,2.6869937051402566 L-5.6506874001403595,2.6899445289032733 L-5.728973622037557,2.6861406032858604 L-5.807131614245096,2.6756081097900077 L-5.884623434165166,2.6584195410265483 L-5.960915724303042,2.6346932017660123 L-6.035483383237995,2.6045923946754437 L-6.107813179769644,2.568324296345555 L-6.177407285364447,2.526138531344251 L-6.2437867005893555,2.4783254541109727 L-6.306494551949303,2.425214150517167 L-6.365099236437216,2.3671701728476533 L-6.41919739215335,2.304593023792465 L-6.468416674547894,2.2379134067662547 L-6.512418319178649,2.1675902614806364 L-6.550899473344925,2.0941076051729066 L-6.583595280549592,2.017971201232216 L-6.6102807034424265,1.939705078152221 L-6.630772072697885,1.8598479227694276 L-6.644928351166746,1.778949372611705 L-6.652652104600765,1.6975662328758307 L-6.653890172269099,1.6162586440716986 L-6.648634032850781,1.5355862267103706 L-6.636919863084915,1.4561042295711595 L-6.6188282887749175,1.3783597080582854 L-6.594483829860564,1.3028877589505532 L-6.5640540433773005,1.2302078374593606 L-6.527748370201607,1.1608201819438533 " />
			<path d="M-4.892937741827207,1.277151935527773 L10.807178180390899,2.394359020557993 " />
			<path d="M10.807178180390899,2.394359020557993 L10.807178180390899,4.35258707197974 " />
			<path d="M-13.793869848708638,-2.9723664215251464 L-13.737209973276029,-3.003857211138406 L-13.67938417413843,-3.0331821678586923 L-13.620463575243509,-3.0603052228946 L-13.560520647108827,-3.0851930157258147 L-13.49962911768535,-3.107814935135524 L-13.437863881674343,-3.1281431568612685 L-13.375300908409196,-3.146152677817926 L-13.3120171484155,-3.161821346850736 L-13.248090438764258,-3.175129891980531 L-13.183599407334714,-3.186061944107682 L-13.118623376104468,-3.194604057145581 L-13.053242263585904,-3.2007457245589164 L-12.987536486528887,-3.204479392286382 L-12.921586861010637,-3.2058004680319456 L-12.855474503034452,-3.2047073269132262 L-12.789280728759538,-3.201201313460049 " />
			<path d="M-12.789280728759536,-3.201201313460049 L10.807178180390899,-1.5220970822855 " />
			<path d="M10.807178180390899,-1.5220970822855002 L10.807178180390899,0.4361309691362466 " />
			<path d="M10.807178180390899,-1.5220970822854998 L12.789280728759536,-2.6734828408051907 " />
			<path d="M10.807178180390899,2.394359020557993 L12.789280728759536,1.2429732620383023 " />
			<path d="M-4.507917671024671,1.0534971974663394 L-4.892937741827211,1.2771519355277725 " />
			<path d="M-3.2259459476712173,1.4218538928149762 L-5.208048496039854,2.573239651334667 " />

       </g>

       <!-- solid lines -->
       <g  stroke="rgb(0,0,0)" fill="none">
			<path d="M-10.807178180390899,-2.394359020557993 L-10.807178180390899,-0.4361309691362465 " />
			<path d="M-10.807178180390899,-1.1019285066196405 L10.807178180390899,0.4361309691362465 " />
			<path d="M10.807178180390899,0.4361309691362466 L12.789280728759536,-0.7152547893834443 " />
			<path d="M-10.807178180390899,-2.394359020557993 L12.789280728759536,-0.715254789383444 " />
			<path d="M-10.807178180390899,-0.4361309691362466 L-4.545645821832965,0.009434423424154237 " />
			<path d="M-4.545645821832966,0.009434423424154237 L-4.5819514950086635,0.0788220789396683 L-4.612381281491927,0.15150200043086132 L-4.6367257404062805,0.22697394953859434 L-4.6548173147162775,0.3047184710514678 L-4.666531484482144,0.3842004681906786 L-4.671787623900462,0.4648728855520075 L-4.670549556232128,0.5461804743561397 L-4.662825802798109,0.6275636140920138 L-4.648669524329248,0.7084621642497364 L-4.62817815507379,0.7883193196325297 L-4.601492732180955,0.866585442712525 L-4.568796924976288,0.9427218466532156 L-4.530315770810012,1.0162045029609452 L-4.486314126179257,1.086527648246563 L-4.437094843784714,1.1532072652727723 L-4.38299668806858,1.2157844143279615 L-4.324392003580667,1.2738283919974762 L-4.261684152220719,1.3269396955912813 L-4.195304736995812,1.374752772824559 L-4.125710631401008,1.4169385378258637 L-4.053380834869359,1.4532066361557527 L-3.9788131759344063,1.4833074432463214 L-3.9025208857965294,1.5070337825068576 L-3.825029065876459,1.5242223512703168 L-3.7468710736689212,1.5347548447661692 L-3.668584851771724,1.5385587703835824 L-3.590709225356683,1.535607946620566 L-3.513780193566004,1.525922683284933 L-3.4383272403595404,1.5095696417067925 L-3.3648696902044892,1.4866613759247036 L-3.2939131336904097,1.4573555580033914 L-3.2259459476712244,1.4218538928149806 " />
			<path d="M-3.225945947671217,1.4218538928149764 L-3.1882491359522445,1.3986289424388016 L-3.1517917466652134,1.3734725930293252 L-3.116657459121426,1.3464425850346329 L-3.082926915765178,1.3176009594427853 L-3.0506775370781076,1.2870139153814093 L-3.0199833438788,1.2547516581732632 L-2.990914787425506,1.2208882381965291 L-2.9635385877119558,1.1855013809196893 L-2.9379175803273903,1.1486723085011041 L-2.914110572232339,1.110485553362764 L-2.8921722067811535,1.071028764166115 L-2.872152838301118,1.0303925046352953 L-2.8540984165160026,0.9886700456895313 L-2.838050381079343,0.9459571513618139 L-2.824045566459526,0.9023518589952151 L-2.8121161173949756,0.8579542542213647 L-2.802289415113516,0.8128662412375622 L-2.7945880144852406,0.7671913089098031 L-2.789029592253142,0.7210342932385718 L-2.785626906460333,0.6745011367326066 L-2.784387767166977,0.6276986452429375 L-2.785315018524142,0.580734242815325 L-2.7884065322457245,0.5337157251237797 L-2.7936552124934284,0.4867510120510965 L-2.8010490121635803,0.43994789998429784 L-2.8105709605384086,0.39341381439353246 L-2.8221992022383087,0.34725556326232476 L-2.8359070473856964,0.3015790919351189 L-2.851663032865308,0.2564892399448086 L-2.8694309945403353,0.21208950037839353 L-2.8891701502586473,0.16848178233308453 L-2.91083519345857,0.12576617700808468 " />
			<path d="M-2.9108351934585697,0.12576617700808224 L12.789280728759536,1.2429732620383027 " />
			<path d="M12.789280728759536,1.2429732620383027 L12.789280728759536,3.201201313460049 " />
			<path d="M-10.807178180390899,1.5220970822854998 L12.789280728759536,3.201201313460049 " />
			<path d="M-12.694894893122934,-0.5704593076302096 L-12.69262105567022,-0.47421180697763077 L-12.685805021185667,-0.3778725662512048 L-12.674463210093363,-0.28167367512016217 L-12.658622945809652,-0.18584688513926362 L-12.638322388918638,-0.09062305143901062 L-12.613610445239994,0.0037684234245886628 L-12.584546648010548,0.0971001421208727 L-12.551201014463514,0.18914726036460938 L-12.51365387715084,0.27968802858557384 L-12.471995690415055,0.36850432614268736 L-12.42632681247683,0.4553821867957456 L-12.376757263663238,0.540112314168834 L-12.323406461359154,0.6224905859636277 L-12.266402932320306,0.702318545707889 L-12.205884003041065,0.7794038808544902 L-12.141995468922898,0.8535608860791865 L-12.074891243040472,0.924610910661004 L-12.004732985351573,0.9923827888674764 L-11.931689713244113,1.0567132523078904 L-11.855937394358433,1.117447323261135 L-11.777658522665845,1.174438688030607 L-11.697041678824679,1.2275500494267235 L-11.614281075872949,1.2766534575278747 L-11.529576091352139,1.3216306179229949 L-11.443130786989238,1.3623731766931582 L-11.355153417094174,1.39878298144566 L-11.265855926856927,1.43077231777173 L-11.17545344175302,1.4582641205582236 L-11.084163749287384,1.4811921596442308 L-10.99220677432521,1.4995011993753335 L-10.899804049273659,1.5131471316711376 L-10.807178180390915,1.522097082285499 " />
			<path d="M-12.694894893122935,-2.528687359051957 L-12.694894893122935,-0.5704593076302105 " />
			<path d="M-12.694894893122934,-2.528687359051957 L-12.691137819140396,-2.6519062381468825 L-12.679881552408059,-2.774099938046271 L-12.661170899041794,-2.8947820607989643 L-12.635080337705146,-3.0134722253599744 L-12.601713723143401,-3.129697979770543 L-12.561203872784738,-3.2429966817760887 L-12.513712038054004,-3.3529173403961416 L-12.4594272625036,-3.459022411115827 L-12.398565629316444,-3.5608895375530403 L-12.331369401176381,-3.6581132326685104 L-12.258106055929813,-3.7503064928266387 L-12.179067221877155,-3.8371023382822456 L-12.094567516932234,-3.91815527396125 L-12.004943296270424,-3.9931426647205774 L-11.910551313450542,-4.061766019613 L-11.811767300340017,-4.1237521800448285 " />
			<path d="M-11.811767300340001,-4.1237521800448365 L-11.755107424907392,-4.155242969658096 L-11.697281625769794,-4.184567926378383 L-11.638361026874872,-4.211690981414291 L-11.57841809874019,-4.236578774245505 L-11.517526569316713,-4.259200693655214 L-11.455761333305706,-4.2795289153809595 L-11.393198360040559,-4.297538436337617 L-11.329914600046862,-4.313207105370426 L-11.265987890395621,-4.326515650500221 L-11.201496858966077,-4.337447702627372 L-11.136520827735831,-4.345989815665272 L-11.071139715217267,-4.352131483078606 L-11.00543393816025,-4.355865150806073 L-10.939484312642,-4.357186226551637 L-10.873371954665815,-4.356093085432916 L-10.8071781803909,-4.35258707197974 " />
			<path d="M-10.807178180390899,-4.35258707197974 L12.789280728759536,-2.6734828408051907 " />
			<path d="M12.789280728759536,-2.6734828408051907 L12.789280728759536,-0.7152547893834441 " />
			<path d="M-12.789280728759536,2.6734828408051907 L10.807178180390899,4.35258707197974 " />
			<path d="M-14.67699744149157,0.5809264508894811 L-14.674723604038856,0.67717395154206 L-14.667907569554304,0.7735131922684859 L-14.656565758462,0.8697120833995285 L-14.64072549417829,0.9655388733804271 L-14.620424937287275,1.0607627070806802 L-14.59571299360863,1.1551541819442794 L-14.566649196379185,1.2484859006405635 L-14.53330356283215,1.3405330188843 L-14.495756425519478,1.4310737871052646 L-14.454098238783692,1.5198900846623782 L-14.408429360845467,1.6067679453154362 L-14.358859812031875,1.6914980726885247 L-14.30550900972779,1.7738763444833183 L-14.248505480688943,1.8537043042275796 L-14.187986551409702,1.930789639374181 L-14.124098017291535,2.0049466445988773 L-14.05699379140911,2.075996669180695 L-13.98683553372021,2.1437685473871673 L-13.91379226161275,2.2080990108275813 L-13.83803994272707,2.2688330817808255 L-13.759761071034482,2.325824446550298 L-13.679144227193316,2.3789358079464145 L-13.596383624241586,2.4280392160475657 L-13.511678639720776,2.473016376442686 L-13.425233335357875,2.513758935212849 L-13.337255965462811,2.5501687399653505 L-13.247958475225564,2.582158076291421 L-13.157555990121656,2.6096498790779146 L-13.066266297656021,2.6325779181639217 L-12.974309322693847,2.6508869578950245 L-12.881906597642296,2.6645328901908285 L-12.789280728759552,2.6734828408051894 " />
			<path d="M-14.676997441491572,-1.3773016005322667 L-14.676997441491572,0.58092645088948 " />
			<path d="M-14.67699744149157,-1.3773016005322667 L-14.673240367509033,-1.500520479627192 L-14.661984100776696,-1.6227141795265805 L-14.643273447410431,-1.7433963022792738 L-14.617182886073783,-1.8620864668402837 L-14.583816271512038,-1.9783122212508528 L-14.543306421153375,-2.091610923256398 L-14.495814586422641,-2.201531581876451 L-14.441529810872238,-2.3076366525961367 L-14.38066817768508,-2.40950377903335 L-14.313471949545018,-2.50672747414882 L-14.24020860429845,-2.5989207343069483 L-14.161169770245792,-2.685716579762555 L-14.07667006530087,-2.7667695154415597 L-13.987045844639061,-2.841756906200887 L-13.892653861819179,-2.9103802610933096 L-13.793869848708654,-2.9723664215251375 " />
			<path d="M10.807178180390899,4.35258707197974 L12.789280728759536,3.201201313460049 " />
			<path d="M-2.910835193458574,0.12576617700808157 L-4.507917671024671,1.0534971974663394 " />
			<path d="M-14.676997441491572,-1.3773016005322667 L-12.694894893122935,-2.5286873590519576 " />
			<path d="M-14.676997441491572,0.5809264508894801 L-12.694894893122935,-0.5704593076302108 " />
			<path d="M-12.789280728759536,2.6734828408051907 L-10.807178180390899,1.5220970822854998 " />
			<path d="M-13.79386984870864,-2.972366421525146 L-11.811767300340003,-4.123752180044837 " />

       </g>
    </g>
    <g transform="translate(20,210.0)" stroke="rgb(0,0,255)">
        <line x1="30" y1="-30" x2="75" y2="-33" stroke-width="3" stroke="#000000" />
         <text x="80" y="-30" style="stroke:#000000">X </text>

        <line x1="30" y1="-30" x2="30" y2="-75" stroke-width="3" stroke="#000000" />
         <text x="25" y="-85" style="stroke:#000000">Y </text>

        <line x1="30" y1="-30" x2="58" y2="-15" stroke-width="3" stroke="#000000" />
         <text x="65" y="-5" style="stroke:#000000">Z </text>
        <!--
            <line x1="0" y1="0" x2="20.666432778488165" y2="0" stroke-width="3" />
            <text x="0" y="20" style="stroke:#000000">1  mm </text>
        -->
    </g>
</svg>
