<svg xmlns="http://www.w3.org/2000/svg" viewBox="0 0 1000 1000">
    <path fill="gray" d="
        M 990,526.3
        c 0,17.4-14.2,31.6-31.6,31.6
        H 848.8
        c -10.5,0-20.5-5.3-26.3-14.2
        l -69.5-107.5
        l -83.2,444.7
        c -2.6,14.8-15.8,24.8-30.6,24.8
        c 0,0,0,0-0.5,0
        c -14.8,0-27.9-9.5-31.1-24.2
        L 483.1,285
        l -78.5,407.8
        c -2.6,14.2-14.2,24.8-28.5,25.8
        c -14.2,1.1-27.4-7.4-32.1-21.1
        L 235,388.8
        l -53.7,148.1
        c -4.7,12.6-16.3,20.5-29.5,20.5
        H 41.6
        c -17.4,0-31.6-14.2-31.6-31.6
        c 0-17.4,14.2-31.6,31.6-31.6
        h 87.5
        l 76.4-210.8
        c 4.7-12.6,16.3-21.1,29.5-21.1
        l 0,0
        c 13.2,0,25.3,9,29.5,21.6
        l 99.6,282.4
        l 86.4-447.3
        c 2.6-14.8,15.8-24.8,30.6-24.8
        l 0,0
        c 14.8,0,27.9,10,31.1,24.2
        l 123.8,594.3
        l 68.5-366.7
        c 2.6-12.6,12.1-22.7,24.8-25.3
        c 12.6-2.6,25.8,3.2,32.7,13.7
        l 103.3,159.6
        h 93.3
        C 975.8,494.7,990,509,990,526.3
        z" />
</svg>