<svg xmlns="http://www.w3.org/2000/svg" viewBox="0 0 512 512">
   <path fill="grey" d="
      M 23.74272,511.68391
      C 16.562074,509.1936 11.011382,505.1131 7.411523,499.67831 1.00544,490.00689 1.398489,505.11494 1.683412,279.50087
      L 1.942885,74.03937 4.324681,68.76926
      C 7.248237,62.30042 15.526464,54.46733 22.15738,51.89547
      c 4.56177,-1.76932 10.92184,-1.86863 136.03551,-2.12414 80.86518,-0.16514 131.25,0.0906 131.25,0.6662 0,0.51383 -7.0875,7.71821 -15.75,16.00973
      l -15.75,15.07549 -112.25,0.008 -112.25,0.008
      v 200 200
      h 184 184
      V 379.77306 278.00675
      l 11.25,-11.00013
      c 6.1875,-6.05006 13.16958,-12.77846 15.51573,-14.952
      l 4.26574,-3.95187 -0.26574,121.46831 -0.26573,121.46831 -2.29331,4.29506
      c -3.53466,6.61993 -8.82968,11.87237 -15.04615,14.92516
      l -5.66054,2.77978 -190,0.224
      C 38.10463,513.47656 28.69214,513.4004 23.74272,511.68391
      Z
      M 137.86285,380.65369
      c -3.07504,-1.87516 -6.41996,-7.40443 -6.41996,-10.61244 0,-0.93272 7.43756,-26.51471 16.52791,-56.84887 9.09035,-30.33415 17.39931,-58.07801 18.46436,-61.65301
      l 1.93644,-6.5 113.28565,-113.09723
      C 400.15899,13.6375 400.56353,13.25963 415.34753,7.0667
      c 7.14063,-2.99117 18.94452,-5.52733 25.72549,-5.52733 6.09377,0 18.22195,2.60741 24.05299,5.17109 16.59107,7.29446 34.29594,24.87486 42.32053,42.02301 3.37902,7.22082 5.96162,17.96683 5.96162,24.8059 0,6.9488 -2.57023,17.48144 -6.18485,25.34513 -7.04704,15.33098 3.68068,4.32443 -210.28042,215.74588 -24.73961,24.44596 -30.78906,29.92018 -34.5,31.21947 -22.51771,7.88401 -115.07825,36.68869 -117.88556,36.68578 -1.98794,-0.002 -5.00046,-0.84893 -6.69448,-1.88194
      z
      m 68.51194,-50.16099
      c 17.36245,-5.52567 34.36061,-11.03817 37.77368,-12.25 6.08506,-2.16054 8.0271,-4.00247 100,-94.84525
      C 464.3949,104.62854 473.0364,95.82215 477.46276,87.53937
      c 3.08869,-5.77969 3.4712,-7.33112 3.45169,-14 -0.0182,-6.21685 -0.49374,-8.4036 -2.77959,-12.78155 -3.97275,-7.60878 -15.42743,-19.2557 -22.93141,-23.31625 -5.63233,-3.04777 -7.0679,-3.38844 -14.30608,-3.39496 -7.31254,-0.007 -8.77022,0.34541 -16,3.86349 -7.86423,3.82682 -9.20569,5.12028 -118.23054,114
      l -110.27607,110.12927 -2.05834,7
      c -1.13209,3.85 -6.29536,21.23003 -11.47394,38.62228 -5.17857,17.39225 -9.41559,31.90475 -9.41559,32.25 0,1.05014 0.36023,0.94711 32.9319,-9.41895
      z" />
</svg>