<?xml version="1.0" encoding="UTF-8" standalone="no"?>
<svg
   xmlns:svg="http://www.w3.org/2000/svg"
   xmlns="http://www.w3.org/2000/svg"
   width="800.0"
   height="240.0"

>
    <g transform="scale(4.5746033220512805, -4.5746033220512805)   translate(43.71963773031992,-40.821547440409574)" stroke-width="0.21859818865159958"  fill="none">
       <!-- hidden lines -->
       <g  stroke="rgb(160,160,160)" fill="none" stroke-dasharray="0.21859818865159958,0.21859818865159958" >
			<path d="M37.75433425464071,1.7074527441684135 L7.105427357601002e-15,-0.9791140257108606 " />
			<path d="M70.77820391497985,14.85872058727032 L70.32654677592242,14.501835584605814 L69.87192224543193,14.149226138806299 L69.41437174068065,13.80092437327292 L68.9539369454027,13.456962018968795 L68.49065980609673,13.11737041152837 L68.02458252820436,12.782180488402545 L67.55574757226525,12.45142278604034 L67.08419765004882,12.125127437106869 L66.60997572066324,11.803324167738268 L66.13312498664163,11.48604229483351 L65.65368889000628,11.173310723383672 L65.17171110831103,10.865157943838554 L64.68723555066214,10.561612029511181 L64.20030635371805,10.262700634020263 L63.71096787766851,9.968450988770911 L63.219264702193215,9.678889900473784 L62.72524162240059,9.394043748702934 L62.22894364474676,9.113938483492618 L61.730415982935476,8.838599622973177 L61.22970405379901,8.568052251046268 L60.7268534731606,8.302321015099693 L60.221910051678776,8.041430123761984 L59.7149197906739,7.785403344696903 L59.20592887793737,7.534264002438249 L58.69498368352379,7.2880349762648535 L58.18213075552663,7.046738698116272 L57.667416815837576,6.810397150549193 L57.15088875589005,6.579031864734844 L56.63259363238735,6.352663918497306 L56.11257866301564,6.131313934393447 L55.5908912221424,5.915002077834075 L55.06757883650049,5.7037480552468764 L54.54268918085835,5.497571112281051 L54.01627007367678,5.296490032054095 L53.48836947275256,5.1005231334405465 L52.9590354708494,4.909688269403134 L52.42831629131665,4.724002825366327 L51.89626028369596,4.543483717632512 L51.36291591931662,4.368147391840807 L50.82833178687973,4.198009821468993 L50.29255658803162,4.033086506378098 L49.75563913292709,3.8733924714004786 L49.21762833578266,3.718942264970977 L48.67857321042048,3.5697499578015126 L48.138522865802955,3.425829141599266 L47.59752650155891,3.2871929278283716 L47.05563340350139,3.1538539465155253 L46.512892939137615,3.025824345099288 L45.96935455317151,2.903115787323493 L45.425067762999205,2.785739452174596 L44.88008215419789,2.6737060328633007 L44.33444737600847,2.5670257358503576 L43.78821313681246,2.465708279916754 L43.24142919960341,2.3697628952782566 L42.69414537745344,2.279198322744662 L42.14641152897513,2.1940228129232864 L41.59827755377933,2.114244125467522 L41.049793387929235,2.0398695283697634 L40.50100899939105,1.9709057972993804 L39.95197438348185,1.907359214985398 L39.40273955831493,1.8492355706441046 L38.85335456024302,1.7965401594517019 L38.30386943929989,1.749277782061867 L37.754334254640966,1.7074527441684282 " />
			<path d="M79.18470885447627,20.49170962878965 L78.63557609228286,20.18321208474613 L78.08930905521606,19.868720759745678 L77.54597274359054,19.548273075110977 L77.0056318089937,19.221907160911876 L76.46835054659329,18.88966185142843 L75.93419288748656,18.551576680529948 L75.40322239109315,18.20769187697077 L74.8755022375923,17.858048359603572 L74.35109522040494,17.502687732510424 L73.83006373872185,17.141652280052178 L73.3124697900789,16.77498496183724 L72.79837496297989,16.40272940760974 L72.28784042956812,16.02492991205787 L71.78092693834756,15.641631429543551 L71.27769480695444,15.252879568753137 L70.77820391498027,14.858720587270668 " />
			<path d="M104.84749420150033,34.731595944497286 L79.18470885447627,20.491709628789643 " />
			<path d="M104.04971064570664,36.44958366737758 L104.84749420150033,34.731595944497286 " />
			<path d="M9.644743513388807,1.6654258873455179 L11.248014002644851,1.7795132710750812 " />
			<path d="M8.898406108219856,0.548747847831839 L9.644743513388804,1.6654258873455188 " />
			<path d="M8.898406108219863,0.5487478478318415 L5.621645720444338,0.31557632608603337 " />
			<path d="M5.248477017859869,1.35259124963846 L5.621645720444341,0.31557632608603514 " />
			<path d="M4.646800603375178,1.3097764604682345 L4.959502248261111,0.7002095856497395 " />
			<path d="M5.621645720444343,0.3155763260860347 L4.95950224826111,0.700209585649739 " />
			<path d="M12.201910355500925,-1.3702284163676428 L8.925149967725396,-1.6033999381134512 " />
			<path d="M104.84749420150033,34.731595944497286 L108.1509984487814,32.8126196802978 " />
			<path d="M9.644743513388807,1.6654258873455179 L19.470548778901303,1.2875965231654152 " />
			<path d="M4.959502248261105,0.7002095856497389 L8.898406108219865,0.5487478478318416 " />

       </g>

       <!-- solid lines -->
       <g  stroke="rgb(0,0,0)" fill="none">
			<path d="M5.779465574860626e-17,0.9791140257108734 L5.248477017859873,1.352591249638461 " />
			<path d="M8.551981265140935,-0.5663850145610239 L5.248477017859871,1.3525912496384611 " />
			<path d="M3.3035042472810616,-0.9398622384886112 L8.551981265140935,-0.5663850145610237 " />
			<path d="M5.779465574860626e-17,0.9791140257108734 L3.3035042472810616,-0.9398622384886114 " />
			<path d="M1.3413033974046832e-14,-0.9791140257108606 L5.779465574860578e-17,0.9791140257108735 " />
			<path d="M78.3869252986826,22.209697351669927 L104.04971064570665,36.44958366737758 " />
			<path d="M69.69545409005066,16.38575952908217 L70.21187687666844,16.793279831971144 L70.73216772437999,17.195209721940916 L71.25626472377752,17.591501373354017 L71.78410551255918,17.98210763146695 L72.31562728294969,18.366982018041174 L72.85076678917376,18.746078736873546 L73.3894603549817,19.119352679245626 L73.93164388122626,19.4867594292911 L74.47725285348984,19.8482552692809 L75.02622234976099,20.203797184825138 L75.5784870481595,20.553342869991386 L76.13398123470907,20.896850732338667 L76.69263881115663,21.234279897866532 L77.25439330283731,21.56559021587871 L77.81917786658431,21.890742263760533 L78.3869252986821,22.20969735166967 " />
			<path d="M37.754334254640696,3.6656807955901556 L38.285851892261874,3.7061345207658007 L38.81732110760031,3.751847312011705 L39.34869348278462,3.8028150048043514 L39.87992060876574,3.8590329558885514 L40.410954089727085,3.920496043700446 L40.94174554749354,3.987198668834104 L41.47224662593871,4.059134754551607 L42.00240899539038,4.136297747336684 L42.532184357033344,4.218680617491778 L43.06152444730955,4.306275859778388 L43.590381042315,4.399075494100842 L44.11870596219312,4.49707106623336 L44.64645107552387,4.600253648590133 L45.173568303708755,4.708613841038769 L45.700009625350816,4.822141771756549 L46.22572708062951,4.9408270981298585 L46.750672775669884,5.064659007696392 L47.27479888690583,5.193626219130124 L47.79805766543696,5.327716983269184 L48.32040144137849,5.466919084186117 L48.841782628204214,5.611219840300841 L49.36215372708161,5.760606105535942 L49.88146733119912,5.915064270514293 L50.39967613008499,6.074580263798936 L50.9167329139174,6.239139553174951 L51.43259057782528,6.408727146973476 L51.94720212617972,6.583327595437332 L52.46052067687534,6.762924992128674 L52.97249946560134,6.947502975377972 L53.48309185010181,7.137044729774686 L53.992251314424976,7.331532987699113 L54.499931473160814,7.530950030895568 L55.00608607566693,7.73527769208647 L55.510669010282015,7.944497356627494 L56.013634308526775,8.158589964203358 L56.514936149291685,8.377536010564256 L57.01452886301143,8.601315549302733 L57.51236693582544,8.829908193670875 L58.00840501372433,9.063293118437542 L58.502597906681714,9.30144906178559 L58.994900592771145,9.544354327248882 L59.48526822226768,9.791986785688863 L59.97365612173371,10.044323877310596 L60.46001979808888,10.301342613717921 L60.944314942663496,10.56301958000789 L61.42649743523506,10.829330936903744 L61.906523348047784,11.100252422926829 L62.38434894981444,11.375759356606835 L62.85993070970038,11.65582663873029 L63.33322530128927,11.940428754627206 L63.80418960653027,12.229539776495471 L64.27278071966609,12.523133365762924 L64.7389559511418,12.82118277548689 L65.20267283149403,13.123660852790827 L65.66388911521986,13.430540041338048 L66.12256278462559,13.74179238384211 L66.5786520536546,14.057389524613825 L67.03211537169406,14.377302712144484 L67.48291142736045,14.701502801725198 L67.93099915226296,15.029960258102008 L68.37633772474487,15.362645158166643 L68.8188865736027,15.699527193682542 L69.25860538178202,16.04057567404601 L69.69545409005059,16.385759529082094 " />
			<path d="M11.248014002644851,1.7795132710750812 L37.7543342546407,3.6656807955901525 " />
			<path d="M9.417799823343298,-0.9434794792291561 L4.268146343963953,2.0479084700718433 " />
			<path d="M4.268146343963954,2.047908470071857 L4.646800603375178,1.3097764604682345 " />
			<path d="M8.551981265140933,-0.5663850145610247 L8.925149967725403,-1.6033999381134514 " />
			<path d="M9.587293439908642,-1.9880331976771568 L8.925149967725405,-1.603399938113451 " />
			<path d="M9.417799823343298,-0.9434794792291441 L9.587293439908642,-1.9880331976771526 " />
			<path d="M3.303504247281075,-2.8980902899103453 L3.3035042472810616,-0.9398622384886113 " />
			<path d="M41.05783850192177,-0.211523520031071 L3.3035042472810687,-2.8980902899103453 " />
			<path d="M74.08170816226091,12.939744323070833 L73.63005102320348,12.582859320406328 L73.175426492713,12.230249874606812 L72.7178759879617,11.881948109073434 L72.25744119268377,11.53798575476931 L71.7941640533778,11.198394147328884 L71.32808677548542,10.86320422420306 L70.8592518195463,10.532446521840853 L70.38770189732989,10.206151172907383 L69.91347996794431,9.884347903538782 L69.43662923392269,9.567066030634024 L68.95719313728733,9.254334459184186 L68.4752153555921,8.946181679639068 L67.9907397979432,8.642635765311695 L67.50381060099912,8.343724369820777 L67.01447212494958,8.049474724571425 L66.52276894947428,7.759913636274298 L66.02874586968164,7.475067484503448 L65.53244789202782,7.1949622192931315 L65.03392023021654,6.919623358773691 L64.53320830108007,6.649075986846782 L64.03035772044166,6.383344750900207 L63.525414298959845,6.122453859562498 L63.01842403795496,5.866427080497417 L62.50943312521843,5.615287738238763 L61.99848793080485,5.3690587120653674 L61.4856350028077,5.127762433916786 L60.97092106311864,4.891420886349707 L60.45439300317111,4.660055600535358 L59.93609787966841,4.43368765429782 L59.41608291029671,4.2123376701939605 L58.89439546942347,3.9960258136345885 L58.371083083781556,3.7847717910473904 L57.846193428139415,3.578594848081565 L57.31977432095785,3.3775137678546088 L56.79187372003362,3.1815468692410604 L56.26253971813047,2.9907120052036475 L55.73182053859771,2.805026561166841 L55.19976453097702,2.6245074534330257 L54.66642016659768,2.4491711276413213 L54.13183603416079,2.279033557269507 L53.596060835312684,2.1141102421786115 L53.05914338020815,1.9544162072009925 L52.52113258306372,1.7999660007714908 L51.982077457701536,1.6507736936020265 L51.44202711308401,1.5068528773997798 L50.90103074883997,1.3682166636288855 L50.35913765078246,1.2348776823160392 L49.81639718641868,1.1068480808998018 L49.27285880045258,0.9841395231240071 L48.72857201028027,0.8667631879751099 L48.18358640147895,0.7547297686638146 L47.63795162328953,0.6480494716508716 L47.09171738409352,0.5467320157172679 L46.54493344688447,0.4507866310787705 L45.99764962473451,0.3602220585451761 L45.44991577625619,0.2750465487238003 L44.901781801060395,0.19526786126803586 L44.353297635210296,0.12089326417027735 L43.8045132466721,0.05192953309989434 L43.25547863076291,-0.011617049214088127 L42.70624380559599,-0.06974069355538148 L42.15685880752408,-0.12243610474778421 L41.60737368658095,-0.16969848213761907 L41.05783850192202,-0.2115235200310579 " />
			<path d="M82.48821310175732,18.572733364590164 L81.9390803395639,18.264235820546645 L81.39281330249713,17.94974449554619 L80.84947699087158,17.62929681091149 L80.30913605627475,17.30293089671239 L79.77185479387433,16.970685587228942 L79.23769713476761,16.63260041633046 L78.70672663837419,16.288715612771284 L78.17900648487336,15.939072095404086 L77.65459946768601,15.583711468310938 L77.1335679860029,15.222676015852691 L76.61597403735993,14.856008697637755 L76.10187921026096,14.483753143410254 L75.59134467684916,14.105953647858385 L75.08443118562862,13.722655165344065 L74.5811990542355,13.333903304553651 L74.08170816226132,12.939744323071181 " />
			<path d="M108.1509984487814,32.8126196802978 L82.48821310175734,18.572733364590157 " />
			<path d="M107.3532148929877,34.530607403178095 L108.15099844878138,32.8126196802978 " />
			<path d="M81.69042954596367,20.29072108747044 L107.35321489298772,34.530607403178095 " />
			<path d="M72.99895833733171,14.466783264882686 L73.5153811239495,14.874303567771662 L74.03567197166106,15.276233457741434 L74.55976897105856,15.672525109154535 L75.08760975984023,16.063131367267466 L75.61913153023073,16.44800575384169 L76.15427103645482,16.827102472674063 L76.69296460226275,17.200376415046144 L77.23514812850732,17.56778316509162 L77.7807571007709,17.92927900508142 L78.32972659704204,18.284820920625656 L78.88199129544056,18.634366605791904 L79.43748548199014,18.977874468139184 L79.9961430584377,19.31530363366705 L80.55789755011837,19.646613951679228 L81.12268211386537,19.97176599956105 L81.69042954596316,20.29072108747019 " />
			<path d="M41.05783850192175,1.7467045313906695 L41.58935613954293,1.7871582565663147 L42.120825354881376,1.832871047812219 L42.65219773006568,1.8838387406048653 L43.1834248560468,1.9400566916890654 L43.71445833700815,2.00151977950096 L44.2452497947746,2.068222404634618 L44.77575087321978,2.140158490352121 L45.305913242671444,2.217321483137198 L45.8356886043144,2.2997043532922916 L46.365028694590606,2.3872995955789023 L46.89388528959607,2.480099229901356 L47.42221020947419,2.578094802033874 L47.94995532280494,2.681277384390647 L48.47707255098982,2.789637576839283 L49.00351387263188,2.9031655075570626 L49.52923132791057,3.0218508339303725 L50.05417702295094,3.1456827434969057 L50.578303134186896,3.274649954930638 L51.10156191271801,3.408740719069698 L51.623905688659555,3.5479428199866305 L52.14528687548528,3.6922435761013546 L52.665657974362674,3.841629841336456 L53.18497157848017,3.9960880063148068 L53.70318037736605,4.15560399959945 L54.220237161198455,4.320163288975465 L54.736094825106335,4.48975088277399 L55.25070637346079,4.664351331237846 L55.7640249241564,4.843948727929188 L56.2760037128824,5.028526711178486 L56.78659609738287,5.2180684655752 L57.29575556170604,5.412556723499627 L57.803435720441875,5.611973766696082 L58.30959032294799,5.816301427886984 L58.81417325756308,6.025521092428008 L59.31713855580784,6.239613700003872 L59.818440396572754,6.45855974636477 L60.31803311029249,6.682339285103247 L60.8158711831065,6.9109319294713885 L61.3119092610054,7.144316854238056 L61.806102153962776,7.382472797586104 L62.298404840052214,7.625378063049396 L62.78877246954874,7.873010521489377 L63.277160369014766,8.12534761311111 L63.76352404536995,8.382366349518435 L64.24781918994456,8.644043315808403 L64.73000168251613,8.910354672704258 L65.21002759532885,9.181276158727343 L65.6878531970955,9.456783092407349 L66.16343495698143,9.736850374530803 L66.63672954857033,10.02145249042772 L67.10769385381134,10.310563512295985 L67.57628496694714,10.604157101563437 L68.04246019842287,10.902206511287403 L68.5061770787751,11.204684588591341 L68.96739336250093,11.511563777138562 L69.42606703190665,11.822816119642624 L69.88215630093565,12.138413260414339 L70.33561961897512,12.458326447944998 L70.78641567464152,12.782526537525712 L71.23450339954401,13.110983993902522 L71.67984197202594,13.443668893967157 L72.12239082088377,13.780550929483056 L72.56210962906309,14.121599409846525 L72.99895833733166,14.466783264882608 " />
			<path d="M12.94824776066987,-0.2535503768539663 L41.057838501921765,1.7467045313906677 " />
			<path d="M12.201910355500928,-1.3702284163676435 L12.948247760669867,-0.25355037685397086 " />
			<path d="M1.3413033974046832e-14,-0.9791140257108606 L3.303504247281075,-2.8980902899103453 " />
			<path d="M104.04971064570664,36.44958366737758 L107.3532148929877,34.530607403178095 " />
			<path d="M19.47054877890131,1.2875965231654152 L12.948247760669869,-0.2535503768539667 " />
			<path d="M19.58506089459486,1.4589307802556086 L19.470548778901303,1.287596523165416 " />
			<path d="M4.268146343963954,2.0479084700718433 L19.585060894594864,1.4589307802556002 " />
			<path d="M19.58506089459486,1.458930780255601 L9.417799823343298,-0.9434794792291563 " />
			<path d="M12.201910355500926,-1.3702284163676413 L9.587293439908645,-1.9880331976771528 " />
			<path d="M78.3869252986826,22.209697351669927 L81.69042954596367,20.29072108747044 " />
			<path d="M69.69545409005069,16.38575952908218 L72.99895833733174,14.466783264882695 " />
			<path d="M37.754334254640696,3.6656807955901525 L41.05783850192176,1.7467045313906677 " />

       </g>
    </g>
    <g transform="translate(20,210.0)" stroke="rgb(0,0,255)">
        <line x1="30" y1="-30" x2="75" y2="-33" stroke-width="3" stroke="#000000" />
         <text x="80" y="-30" style="stroke:#000000">X </text>

        <line x1="30" y1="-30" x2="30" y2="-75" stroke-width="3" stroke="#000000" />
         <text x="25" y="-85" style="stroke:#000000">Y </text>

        <line x1="30" y1="-30" x2="58" y2="-15" stroke-width="3" stroke="#000000" />
         <text x="65" y="-5" style="stroke:#000000">Z </text>
        <!--
            <line x1="0" y1="0" x2="4.5746033220512805" y2="0" stroke-width="3" />
            <text x="0" y="20" style="stroke:#000000">1  mm </text>
        -->
    </g>
</svg>
