<?xml version="1.0" encoding="UTF-8" standalone="no"?>
<svg
   xmlns:svg="http://www.w3.org/2000/svg"
   xmlns="http://www.w3.org/2000/svg"
   width="800.0"
   height="240.0"

>
    <g transform="scale(2.0965524350413296, -2.0965524350413296)   translate(128.76009739299647,-68.69852653533084)" stroke-width="0.4769735224772887"  fill="none">
       <!-- hidden lines -->
       <g  stroke="rgb(160,160,160)" fill="none" stroke-dasharray="0.4769735224772887,0.4769735224772887" >
			<path d="M12.208851808575481,25.13121721512098 L15.42005163940302,25.359723502604588 " />
			<path d="M14.488225770218367,10.606705169393514 L14.488225770218369,20.397845426502247 " />
			<path d="M14.488225770218369,20.397845426502247 L12.208851808575481,20.235647086566612 " />
			<path d="M14.488225770218367,10.606705169393514 L-4.388941357101984,9.263421784453875 " />
			<path d="M-31.157573915581388,-25.728790863924086 L-31.015924226999857,-25.807517837957235 L-30.871359729155863,-25.88083022975795 L-30.724058231918562,-25.94863786734772 L-30.57420091158186,-26.010857349425756 L-30.421972088023164,-26.06741214795003 L-30.267558997995646,-26.11823270226439 L-30.11115156483278,-26.163256504656037 L-29.952942164848537,-26.202428177238062 L-29.793125390720434,-26.235699540062548 L-29.631897812146573,-26.263029670380426 L-29.469457734070957,-26.284384952975174 L-29.30600495277455,-26.29973912150851 L-29.141740510132006,-26.309073290827175 L-28.97686644633638,-26.312375980191085 L-28.81158555139592,-26.309643127394285 L-28.646101115708632,-26.300878093761344 " />
			<path d="M-28.646101115708625,-26.300878093761344 L27.985400266252427,-22.271027938942424 " />
			<path d="M12.208851808575481,25.562027386433762 L15.42005163940302,25.790533673917373 " />
			<path d="M32.70469204808251,-17.03963696415315 L32.703270685630656,-17.159881412388255 L32.69900745445072,-17.280255715784595 L32.69190492255373,-17.40068736536289 L32.681967368239334,-17.52110381760066 L32.66920077751866,-17.641432538129745 L32.65361284050857,-17.76160104542827 L32.63521294679947,-17.881536954480833 L32.6140121797993,-18.00116802038051 L32.590023310057354,-18.120422181846504 L32.56326078757177,-18.239227604631143 L32.53374073308537,-18.357512724790162 L32.50148092837515,-18.47520629179014 L32.46650080554121,-18.59223741142717 L32.428821435301536,-18.708535588530854 L32.38846551429985,-18.82403076942797 L32.34545735143396,-18.938653384140196 L32.29982285321298,-19.05233438829044 L32.25158950815227,-19.165005304692606 L32.20078637021533,-19.2765982645997 L32.14744404131281,-19.38704604858539 L32.09159465286903,-19.496282127034522 L32.033271846467244,-19.60424070021804 L31.972510753585208,-19.710856737928278 L31.909347974433267,-19.81606601865076 L31.843821555907773,-19.9198051682488 L31.775970968673054,-20.022011698137746 L31.705837083385767,-20.122624042925732 L31.63346214607593,-20.2215815974984 L31.55888975269951,-20.318824753525135 L31.48216482287783,-20.414294935364904 L31.40333357283969,-20.507934635350026 L31.322443487582415,-20.599687448426643 L31.2395432922687,-20.689498106131015 L31.154682922876354,-20.777312509881185 L31.06791349611877,-20.863077763563915 L30.97928727865411,-20.946742205397364 L30.88885765560182,-21.028255439050184 L30.796679098385457,-21.1075683639984 L30.702807131921098,-21.184633205101722 L30.60729830117125,-21.259403541381513 L30.51021013708425,-21.331834333983036 L30.411601121939782,-21.401881953305192 L30.31153065412134,-21.469504205281353 L30.210059012336867,-21.534660356795484 L30.1072473193091,-21.59731116021826 L30.003157504957542,-21.657418877048364 L29.89785226909419,-21.714947300644745 L29.791395043655513,-21.769861778036166 L29.683849954493425,-21.822129230794815 L29.575281782748263,-21.871718174961572 L29.465755925827064,-21.91859874001071 L29.3553383580106,-21.962742686842827 L29.24409559071294,-22.004123424794997 L29.132094632417484,-22.042716027658003 L29.01940294831351,-22.07849724869095 L28.906088419657713,-22.111445534624238 L28.792219302885055,-22.14154103864243 L28.677864188493633,-22.16876563233925 L28.56309195972835,-22.193102916637457 L28.447971751088197,-22.21453823166701 L28.33257290668224,-22.233058665595657 L28.216964938459313,-22.24865306240652 L28.10121748433661,-22.26131202861808 L27.985400266252434,-22.271027938942424 " />
			<path d="M32.70469204808251,22.12492406428178 L32.70234329236447,22.279191576408454 L32.69529936312616,22.43297126201909 L32.68356727178787,22.58611005114786 L32.66715869629532,22.738455511767565 L32.64608996949558,22.88985600151817 L32.620382062879656,23.0401608186493 L32.590060565707724,23.18922035202649 L32.55515565953803,23.336886230051824 L32.515702088184575,23.48301146835078 L32.47173912313367,23.62745061607825 L32.423310524453704,23.770059900698083 L32.370464497237016,23.910697371092112 L32.31325364361729,24.049223038856134 L32.25173491041018,24.18549901764224 L32.18596953242934,24.319389660408795 L32.11602297153417,24.450761694441454 L32.04196485147013,24.579484354010784 L31.963868888566278,24.70542951053449 L31.88181281835918,24.82847180011468 L31.795878318216122,24.948488748323165 L31.7061509260347,25.06536089211066 L31.6127199550997,25.178971898718487 L31.51567840518201,25.28920868147443 L31.415122869968055,25.395961512357502 L31.3111534409119,25.499124131219556 L31.203873607605757,25.598593851555012 L31.093390154767988,25.694271662713454 L30.979813055951233,25.786062328453333 L30.8632553640764,25.87387448173866 L30.743833098901522,25.95762071568439 L30.62166513153741,26.037217670559897 L30.496873066125193,26.11258611676397 " />
			<path d="M32.70469204808251,-17.039636964153154 L32.70469204808251,22.12492406428178 " />
			<path d="M14.234961996702491,10.203354800241403 L14.488225770218367,10.606705169393514 " />
			<path d="M14.234961996702493,19.994495057350136 L14.488225770218369,20.397845426502247 " />
			<path d="M14.234961996702488,10.203354800241401 L14.234961996702488,19.994495057350136 " />
			<path d="M12.208851808575481,16.767692104133236 L12.96864312912311,17.977743211589573 " />
			<path d="M12.96864312912311,17.977743211589573 L13.475170676154864,18.7844439498938 " />
			<path d="M13.475170676154864,18.7844439498938 L14.234961996702493,19.994495057350136 " />
			<path d="M12.20885180857548,6.976551847024504 L12.968643129123109,8.18660295448084 " />
			<path d="M12.968643129123109,8.18660295448084 L13.475170676154862,8.993303692785066 " />
			<path d="M13.475170676154862,8.993303692785066 L14.234961996702491,10.203354800241403 " />
			<path d="M14.234964397613856,0.4122151960410359 L15.420051639403018,0.7344900570483404 " />
			<path d="M14.234961996702486,0.4122145431326685 L14.234961996702488,10.203354800241401 " />
			<path d="M14.234961996702488,19.994495057350136 L14.234961996702493,59.159056085785075 " />
			<path d="M12.96864312912311,17.977743211589573 L12.968643129123116,57.14230424002451 " />
			<path d="M13.47517067615486,18.784443949893806 L13.475170676154859,8.99330369278507 " />
			<path d="M12.96864312912311,8.18660295448084 L12.96864312912311,17.977743211589573 " />
			<path d="M13.475170676154864,56.89836489061048 L13.47517067615486,18.784443949893806 " />
			<path d="M12.208851808575478,-2.8145884100842316 L12.968643129123107,-1.6045373026278942 " />
			<path d="M12.968643129123109,-1.604537302627894 L12.96864312912311,8.18660295448084 " />
			<path d="M13.475170676154857,-0.797836564323669 L14.234961996702486,0.41221454313266837 " />
			<path d="M13.475170676154859,8.99330369278507 L13.475170676154857,-0.7978365643236671 " />
			<path d="M13.475170676154846,-0.7978365643236691 L14.153732771823634,-0.5337263497248677 " />
			<path d="M12.96864312912311,-1.6045373026278942 L14.153732771823638,-1.2822617887122223 " />

       </g>

       <!-- solid lines -->
       <g  stroke="rgb(0,0,0)" fill="none">
			<path d="M-32.70469204808251,-22.124924064281785 L-32.70469204808251,17.03963696415315 " />
			<path d="M-33.36539289753871,-21.74112881144189 L-33.36539289753871,17.423432216993046 " />
			<path d="M-32.70469204808251,-22.12492406428178 L-32.70234329236447,-22.279191576408458 L-32.69529936312616,-22.432971262019095 L-32.68356727178787,-22.586110051147863 L-32.66715869629532,-22.738455511767565 L-32.64608996949558,-22.88985600151817 L-32.620382062879656,-23.040160818649298 L-32.590060565707724,-23.18922035202649 L-32.55515565953803,-23.336886230051824 L-32.515702088184575,-23.48301146835078 L-32.47173912313367,-23.627450616078246 L-32.423310524453704,-23.77005990069808 L-32.370464497237016,-23.910697371092112 L-32.31325364361729,-24.049223038856137 L-32.25173491041018,-24.185499017642243 L-32.18596953242934,-24.3193896604088 L-32.11602297153417,-24.450761694441457 L-32.04196485147013,-24.57948435401078 L-31.963868888566278,-24.70542951053449 L-31.88181281835918,-24.82847180011468 L-31.795878318216122,-24.948488748323165 L-31.7061509260347,-25.06536089211066 L-31.612719955099703,-25.178971898718487 L-31.515678405182015,-25.289208681474427 L-31.415122869968055,-25.395961512357502 L-31.311153440911898,-25.49912413121956 L-31.203873607605754,-25.598593851555016 L-31.093390154767985,-25.694271662713458 L-30.97981305595123,-25.786062328453333 L-30.863255364076405,-25.87387448173866 L-30.743833098901526,-25.95762071568439 L-30.62166513153741,-26.037217670559894 L-30.49687306612521,-26.11258611676396 " />
			<path d="M-30.496873066125175,-26.112586116763982 L-30.355223377543645,-26.19131309079713 L-30.21065887969965,-26.264625482597847 L-30.06335738246235,-26.332433120187616 L-29.913500062125646,-26.39465260226565 L-29.761271238566952,-26.451207400789926 L-29.606858148539434,-26.502027955104285 L-29.45045071537657,-26.547051757495932 L-29.292241315392324,-26.586223430077958 L-29.13242454126422,-26.619494792902444 L-28.97119696269036,-26.646824923220322 L-28.808756884614745,-26.66818020581507 L-28.645304103318338,-26.683534374348405 L-28.481039660675794,-26.69286854366707 L-28.316165596880168,-26.69617123303098 L-28.150884701939706,-26.69343838023418 L-27.98540026625242,-26.68467334660124 " />
			<path d="M-32.70469204808251,17.039636964153146 L-32.703270685630656,17.159881412388255 L-32.69900745445072,17.280255715784598 L-32.69190492255373,17.40068736536289 L-32.681967368239334,17.521103817600665 L-32.66920077751866,17.641432538129745 L-32.65361284050857,17.76160104542827 L-32.63521294679947,17.881536954480833 L-32.6140121797993,18.00116802038051 L-32.590023310057354,18.120422181846504 L-32.56326078757177,18.23922760463114 L-32.53374073308537,18.35751272479016 L-32.50148092837516,18.47520629179014 L-32.46650080554121,18.592237411427167 L-32.42882143530154,18.70853558853085 L-32.38846551429985,18.824030769427967 L-32.34545735143396,18.938653384140192 L-32.29982285321298,19.052334388290433 L-32.25158950815227,19.165005304692603 L-32.20078637021534,19.27659826459969 L-32.14744404131281,19.387046048585386 L-32.09159465286903,19.49628212703452 L-32.033271846467244,19.604240700218032 L-31.972510753585208,19.710856737928278 L-31.90934797443327,19.81606601865076 L-31.843821555907773,19.9198051682488 L-31.775970968673054,20.022011698137746 L-31.705837083385767,20.122624042925732 L-31.63346214607593,20.2215815974984 L-31.55888975269951,20.318824753525135 L-31.48216482287783,20.4142949353649 L-31.40333357283969,20.507934635350022 L-31.32244348758242,20.59968744842664 L-31.2395432922687,20.689498106131012 L-31.154682922876354,20.77731250988118 L-31.06791349611877,20.86307776356391 L-30.979287278654112,20.946742205397364 L-30.888857655601825,21.02825543905018 L-30.79667909838546,21.107568363998396 L-30.702807131921098,21.184633205101722 L-30.60729830117125,21.25940354138151 L-30.510210137084254,21.331834333983036 L-30.411601121939782,21.401881953305192 L-30.31153065412134,21.469504205281353 L-30.210059012336867,21.534660356795484 L-30.1072473193091,21.59731116021826 L-30.003157504957542,21.657418877048364 L-29.89785226909419,21.714947300644745 L-29.791395043655516,21.769861778036166 L-29.683849954493425,21.82212923079482 L-29.575281782748263,21.871718174961572 L-29.465755925827064,21.91859874001071 L-29.355338358010602,21.962742686842827 L-29.24409559071295,22.004123424794997 L-29.132094632417488,22.042716027658003 L-29.019402948313516,22.07849724869095 L-28.90608841965772,22.111445534624234 L-28.79221930288506,22.14154103864243 L-28.67786418849364,22.16876563233925 L-28.563091959728354,22.193102916637457 L-28.447971751088204,22.21453823166701 L-28.33257290668225,22.233058665595657 L-28.21696493845932,22.248653062406518 L-28.101217484336612,22.261312028618075 L-27.985400266252462,22.271027938942424 " />
			<path d="M-27.98540026625242,-26.68467334660124 L28.646101115708632,-22.65482319178232 " />
			<path d="M-27.98540026625242,22.271027938942428 L12.208851808575481,25.13121721512098 " />
			<path d="M15.42005163940302,25.359723502604588 L28.646101115708632,26.300878093761348 " />
			<path d="M33.36539289753872,-17.423432216993046 L33.363971535086876,-17.54367666522815 L33.359708303906935,-17.66405096862449 L33.352605772009944,-17.784482618202787 L33.34266821769555,-17.904899070440557 L33.32990162697487,-18.02522779096964 L33.31431368996479,-18.145396298268167 L33.29591379625568,-18.26533220732073 L33.27471302925551,-18.384963273220407 L33.25072415951357,-18.5042174346864 L33.22396163702798,-18.62302285747104 L33.19444158254158,-18.741307977630058 L33.162181777831364,-18.859001544630036 L33.12720165499742,-18.976032664267066 L33.08952228475775,-19.09233084137075 L33.049166363756065,-19.207826022267867 L33.00615820089017,-19.32244863698009 L32.96052370266919,-19.436129641130336 L32.912290357608484,-19.548800557532502 L32.861487219671545,-19.660393517439594 L32.80814489076902,-19.770841301425286 L32.75229550232524,-19.880077379874418 L32.693972695923456,-19.988035953057935 L32.63321160304142,-20.094651990768174 L32.57004882388948,-20.199861271490654 L32.504522405363986,-20.303600421088696 L32.43667181812927,-20.40580695097764 L32.36653793284198,-20.506419295765628 L32.29416299553214,-20.605376850338295 L32.21959060215572,-20.70262000636503 L32.14286567233404,-20.7980901882048 L32.0640344222959,-20.89172988818992 L31.983144337038627,-20.98348270126654 L31.90024414172491,-21.07329335897091 L31.815383772332567,-21.16110776272108 L31.728614345574982,-21.24687301640381 L31.63998812811032,-21.33053745823726 L31.549558505058034,-21.41205069189008 L31.45737994784167,-21.491363616838296 L31.36350798137731,-21.568428457941618 L31.267999150627464,-21.64319879422141 L31.170910986540463,-21.71562958682293 L31.072301971395994,-21.78567720614509 L30.972231503577554,-21.85329945812125 L30.87075986179308,-21.91845560963538 L30.76794816876531,-21.981106413058157 L30.663858354413755,-22.04121412988826 L30.558553118550403,-22.09874255348464 L30.452095893111725,-22.15365703087606 L30.344550803949637,-22.20592448363471 L30.235982632204475,-22.255513427801468 L30.126456775283277,-22.302393992850607 L30.01603920746681,-22.346537939682722 L29.904796440169154,-22.387918677634893 L29.792795481873696,-22.4265112804979 L29.68010379776972,-22.462292501530847 L29.566789269113926,-22.495240787464134 L29.452920152341267,-22.525336291482326 L29.338565037949845,-22.552560885179147 L29.223792809184562,-22.576898169477353 L29.10867260054441,-22.598333484506906 L28.993273756138453,-22.616853918435552 L28.877665787915525,-22.632448315246418 L28.76191833379282,-22.645107281457975 L28.646101115708646,-22.65482319178232 " />
			<path d="M33.36539289753872,21.741128811441886 L33.36304414182068,21.89539632356856 L33.35600021258237,22.049176009179195 L33.344268121244085,22.202314798307963 L33.32785954575153,22.35466025892767 L33.30679081895179,22.506060748678273 L33.28108291233586,22.656365565809406 L33.250761415163936,22.805425099186593 L33.21585650899424,22.95309097721193 L33.17640293764079,23.099216215510886 L33.132439972589886,23.243655363238354 L33.08401137390992,23.386264647858187 L33.03116534669323,23.526902118252217 L32.9739544930735,23.665427786016238 L32.9124357598664,23.801703764802344 L32.84667038188555,23.9355944075689 L32.776723820990384,24.066966441601558 L32.70266570092634,24.19568910117089 L32.624569738022494,24.321634257694594 L32.54251366781539,24.444676547274785 L32.45657916767233,24.56469349548327 L32.366851775490915,24.681565639270765 L32.27342080455591,24.79517664587859 L32.17637925463822,24.905413428634535 L32.075823719424264,25.012166259517606 L31.971854290368114,25.11532887837966 L31.86457445706197,25.214798598715117 L31.7540910042242,25.31047640987356 L31.640513905407445,25.402267075613437 L31.523956213532614,25.490079228898765 L31.404533948357734,25.573825462844493 L31.28236598099362,25.65342241772 L31.157573915581406,25.728790863924075 " />
			<path d="M31.157573915581388,25.728790863924086 L31.015924226999857,25.807517837957235 L30.871359729155866,25.88083022975795 L30.724058231918562,25.94863786734772 L30.57420091158186,26.010857349425756 L30.421972088023168,26.06741214795003 L30.267558997995646,26.11823270226439 L30.11115156483278,26.163256504656033 L29.952942164848537,26.20242817723806 L29.793125390720434,26.235699540062548 L29.631897812146573,26.263029670380426 L29.469457734070957,26.284384952975174 L29.30600495277455,26.29973912150851 L29.141740510132006,26.309073290827175 L28.97686644633638,26.312375980191085 L28.81158555139592,26.309643127394285 L28.64610111570865,26.300878093761344 " />
			<path d="M33.36539289753871,-17.42343221699305 L33.36539289753871,21.741128811441886 " />
			<path d="M12.208851808575481,20.235647086566612 L-4.388941357101983,19.05456204156261 " />
			<path d="M-4.388941357101981,9.263421784453877 L-4.38894135710198,19.054562041562612 " />
			<path d="M-33.36539289753872,-21.741128811441886 L-33.36304414182068,-21.895396323568562 L-33.35600021258237,-22.0491760091792 L-33.344268121244085,-22.202314798307967 L-33.32785954575153,-22.35466025892767 L-33.3067908189518,-22.506060748678273 L-33.28108291233586,-22.656365565809402 L-33.250761415163936,-22.805425099186593 L-33.21585650899424,-22.95309097721193 L-33.17640293764079,-23.099216215510886 L-33.132439972589886,-23.24365536323835 L-33.08401137390992,-23.386264647858184 L-33.03116534669323,-23.526902118252217 L-32.9739544930735,-23.66542778601624 L-32.91243575986639,-23.801703764802348 L-32.846670381885545,-23.935594407568903 L-32.776723820990384,-24.06696644160156 L-32.70266570092634,-24.195689101170885 L-32.624569738022494,-24.321634257694594 L-32.54251366781539,-24.444676547274785 L-32.45657916767233,-24.56469349548327 L-32.366851775490915,-24.681565639270765 L-32.27342080455591,-24.79517664587859 L-32.17637925463823,-24.90541342863453 L-32.075823719424264,-25.012166259517606 L-31.97185429036811,-25.115328878379664 L-31.864574457061966,-25.21479859871512 L-31.754091004224197,-25.310476409873562 L-31.640513905407442,-25.402267075613437 L-31.523956213532617,-25.490079228898765 L-31.404533948357738,-25.573825462844493 L-31.28236598099362,-25.653422417719998 L-31.157573915581423,-25.728790863924065 " />
			<path d="M-33.36539289753871,17.423432216993042 L-33.363971535086876,17.54367666522815 L-33.35970830390693,17.664050968624494 L-33.352605772009944,17.784482618202787 L-33.34266821769555,17.90489907044056 L-33.32990162697487,18.02522779096964 L-33.314313689964784,18.145396298268167 L-33.29591379625568,18.26533220732073 L-33.27471302925551,18.384963273220407 L-33.25072415951357,18.5042174346864 L-33.22396163702798,18.623022857471035 L-33.19444158254158,18.741307977630054 L-33.162181777831364,18.859001544630036 L-33.12720165499742,18.976032664267063 L-33.08952228475775,19.092330841370746 L-33.049166363756065,19.207826022267863 L-33.00615820089017,19.322448636980088 L-32.96052370266919,19.43612964113033 L-32.912290357608484,19.5488005575325 L-32.861487219671545,19.660393517439587 L-32.80814489076902,19.770841301425282 L-32.75229550232524,19.880077379874415 L-32.69397269592346,19.988035953057928 L-32.633211603041424,20.094651990768174 L-32.57004882388948,20.199861271490654 L-32.504522405363986,20.303600421088696 L-32.43667181812927,20.40580695097764 L-32.36653793284198,20.506419295765628 L-32.29416299553215,20.605376850338295 L-32.21959060215572,20.70262000636503 L-32.14286567233404,20.798090188204796 L-32.064034422295904,20.891729888189918 L-31.98314433703863,20.983482701266535 L-31.90024414172491,21.073293358970908 L-31.815383772332567,21.161107762721077 L-31.728614345574982,21.246873016403807 L-31.639988128110325,21.33053745823726 L-31.549558505058037,21.412050691890077 L-31.457379947841673,21.491363616838292 L-31.36350798137731,21.568428457941618 L-31.267999150627464,21.643198794221405 L-31.170910986540466,21.71562958682293 L-31.072301971395994,21.78567720614509 L-30.972231503577554,21.85329945812125 L-30.87075986179308,21.91845560963538 L-30.76794816876531,21.981106413058157 L-30.663858354413755,22.04121412988826 L-30.558553118550403,22.09874255348464 L-30.45209589311173,22.15365703087606 L-30.344550803949637,22.205924483634714 L-30.235982632204475,22.255513427801468 L-30.126456775283277,22.302393992850607 L-30.016039207466815,22.346537939682722 L-29.90479644016916,22.387918677634893 L-29.7927954818737,22.4265112804979 L-29.68010379776973,22.462292501530847 L-29.566789269113933,22.49524078746413 L-29.45292015234127,22.525336291482326 L-29.338565037949852,22.552560885179147 L-29.223792809184566,22.576898169477353 L-29.108672600544416,22.598333484506906 L-28.99327375613846,22.616853918435552 L-28.877665787915532,22.632448315246414 L-28.761918333792824,22.64510728145797 L-28.646101115708674,22.65482319178232 " />
			<path d="M-28.646101115708625,22.654823191782324 L12.208851808575481,25.562027386433762 " />
			<path d="M15.42005163940302,25.790533673917373 L27.985400266252427,26.684673346601244 " />
			<path d="M30.496873066125175,26.112586116763982 L30.355223377543645,26.19131309079713 L30.210658879699654,26.264625482597847 L30.06335738246235,26.332433120187616 L29.913500062125646,26.39465260226565 L29.761271238566955,26.451207400789926 L29.606858148539434,26.502027955104285 L29.45045071537657,26.54705175749593 L29.292241315392324,26.586223430077954 L29.13242454126422,26.619494792902444 L28.97119696269036,26.646824923220322 L28.808756884614745,26.66818020581507 L28.645304103318338,26.683534374348405 L28.481039660675794,26.69286854366707 L28.316165596880168,26.69617123303098 L28.150884701939706,26.69343838023418 L27.985400266252437,26.68467334660124 " />
			<path d="M-4.388941357101982,19.05456204156261 L-3.61291547552728,19.053044286778253 L-2.838190648909956,19.04378669371071 L-2.0666332572152046,19.026811564712553 L-1.300102049780068,19.00215979435638 L-0.5404436674234647,18.969890770916223 L0.21051180627329913,18.930082233295977 L0.5821596646001526,18.907379912637417 L0.9509552537981536,18.88283008374959 L1.3166764251945278,18.85644753453144 L1.6791028820308211,18.82824815684411 L2.038016312161435,18.798248936938286 L2.3932005195566974,18.76646794522228 L2.7444415545312646,18.732924325377144 L3.0915278426194126,18.697638282825192 L3.434250312019599,18.660631072559028 L3.7724025195314637,18.62192498633833 L4.105780774909531,18.581543339262122 L4.4341842635585795,18.53951045572463 L4.757415167496841,18.4958516547632 L5.075278784514172,18.45059323480701 L5.387583645453359,18.403762457835928 L5.69414162954401,18.35538753295888 L5.994768077719446,18.305497599421763 L6.289281903848433,18.254122709055032 L6.577505703814696,18.20129380817161 L6.859265862378519,18.147042718925995 L7.134392657756068,18.091402120145766 L7.4027203638534615,18.034405527647095 L7.664087350093965,17.97608727404606 L7.91833617877821,17.916482488077975 L8.165313699918775,17.855627073437134 L8.404871143492008,17.79355768714979 L8.636864209051529,17.730311717493322 L8.861153152649425,17.665927261474927 L9.07760287101278,17.60044310188342 L9.286082982924823,17.533898683927934 L9.486467907761714,17.46633409147758 L9.67863694113761,17.397790022916457 L9.862474327612464,17.328307766628434 L10.037869330418784,17.25792917612659 L10.204716298165323,17.186696644842222 L10.36291472847752,17.114653080588614 L10.512369328536378,17.04184187971499 L10.652990072479286,16.968306900966176 L10.784692255628245,16.89409243906372 L10.907396545512785,16.819243198024406 L11.021029029656889,16.74380426423225 L11.1255212601011,16.667821079280124 L11.220810294633013,16.591339412597446 L11.306838734701318,16.514405333880397 L11.383554759990522,16.43706518534124 L11.45091215963559,16.359365553793527 L11.508870360057637,16.28135324258992 L11.534313628846466,16.242244510439164 L11.557394449403917,16.203075243429623 L11.578109345843313,16.16385134030883 L11.596455198577445,16.124578708052326 L11.612429244788371,16.085263260974063 L11.626029078843493,16.045910919835766 L11.637252652657823,16.006527610955253 L11.646098276002427,15.967119265313986 L11.65256461675897,15.927691817663856 L11.656650701120315,15.888251205633473 " />
			<path d="M11.656650701120316,15.888251205633459 L12.208851808575481,16.767692104133236 " />
			<path d="M11.656650701120315,6.097110948524727 L11.656650701120316,15.888251205633459 " />
			<path d="M-4.3889413571019835,9.263421784453879 L-3.6129154755272817,9.261904029669523 L-2.8381906489099578,9.252646436601982 L-2.0666332572152064,9.235671307603821 L-1.3001020497800697,9.21101953724765 L-0.5404436674234665,9.17875051380749 L0.21051180627329735,9.138941976187246 L0.5821596646001508,9.116239655528684 L0.9509552537981518,9.091689826640858 L1.316676425194526,9.06530727742271 L1.6791028820308194,9.037107899735382 L2.0380163121614334,9.007108679829553 L2.3932005195566957,8.975327688113548 L2.744441554531263,8.941784068268412 L3.091527842619411,8.906498025716461 L3.4342503120195973,8.869490815450296 L3.772402519531462,8.830784729229599 L4.10578077490953,8.79040308215339 L4.434184263558578,8.748370198615902 L4.7574151674968395,8.704711397654467 L5.07527878451417,8.65945297769828 L5.387583645453358,8.612622200727195 L5.694141629544008,8.56424727585015 L5.994768077719444,8.514357342313032 L6.2892819038484316,8.4629824519463 L6.577505703814694,8.41015355106288 L6.859265862378518,8.355902461817262 L7.134392657756067,8.300261863037033 L7.40272036385346,8.243265270538362 L7.664087350093963,8.184947016937329 L7.918336178778208,8.125342230969242 L8.165313699918773,8.064486816328403 L8.404871143492006,8.00241743004106 L8.636864209051527,7.93917146038459 L8.861153152649424,7.874787004366194 L9.077602871012779,7.809302844774689 L9.286082982924821,7.742758426819201 L9.486467907761712,7.675193834368851 L9.678636941137608,7.606649765807727 L9.862474327612462,7.537167509519703 L10.037869330418783,7.46678891901786 L10.204716298165321,7.395556387733489 L10.362914728477518,7.323512823479882 L10.512369328536376,7.250701622606261 L10.652990072479284,7.177166643857446 L10.784692255628244,7.102952181954987 L10.907396545512784,7.028102940915674 L11.021029029656887,6.952664007123517 L11.125521260101099,6.876680822171391 L11.220810294633011,6.800199155488715 L11.306838734701316,6.723265076771665 L11.38355475999052,6.64592492823251 L11.450912159635589,6.568225296684795 L11.508870360057635,6.490212985481189 L11.534313628846464,6.451104253330432 L11.557394449403915,6.411934986320891 L11.57810934584331,6.3727110832001 L11.596455198577443,6.333438450943594 L11.61242924478837,6.294123003865333 L11.62602907884349,6.254770662727034 L11.637252652657821,6.2153873538465225 L11.646098276002425,6.175979008205254 L11.652564616758967,6.136551560555125 L11.656650701120313,6.097110948524743 " />
			<path d="M11.656650701120315,6.097110948524727 L12.20885180857548,6.976551847024504 " />
			<path d="M14.234964397613854,59.159054929526626 L15.420051639403018,58.5883270146186 " />
			<path d="M15.420051639403018,0.7344900570483406 L15.420051639403018,58.588327014618585 " />
			<path d="M12.208851808575481,16.76769210413324 L12.20885180857548,6.976551847024503 " />
			<path d="M12.208851808575485,55.93225313256817 L12.208851808575481,16.76769210413324 " />
			<path d="M12.968643129123114,57.14230424002451 L12.208851808575485,55.93225313256817 " />
			<path d="M13.475170676154864,57.94900497832874 L13.475170676154864,56.89836489061048 " />
			<path d="M14.234961996702491,59.159056085785075 L13.475170676154862,57.94900497832874 " />
			<path d="M12.20885180857548,6.976551847024503 L12.208851808575478,-2.8145884100842338 " />
			<path d="M14.153732771823634,-0.5337263497248677 L14.77575540167819,-0.2916224489841681 " />
			<path d="M14.77575540167819,-0.29162244898417466 L15.420051639403018,0.7344900570483408 " />
			<path d="M13.475173311051446,57.94900419471744 L14.77575540167819,57.56221450858609 " />
			<path d="M15.42005163940302,58.58832701461859 L14.775755401678191,57.562214508586074 " />
			<path d="M14.77575540167819,57.56221450858608 L14.775755401678188,-0.2916224489841639 " />
			<path d="M12.208851808575464,-2.814588410084231 L13.509436534098803,-2.308374294744731 " />
			<path d="M12.208854443472063,55.93225234895687 L13.509436534098807,55.54546266282552 " />
			<path d="M13.509436534098807,55.54546266282552 L13.509436534098805,-2.3083742947447234 " />
			<path d="M12.968645530034474,57.14230308376606 L14.153732771823636,56.57157516885803 " />
			<path d="M14.153732771823636,56.57157516885804 L13.509436534098807,55.54546266282552 " />
			<path d="M14.153732771823634,-1.2822617887122225 L14.153732771823634,56.57157516885803 " />
			<path d="M13.509436534098807,-2.3083742947447368 L14.153732771823636,-1.2822617887122216 " />
			<path d="M-33.36539289753871,-21.741128811441886 L-32.7046920480825,-22.12492406428178 " />
			<path d="M-33.36539289753871,17.423432216993046 L-32.7046920480825,17.03963696415315 " />
			<path d="M-28.64610111570863,22.654823191782324 L-27.985400266252416,22.271027938942428 " />
			<path d="M27.985400266252416,26.68467334660124 L28.64610111570863,26.300878093761344 " />
			<path d="M-31.157573915581384,-25.728790863924083 L-30.496873066125172,-26.11258611676398 " />
			<path d="M30.496873066125172,26.11258611676398 L31.157573915581384,25.728790863924083 " />

       </g>
    </g>
    <g transform="translate(20,210.0)" stroke="rgb(0,0,255)">
        <line x1="30" y1="-30" x2="75" y2="-33" stroke-width="3" stroke="#000000" />
         <text x="80" y="-30" style="stroke:#000000">X </text>

        <line x1="30" y1="-30" x2="30" y2="-75" stroke-width="3" stroke="#000000" />
         <text x="25" y="-85" style="stroke:#000000">Y </text>

        <line x1="30" y1="-30" x2="58" y2="-15" stroke-width="3" stroke="#000000" />
         <text x="65" y="-5" style="stroke:#000000">Z </text>
        <!--
            <line x1="0" y1="0" x2="2.0965524350413296" y2="0" stroke-width="3" />
            <text x="0" y="20" style="stroke:#000000">1  mm </text>
        -->
    </g>
</svg>
