<?xml version="1.0" encoding="UTF-8" standalone="no"?>
<svg
   xmlns:svg="http://www.w3.org/2000/svg"
   xmlns="http://www.w3.org/2000/svg"
   width="800.0"
   height="240.0"

>
    <g transform="scale(1.6222428538111275, -1.6222428538111275)   translate(137.187577117844,-68.03710464745959)" stroke-width="0.6164305163377386"  fill="none">
       <!-- hidden lines -->
       <g  stroke="rgb(160,160,160)" fill="none" stroke-dasharray="0.6164305163377386,0.6164305163377386" >
			<path d="M6.8100076612393785,-47.796681030686685 L5.903786019352354,-47.761834304387094 " />
			<path d="M5.903786019352354,-46.67033306693038 L6.810007661239375,-47.796681030686685 " />
			<path d="M5.195683901994865,-45.79022897191411 L4.289462260107838,-45.75538224561451 " />
			<path d="M4.289462260107836,-44.66388100815781 L5.1956839019948635,-45.79022897191412 " />
			<path d="M-6.10458241271674,-31.74506456050609 L-7.0108040546037795,-31.710217834206496 " />
			<path d="M-7.010804054603789,-30.618716596749756 L-6.104582412716739,-31.745064560506094 " />
			<path d="M-7.718906171961251,-29.738612501733513 L-8.625127813848312,-29.70376577543392 " />
			<path d="M-8.625127813848305,-28.612264537977182 L-7.718906171961254,-29.73861250173352 " />
			<path d="M-13.901473850296282,-23.145765679726964 L1.8886665711460413,-22.62062773616506 " />
			<path d="M2.211531322994947,-23.021918147919575 L1.8886665711460437,-22.62062773616506 " />
			<path d="M-11.604841545767092,-23.481413848536235 L2.211531322994949,-23.021918147919575 " />
			<path d="M13.901473850296282,-55.1833563771429 L-11.604841545767092,-23.481413848536235 " />
			<path d="M-11.604841545767092,-23.481413848536235 L-11.604841545767092,54.84770820833363 " />
			<path d="M6.810007661239386,-47.796681030686685 L6.810007661239386,-9.611234027962624 " />
			<path d="M6.810007661239376,-9.611234027962622 L5.903786019352356,-9.885239881466154 " />
			<path d="M5.841413405692678,-8.407362792699077 L5.841413405692678,-9.807716609958907 " />
			<path d="M6.810007661239386,-9.61123402796262 L5.841413405692676,-8.407362792699077 " />
			<path d="M5.8414110497919935,-8.40736396596559 L5.037036501923487,-8.80795204268767 " />
			<path d="M5.195683901994872,-45.79022897191412 L5.195683901994872,-7.604781969190057 " />
			<path d="M5.195683901994865,-7.604781969190052 L4.289462260107843,-7.878787822693585 " />
			<path d="M4.227089646448163,-6.400910733926505 L4.227089646448163,-7.80126455118635 " />
			<path d="M5.195683901994872,-7.604781969190049 L4.227089646448163,-6.400910733926505 " />
			<path d="M4.227087290547479,-6.400911907193017 L3.422712742678971,-6.801499983915098 " />
			<path d="M-6.104582412716742,-31.74506456050609 L-6.104582412716742,6.440382442217967 " />
			<path d="M-6.1045824127167405,6.440382442217968 L-7.010804054603787,6.166376588714427 " />
			<path d="M-7.073176668263449,7.64425367748151 L-7.073176668263449,6.243899860221651 " />
			<path d="M-6.104582412716742,6.440382442217967 L-7.073176668263452,7.64425367748151 " />
			<path d="M-7.073179024164124,7.644252504214998 L-7.877553572032648,7.2436644274929085 " />
			<path d="M-7.718906171961258,-29.738612501733524 L-7.718906171961258,8.446834500990533 " />
			<path d="M-7.718906171961254,8.44683450099054 L-8.625127813848302,8.172828647487 " />
			<path d="M-8.687500427507967,9.650705736254082 L-8.687500427507967,8.250351918994228 " />
			<path d="M-7.718906171961258,8.44683450099054 L-8.687500427507967,9.650705736254084 " />
			<path d="M-8.687502783408641,9.65070456298757 L-9.491877331277166,9.250116486265481 " />
			<path d="M1.888666571146043,-22.620627736165055 L1.888666571146043,55.70849432070481 " />
			<path d="M2.211531322994947,-23.021918147919575 L2.211531322994947,37.675260842341444 " />
			<path d="M7.940034292710568,-19.495126663776094 L7.202131820700951,-18.436210929023954 " />
			<path d="M7.940034292710568,-2.5363742744307665 L7.202131820700951,-3.9440062380338787 " />
			<path d="M7.940034292710562,-2.5363742744307656 L7.940034292710562,-7.445080710778418 " />
			<path d="M7.940034292710562,-16.76942270234187 L7.940034292710562,-19.495126663776094 " />
			<path d="M10.36151993157734,-14.02542855726229 L7.940034292710564,-2.5363742744307665 " />
			<path d="M10.361519931577343,-14.025428557262291 L9.271427057112199,-13.762047244240128 " />
			<path d="M7.940034292710564,-19.49512666377609 L10.361519931577341,-14.025428557262288 " />

       </g>

       <!-- solid lines -->
       <g  stroke="rgb(0,0,0)" fill="none">
			<path d="M11.927706297615988,-55.24899862008814 L13.901473850296279,-55.1833563771429 " />
			<path d="M13.901473850296282,-55.1833563771429 L13.901473850296282,23.145765679726964 " />
			<path d="M11.927706297615988,23.080123436781726 L13.901473850296279,23.145765679726964 " />
			<path d="M11.927706297615988,-55.24899862008814 L11.927706297615988,23.080123436781726 " />
			<path d="M11.927706297615988,-55.24899862008814 L5.903786019352355,-47.76183430438709 " />
			<path d="M5.841413405692666,-46.59280979542314 L5.903786019352354,-46.67033306693038 " />
			<path d="M5.037036501923486,-46.684546465608605 L5.841413405692669,-46.592809795423136 " />
			<path d="M5.037036501923488,-46.684546465608605 L4.289462260107841,-45.75538224561452 " />
			<path d="M4.227089646448153,-44.58635773665057 L4.289462260107836,-44.66388100815781 " />
			<path d="M3.422712742678974,-44.678094406836024 L4.227089646448153,-44.586357736650555 " />
			<path d="M3.4227127426789696,-44.67809440683603 L-7.010804054603785,-31.7102178342065 " />
			<path d="M-7.073176668263447,-30.541193325242553 L-7.010804054603789,-30.618716596749756 " />
			<path d="M-7.877553572032646,-30.632929995428007 L-7.07317666826345,-30.541193325242542 " />
			<path d="M-7.877553572032653,-30.632929995428015 L-8.625127813848302,-29.703765775433922 " />
			<path d="M-8.687500427507963,-28.53474126646998 L-8.625127813848305,-28.612264537977182 " />
			<path d="M-9.49187733127716,-28.62647793665544 L-8.68750042750796,-28.534741266469972 " />
			<path d="M-9.49187733127717,-28.626477936655437 L-13.90147385029628,-23.14576567972697 " />
			<path d="M13.901473850296282,23.145765679726964 L-11.604841545767092,54.84770820833363 " />
			<path d="M11.927706297615988,23.080123436781726 L-13.90147385029628,55.18335637714289 " />
			<path d="M-11.604841545767092,54.84770820833363 L2.211531322994949,55.307203908950285 " />
			<path d="M2.211531322994947,55.307203908950285 L1.8886665711460437,55.7084943207048 " />
			<path d="M1.888666571146043,55.70849432070481 L-13.90147385029628,55.1833563771429 " />
			<path d="M-13.901473850296282,-23.145765679726964 L-13.901473850296282,55.1833563771429 " />
			<path d="M-9.49187733127717,9.250116486265485 L-9.49187733127717,-28.62647793665544 " />
			<path d="M5.903786019352354,-47.761834304387094 L5.903786019352354,-9.885239881466156 " />
			<path d="M-8.625127813848298,8.172828647487005 L-9.491877331277163,9.25011648626549 " />
			<path d="M5.903786019352358,-9.885239881466143 L5.037036501923492,-8.807952042687658 " />
			<path d="M-8.625127813848305,-29.703765775433922 L-8.625127813848305,8.172828647487002 " />
			<path d="M5.037036501923488,-8.807952042687667 L5.037036501923488,-46.684546465608605 " />
			<path d="M-7.877553572032653,7.243664427492913 L-7.877553572032653,-30.632929995428015 " />
			<path d="M4.289462260107836,-45.75538224561452 L4.289462260107836,-7.878787822693589 " />
			<path d="M-7.010804054603781,6.166376588714435 L-7.877553572032648,7.243664427492918 " />
			<path d="M4.289462260107841,-7.878787822693582 L3.4227127426789723,-6.801499983915094 " />
			<path d="M-7.010804054603789,-31.710217834206496 L-7.010804054603789,6.166376588714428 " />
			<path d="M3.4227127426789696,-6.801499983915097 L3.4227127426789696,-44.67809440683603 " />
			<path d="M7.202131820700949,-3.944006238033875 L7.202131820700949,-18.43621092902395 " />
			<path d="M9.2714270571122,-13.762047244240117 L7.20213182070095,-3.9440062380338645 " />
			<path d="M7.202131820700948,-18.436210929023943 L9.271427057112197,-13.76204724424011 " />
			<path d="M5.841413405692678,-9.807716609958907 L5.841413405692678,-46.592809795423136 " />
			<path d="M4.227089646448163,-7.80126455118635 L4.227089646448163,-44.58635773665057 " />
			<path d="M-7.073176668263449,6.243899860221651 L-7.073176668263449,-30.541193325242553 " />
			<path d="M-8.687500427507967,8.250351918994228 L-8.687500427507967,-28.53474126646998 " />
			<path d="M2.211531322994947,37.675260842341444 L2.211531322994947,55.307203908950285 " />
			<path d="M7.940034292710562,-7.445080710778418 L7.940034292710562,-16.76942270234187 " />

       </g>
    </g>
    <g transform="translate(20,210.0)" stroke="rgb(0,0,255)">
        <line x1="30" y1="-30" x2="75" y2="-33" stroke-width="3" stroke="#000000" />
         <text x="80" y="-30" style="stroke:#000000">X </text>

        <line x1="30" y1="-30" x2="30" y2="-75" stroke-width="3" stroke="#000000" />
         <text x="25" y="-85" style="stroke:#000000">Y </text>

        <line x1="30" y1="-30" x2="58" y2="-15" stroke-width="3" stroke="#000000" />
         <text x="65" y="-5" style="stroke:#000000">Z </text>
        <!--
            <line x1="0" y1="0" x2="1.6222428538111275" y2="0" stroke-width="3" />
            <text x="0" y="20" style="stroke:#000000">1  mm </text>
        -->
    </g>
</svg>
