<?xml version="1.0" encoding="UTF-8" standalone="no"?>
<svg
   xmlns:svg="http://www.w3.org/2000/svg"
   xmlns="http://www.w3.org/2000/svg"
   width="800.0"
   height="240.0"

>
    <g transform="scale(4.349423178548998, -4.349423178548998)   translate(63.77483899304906,-25.290709936552293)" stroke-width="0.22991554487774812"  fill="none">
       <!-- hidden lines -->
       <g  stroke="rgb(160,160,160)" fill="none" stroke-dasharray="0.22991554487774812,0.22991554487774812" >
			<path d="M-15.5839110355421,-19.72501194279452 L-15.44226134696057,-19.80373891682767 L-15.297696849116578,-19.877051308628385 L-15.150395351879276,-19.944858946218154 L-15.00053803154257,-20.00707842829619 L-14.848309207983878,-20.063633226820464 L-14.69389611795636,-20.114453781134824 L-14.537488684793495,-20.15947758352647 L-14.37927928480925,-20.198649256108496 L-14.219462510681149,-20.231920618932982 L-14.058234932107288,-20.25925074925086 L-13.895794854031672,-20.280606031845608 L-13.732342072735264,-20.295960200378943 L-13.56807763009272,-20.30529436969761 L-13.403203566297092,-20.30859705906152 L-13.237922671356632,-20.30586420626472 L-13.072438235669345,-20.29709917263178 " />
			<path d="M-13.072438235669342,-20.297099172631775 L12.41173738621313,-18.48366660296326 " />
			<path d="M12.41173738621313,-18.48366660296326 L12.527554604297325,-18.473950692638915 L12.64330205842003,-18.461291726427355 L12.758910026642956,-18.445697329616493 L12.874308871048912,-18.427176895687847 L12.989429079689064,-18.405741580658294 L13.104201308454348,-18.38140429636009 L13.218556422845769,-18.354179702663266 L13.33242553961843,-18.324084198645075 L13.445740068274226,-18.291135912711788 L13.5584317523782,-18.25535469167884 L13.67043271067366,-18.216762088815834 L13.781675477971314,-18.175381350863663 L13.892093045787778,-18.13123740403155 L14.001618902708978,-18.08435683898241 L14.110187074454139,-18.034767894815655 L14.217732163616228,-17.982500442057002 L14.324189389054906,-17.92758596466558 L14.429494624918256,-17.8700575410692 L14.533584439269813,-17.809949824239098 L14.636396132297582,-17.74729902081632 L14.737867774082059,-17.68214286930219 L14.837938241900497,-17.61452061732603 L14.936547257044964,-17.544472998003872 L15.033635421131965,-17.472042205402346 L15.129144251881815,-17.39727186912256 L15.22301621834617,-17.320207028019237 L15.315194775562535,-17.24089410307102 L15.405624398614822,-17.1593808694182 L15.494250616079484,-17.07571642758475 L15.581020042837068,-16.989951173902018 L15.665880412229413,-16.902136770151852 L15.748780607543129,-16.812326112447476 L15.829670692800402,-16.720573299370862 L15.908501942838544,-16.626933599385737 L15.985226872660224,-16.531463417545968 L16.059799266036645,-16.434220261519236 L16.13217420334648,-16.335262706946565 L16.202308088633767,-16.234650362158582 L16.270158675868487,-16.13244383226964 L16.33568509439398,-16.028704682671595 L16.39884787354592,-15.923495401949115 L16.459608966427957,-15.816879364238874 L16.51793177282974,-15.70892079105536 L16.573781161273523,-15.599684712606228 L16.627123490176047,-15.489236928620535 L16.677926628112985,-15.377643968713443 L16.726159973173694,-15.264973052311273 L16.77179447139467,-15.15129204816103 L16.814802634260566,-15.036669433448807 L16.855158555262253,-14.921174252551689 L16.892837925501922,-14.804876075448005 L16.92781804833587,-14.687844955810977 L16.960077853046084,-14.570151388810997 L16.989597907532485,-14.45186626865198 L17.016360430018068,-14.333060845867342 L17.040349299760013,-14.21380668440135 L17.061550066760184,-14.09417561850167 L17.07994996046929,-13.974239709449106 L17.09553789747937,-13.85407120215058 L17.10830448820005,-13.7337424816215 L17.118242042514446,-13.613326029383726 L17.125344574411432,-13.492894379805431 L17.129607805591373,-13.372520076409092 L17.131029168043217,-13.252275628174008 " />
			<path d="M14.923210186085887,20.108807195634416 L15.048002251498122,20.03343874943033 L15.170170218862237,19.953841794554823 L15.289592484037119,19.870095560609094 L15.406150175911945,19.782283407323767 L15.519727274728698,19.69049274158389 L15.63021072756647,19.594814930425446 L15.737490560872615,19.49534521008999 L15.841459989928769,19.392182591227936 L15.942015525142725,19.285429760344865 L16.039057075060413,19.17519297758892 L16.132488045995412,19.061581970981095 L16.222215438176832,18.9447098271936 L16.308149938319893,18.824692878985115 L16.39020600852699,18.701650589404924 L16.468301971430844,18.575705432881215 L16.542360091494885,18.44698277331189 L16.61230665239005,18.315610739279233 L16.678072030370892,18.181720096512674 L16.739590763578,18.045444117726568 L16.79680161719773,17.906918449962546 L16.849647644414418,17.766280979568517 L16.898076243094387,17.623671694948683 L16.94203920814529,17.47923254722122 L16.981492779498744,17.333107308922262 L17.016397685668437,17.185441430896926 L17.046719182840366,17.036381897519735 L17.072427089456294,16.886077080388603 L17.09349581625603,16.734676590638 L17.109904391748586,16.582331130018297 L17.121636483086874,16.429192340889525 L17.12868041232518,16.275412655278892 L17.131029168043217,16.121145143152226 " />
			<path d="M17.131029168043217,-13.252275628173985 L17.131029168043217,16.12114514315222 " />
			<path d="M17.79173001749943,-6.782272701037767 L17.79173001749943,-0.9075885467725264 " />
			<path d="M17.79173001749943,3.0088675560709675 L17.79173001749943,8.883551710336206 " />

       </g>

       <!-- solid lines -->
       <g  stroke="rgb(0,0,0)" fill="none">
			<path d="M-17.131029168043217,-16.121145143152212 L-17.131029168043217,13.25227562817399 " />
			<path d="M-17.79173001749943,-15.737349890312318 L-17.79173001749943,13.636070881013886 " />
			<path d="M-12.41173738621313,18.48366660296326 L13.072438235669342,20.297099172631775 " />
			<path d="M-17.131029168043217,13.252275628173985 L-17.129607805591373,13.37252007640909 L-17.125344574411432,13.492894379805435 L-17.118242042514446,13.61332602938373 L-17.108304488200048,13.733742481621501 L-17.09553789747937,13.854071202150582 L-17.07994996046929,13.974239709449106 L-17.061550066760184,14.09417561850167 L-17.040349299760013,14.21380668440135 L-17.016360430018068,14.33306084586734 L-16.989597907532485,14.451866268651978 L-16.960077853046084,14.570151388810995 L-16.92781804833587,14.687844955810975 L-16.892837925501922,14.804876075448004 L-16.855158555262253,14.921174252551687 L-16.814802634260566,15.036669433448804 L-16.77179447139467,15.151292048161029 L-16.726159973173697,15.264973052311271 L-16.67792662811299,15.37764396871344 L-16.62712349017605,15.48923692862053 L-16.573781161273523,15.599684712606223 L-16.517931772829744,15.708920791055355 L-16.45960896642796,15.816879364238869 L-16.39884787354592,15.923495401949113 L-16.335685094393984,16.028704682671595 L-16.270158675868487,16.132443832269637 L-16.202308088633767,16.234650362158582 L-16.13217420334648,16.33526270694657 L-16.059799266036645,16.434220261519236 L-15.985226872660222,16.53146341754597 L-15.908501942838544,16.626933599385737 L-15.829670692800402,16.72057329937086 L-15.748780607543132,16.812326112447476 L-15.665880412229413,16.90213677015185 L-15.58102004283707,16.989951173902018 L-15.494250616079485,17.075716427584748 L-15.405624398614824,17.1593808694182 L-15.315194775562539,17.240894103071017 L-15.223016218346174,17.320207028019233 L-15.129144251881813,17.39727186912256 L-15.033635421131965,17.472042205402346 L-14.936547257044968,17.544472998003872 L-14.837938241900495,17.61452061732603 L-14.737867774082055,17.68214286930219 L-14.63639613229758,17.74729902081632 L-14.533584439269813,17.809949824239098 L-14.429494624918256,17.8700575410692 L-14.324189389054904,17.92758596466558 L-14.217732163616228,17.982500442057002 L-14.110187074454139,18.034767894815655 L-14.001618902708978,18.08435683898241 L-13.892093045787778,18.13123740403155 L-13.781675477971316,18.175381350863663 L-13.670432710673662,18.216762088815834 L-13.558431752378201,18.25535469167884 L-13.44574006827423,18.291135912711788 L-13.332425539618432,18.32408419864507 L-13.218556422845772,18.354179702663266 L-13.104201308454353,18.38140429636009 L-12.989429079689067,18.405741580658294 L-12.874308871048918,18.427176895687847 L-12.758910026642962,18.445697329616493 L-12.643302058420035,18.461291726427355 L-12.527554604297325,18.473950692638912 L-12.411737386213174,18.48366660296326 " />
			<path d="M13.072438235669338,20.29709917263178 L13.237922671356635,20.30586420626472 L13.403203566297094,20.30859705906152 L13.568077630092722,20.30529436969761 L13.732342072735266,20.295960200378943 L13.895794854031674,20.280606031845608 L14.058234932107288,20.259250749250857 L14.21946251068115,20.231920618932982 L14.37927928480925,20.198649256108492 L14.537488684793495,20.15947758352647 L14.69389611795636,20.114453781134824 L14.848309207983878,20.063633226820464 L15.00053803154257,20.00707842829619 L15.150395351879276,19.944858946218154 L15.297696849116578,19.877051308628385 L15.44226134696057,19.80373891682767 L15.583911035542064,19.72501194279454 " />
			<path d="M15.5839110355421,19.72501194279452 L15.708703100954335,19.649643496590436 L15.83087106831845,19.570046541714927 L15.950293333493331,19.4863003077692 L16.06685102536816,19.39848815448387 L16.18042812418491,19.306697488743993 L16.290911577022683,19.21101967758555 L16.398191410328828,19.111549957250094 L16.50216083938498,19.00838733838804 L16.602716374598938,18.90163450750497 L16.699757924516625,18.791397724749025 L16.793188895451625,18.6777867181412 L16.882916287633044,18.560914574353703 L16.968850787776105,18.44089762614522 L17.050906857983204,18.317855336565028 L17.129002820887056,18.19191018004132 L17.203060940951097,18.063187520471995 L17.273007501846262,17.931815486439337 L17.338772879827104,17.797924843672778 L17.400291613034213,17.661648864886672 L17.457502466653942,17.52312319712265 L17.51034849387063,17.38248572672862 L17.5587770925506,17.239876442108788 L17.6027400576015,17.095437294381323 L17.642193628954956,16.949312056082366 L17.67709853512465,16.80164617805703 L17.70742003229658,16.65258664467984 L17.733127938912506,16.502281827548707 L17.754196665712243,16.350881337798103 L17.770605241204798,16.1985358771784 L17.782337332543086,16.04539708804963 L17.789381261781394,15.891617402438994 L17.79173001749943,15.737349890312332 " />
			<path d="M17.79173001749943,8.883551710336206 L17.79173001749943,15.737349890312323 " />
			<path d="M-17.131029168043217,-16.121145143152216 L-17.12868041232518,-16.275412655278892 L-17.121636483086874,-16.42919234088953 L-17.109904391748586,-16.582331130018297 L-17.09349581625603,-16.734676590638 L-17.072427089456294,-16.886077080388603 L-17.046719182840366,-17.036381897519732 L-17.01639768566844,-17.185441430896923 L-16.981492779498744,-17.33310730892226 L-16.94203920814529,-17.479232547221216 L-16.898076243094387,-17.62367169494868 L-16.849647644414418,-17.766280979568513 L-16.79680161719773,-17.906918449962546 L-16.739590763578,-18.04544411772657 L-16.678072030370892,-18.181720096512677 L-16.61230665239005,-18.315610739279233 L-16.54236009149488,-18.44698277331189 L-16.468301971430844,-18.575705432881215 L-16.39020600852699,-18.701650589404924 L-16.308149938319893,-18.824692878985115 L-16.222215438176836,-18.9447098271936 L-16.132488045995412,-19.061581970981095 L-16.039057075060416,-19.17519297758892 L-15.942015525142727,-19.28542976034486 L-15.841459989928769,-19.392182591227936 L-15.737490560872613,-19.495345210089994 L-15.630210727566467,-19.59481493042545 L-15.519727274728698,-19.690492741583892 L-15.406150175911943,-19.782283407323767 L-15.289592484037117,-19.870095560609094 L-15.170170218862237,-19.953841794554823 L-15.048002251498122,-20.033438749430328 L-14.923210186085925,-20.108807195634395 " />
			<path d="M-14.923210186085887,-20.108807195634416 L-14.781560497504358,-20.187534169667565 L-14.636995999660366,-20.26084656146828 L-14.489694502423063,-20.32865419905805 L-14.339837182086358,-20.390873681136085 L-14.187608358527665,-20.44742847966036 L-14.033195268500148,-20.49824903397472 L-13.876787835337282,-20.543272836366366 L-13.718578435353038,-20.58244450894839 L-13.558761661224937,-20.615715871772878 L-13.397534082651076,-20.643046002090756 L-13.23509400457546,-20.664401284685503 L-13.071641223279052,-20.67975545321884 L-12.907376780636508,-20.689089622537505 L-12.74250271684088,-20.692392311901415 L-12.57722182190042,-20.689659459104615 L-12.411737386213133,-20.680894425471674 " />
			<path d="M17.79173001749943,8.883551710336205 L-9.108233138932071,6.969372886797219 " />
			<path d="M-12.41173738621313,-20.68089442547167 L13.072438235669342,-18.867461855803157 " />
			<path d="M-9.108233138932068,6.969372886797219 L-9.108233138932068,1.0946887325319787 " />
			<path d="M13.072438235669342,-18.867461855803157 L13.188255453753538,-18.85774594547881 L13.304002907876242,-18.84508697926725 L13.419610876099169,-18.82949258245639 L13.535009720505125,-18.810972148527743 L13.650129929145276,-18.78953683349819 L13.76490215791056,-18.765199549199984 L13.879257272301981,-18.737974955503162 L13.993126389074643,-18.70787945148497 L14.106440917730438,-18.674931165551683 L14.219132601834412,-18.639149944518735 L14.331133560129873,-18.60055734165573 L14.442376327427526,-18.55917660370356 L14.55279389524399,-18.515032656871444 L14.66231975216519,-18.468152091822304 L14.770887923910351,-18.41856314765555 L14.87843301307244,-18.3662956948969 L14.984890238511118,-18.311381217505478 L15.090195474374468,-18.253852793909097 L15.194285288726025,-18.193745077078994 L15.297096981753795,-18.131094273656217 L15.39856862353827,-18.065938122142086 L15.49863909135671,-17.998315870165925 L15.597248106501176,-17.928268250843768 L15.694336270588177,-17.85583745824224 L15.789845101338027,-17.781067121962455 L15.883717067802383,-17.704002280859132 L15.975895625018747,-17.624689355910917 L16.066325248071035,-17.543176122258096 L16.154951465535696,-17.459511680424647 L16.24172089229328,-17.373746426741913 L16.326581261685625,-17.285932022991748 L16.40948145699934,-17.19612136528737 L16.490371542256614,-17.104368552210758 L16.569202792294757,-17.010728852225633 L16.645927722116436,-16.915258670385864 L16.720500115492857,-16.818015514359132 L16.792875052802692,-16.71905795978646 L16.86300893808998,-16.61844561499848 L16.9308595253247,-16.516239085109536 L16.996385943850193,-16.41249993551149 L17.059548723002134,-16.30729065478901 L17.12030981588417,-16.200674617078768 L17.178632622285953,-16.09271604389526 L17.234482010729735,-15.983479965446124 L17.28782433963226,-15.873032181460431 L17.338627477569197,-15.761439221553339 L17.386860822629906,-15.648768305151169 L17.432495320850883,-15.535087301000926 L17.47550348371678,-15.420464686288703 L17.515859404718466,-15.304969505391584 L17.553538774958135,-15.188671328287901 L17.58851889779208,-15.071640208650873 L17.620778702502296,-14.953946641650893 L17.650298756988697,-14.835661521491875 L17.67706127947428,-14.716856098707238 L17.701050149216226,-14.597601937241246 L17.722250916216396,-14.477970871341565 L17.7406508099255,-14.358034962289002 L17.756238746935583,-14.237866454990476 L17.769005337656264,-14.117537734461395 L17.778942891970658,-13.997121282223622 L17.786045423867645,-13.876689632645327 L17.790308655047586,-13.756315329248988 L17.79173001749943,-13.636070881013904 " />
			<path d="M-9.108233138932068,1.0946887325319787 L17.79173001749943,3.008867556070965 " />
			<path d="M17.79173001749943,-13.63607088101388 L17.79173001749943,-6.782272701037767 " />
			<path d="M17.79173001749943,-0.9075885467725264 L17.79173001749943,3.0088675560709675 " />
			<path d="M-9.108233138932068,-8.696451524576755 L17.79173001749943,-6.782272701037769 " />
			<path d="M17.79173001749943,-0.9075885467725291 L-9.108233138932071,-2.821767370311515 " />
			<path d="M-9.108233138932068,-2.8217673703115147 L-9.108233138932068,-8.696451524576755 " />
			<path d="M-17.79173001749943,-15.73734989031232 L-17.789381261781394,-15.891617402438998 L-17.782337332543086,-16.045397088049633 L-17.770605241204798,-16.1985358771784 L-17.754196665712243,-16.350881337798103 L-17.733127938912506,-16.502281827548707 L-17.70742003229658,-16.652586644679836 L-17.677098535124653,-16.801646178057027 L-17.642193628954956,-16.949312056082363 L-17.6027400576015,-17.09543729438132 L-17.5587770925506,-17.239876442108784 L-17.51034849387063,-17.382485726728618 L-17.457502466653942,-17.52312319712265 L-17.400291613034213,-17.661648864886676 L-17.338772879827104,-17.79792484367278 L-17.273007501846262,-17.931815486439337 L-17.203060940951094,-18.063187520471995 L-17.129002820887056,-18.19191018004132 L-17.050906857983204,-18.317855336565028 L-16.968850787776105,-18.44089762614522 L-16.882916287633048,-18.560914574353703 L-16.793188895451625,-18.6777867181412 L-16.69975792451663,-18.791397724749025 L-16.60271637459894,-18.901634507504966 L-16.50216083938498,-19.00838733838804 L-16.398191410328824,-19.111549957250098 L-16.29091157702268,-19.211019677585554 L-16.18042812418491,-19.306697488743996 L-16.066851025368155,-19.39848815448387 L-15.95029333349333,-19.4863003077692 L-15.83087106831845,-19.570046541714927 L-15.708703100954335,-19.649643496590432 L-15.583911035542137,-19.7250119427945 " />
			<path d="M-17.79173001749943,13.63607088101388 L-17.790308655047586,13.756315329248986 L-17.786045423867645,13.87668963264533 L-17.778942891970658,13.997121282223626 L-17.76900533765626,14.117537734461397 L-17.756238746935583,14.237866454990478 L-17.7406508099255,14.358034962289002 L-17.722250916216396,14.477970871341565 L-17.701050149216226,14.597601937241246 L-17.67706127947428,14.716856098707236 L-17.650298756988697,14.835661521491874 L-17.620778702502296,14.95394664165089 L-17.58851889779208,15.071640208650871 L-17.553538774958135,15.1886713282879 L-17.515859404718466,15.304969505391583 L-17.47550348371678,15.4204646862887 L-17.432495320850883,15.535087301000924 L-17.38686082262991,15.648768305151167 L-17.3386274775692,15.761439221553335 L-17.287824339632262,15.873032181460426 L-17.234482010729735,15.983479965446119 L-17.178632622285956,16.09271604389525 L-17.120309815884173,16.200674617078764 L-17.059548723002134,16.30729065478901 L-16.996385943850196,16.41249993551149 L-16.9308595253247,16.516239085109532 L-16.86300893808998,16.61844561499848 L-16.792875052802692,16.719057959786465 L-16.720500115492857,16.818015514359132 L-16.645927722116436,16.915258670385867 L-16.569202792294757,17.010728852225633 L-16.490371542256614,17.104368552210754 L-16.409481456999345,17.19612136528737 L-16.326581261685625,17.285932022991744 L-16.24172089229328,17.373746426741913 L-16.154951465535696,17.459511680424644 L-16.06632524807104,17.543176122258096 L-15.975895625018751,17.624689355910913 L-15.883717067802387,17.70400228085913 L-15.789845101338026,17.781067121962455 L-15.694336270588177,17.85583745824224 L-15.59724810650118,17.928268250843768 L-15.498639091356708,17.998315870165925 L-15.398568623538267,18.065938122142086 L-15.297096981753793,18.131094273656217 L-15.194285288726025,18.193745077078994 L-15.090195474374468,18.253852793909097 L-14.984890238511117,18.311381217505478 L-14.87843301307244,18.3662956948969 L-14.770887923910351,18.41856314765555 L-14.66231975216519,18.468152091822304 L-14.55279389524399,18.515032656871444 L-14.442376327427528,18.55917660370356 L-14.331133560129874,18.60055734165573 L-14.219132601834414,18.639149944518735 L-14.106440917730442,18.674931165551683 L-13.993126389074645,18.707879451484967 L-13.879257272301984,18.737974955503162 L-13.764902157910566,18.765199549199984 L-13.65012992914528,18.78953683349819 L-13.53500972050513,18.810972148527743 L-13.419610876099174,18.82949258245639 L-13.304002907876248,18.84508697926725 L-13.188255453753538,18.857745945478808 L-13.072438235669386,18.867461855803157 " />
			<path d="M-13.072438235669342,18.867461855803157 L12.41173738621313,20.68089442547167 " />
			<path d="M12.411737386213126,20.680894425471674 L12.577221821900423,20.689659459104615 L12.742502716840882,20.692392311901415 L12.90737678063651,20.689089622537505 L13.071641223279054,20.67975545321884 L13.235094004575462,20.664401284685503 L13.397534082651076,20.643046002090752 L13.558761661224938,20.615715871772878 L13.718578435353038,20.582444508948388 L13.876787835337282,20.543272836366366 L14.033195268500148,20.49824903397472 L14.187608358527665,20.44742847966036 L14.339837182086358,20.390873681136085 L14.489694502423063,20.32865419905805 L14.636995999660366,20.26084656146828 L14.781560497504358,20.187534169667565 L14.923210186085852,20.108807195634437 " />
			<path d="M-9.108233138932068,6.969372886797219 L-8.263904569980165,6.313066214654873 " />
			<path d="M47.52326824302898,10.999223041616137 L17.79173001749943,8.883551710336205 " />
			<path d="M47.52326824302898,10.999223041616137 L47.50674729111839,10.281659039361251 " />
			<path d="M47.50674729111839,10.281659039361251 L-8.263904569980177,6.313066214654873 " />
			<path d="M-9.108233138932068,1.0946887325319787 L-8.263904569980165,1.3313866454717802 " />
			<path d="M-8.263904569980165,6.313066214654873 L-8.263904569980165,1.3313866454717793 " />
			<path d="M17.79173001749943,3.008867556070965 L47.52326824302898,5.124538887350897 " />
			<path d="M47.52326824302898,5.124538887350896 L47.50674729111839,5.299979470178158 " />
			<path d="M-8.263904569980165,1.3313866454717798 L47.506747291118394,5.299979470178159 " />
			<path d="M-9.108233138932068,-8.696451524576755 L-8.263904569980165,-8.459753611636954 " />
			<path d="M17.79173001749943,-6.782272701037769 L47.52326824302898,-4.666601369757837 " />
			<path d="M47.52326824302898,-4.666601369757838 L47.50674729111839,-4.491160786930576 " />
			<path d="M-8.263904569980165,-8.459753611636954 L47.506747291118394,-4.491160786930575 " />
			<path d="M-9.108233138932068,-2.8217673703115147 L-8.263904569980165,-3.478074042453861 " />
			<path d="M47.52326824302898,1.2080827845074031 L17.79173001749943,-0.9075885467725291 " />
			<path d="M47.52326824302898,1.2080827845074031 L47.50674729111839,0.4905187822525179 " />
			<path d="M47.50674729111838,0.4905187822525176 L-8.263904569980177,-3.4780740424538616 " />
			<path d="M-8.263904569980165,-3.4780740424538603 L-8.263904569980165,-8.459753611636954 " />
			<path d="M47.52326824302898,-4.666601369757838 L47.52326824302898,1.2080827845074023 " />
			<path d="M47.52326824302898,5.124538887350896 L47.52326824302898,10.999223041616137 " />
			<path d="M47.50674729111839,5.299979470178159 L47.50674729111839,10.281659039361251 " />
			<path d="M47.50674729111839,-4.491160786930575 L47.50674729111839,0.49051878225251855 " />
			<path d="M-17.79173001749943,-15.73734989031232 L-17.131029168043217,-16.121145143152216 " />
			<path d="M-17.79173001749943,13.636070881013882 L-17.131029168043217,13.252275628173985 " />
			<path d="M-13.072438235669342,18.867461855803157 L-12.41173738621313,18.48366660296326 " />
			<path d="M12.41173738621313,20.68089442547167 L13.072438235669342,20.297099172631775 " />
			<path d="M-15.583911035542101,-19.725011942794517 L-14.923210186085889,-20.108807195634412 " />
			<path d="M14.923210186085889,20.108807195634412 L15.583911035542101,19.725011942794517 " />

       </g>
    </g>
    <g transform="translate(20,210.0)" stroke="rgb(0,0,255)">
        <line x1="30" y1="-30" x2="75" y2="-33" stroke-width="3" stroke="#000000" />
         <text x="80" y="-30" style="stroke:#000000">X </text>

        <line x1="30" y1="-30" x2="30" y2="-75" stroke-width="3" stroke="#000000" />
         <text x="25" y="-85" style="stroke:#000000">Y </text>

        <line x1="30" y1="-30" x2="58" y2="-15" stroke-width="3" stroke="#000000" />
         <text x="65" y="-5" style="stroke:#000000">Z </text>
        <!--
            <line x1="0" y1="0" x2="4.349423178548998" y2="0" stroke-width="3" />
            <text x="0" y="20" style="stroke:#000000">1  mm </text>
        -->
    </g>
</svg>
